<svg width="52" height="93" viewBox="0 0 52 93" fill="none" xmlns="http://www.w3.org/2000/svg">
<path d="M44.12 65.34C44.12 80.91 34.27 88.94 22.13 88.94C9.99 88.94 0.139999 80.9 0.139999 65.34C0.139999 49.78 9.99 32.58 22.13 32.58C34.27 32.58 44.12 49.78 44.12 65.34Z" fill="#CF9400"/>
<path d="M22.13 32.58C9.98 32.58 0.139999 49.78 0.139999 65.34C0.139999 71.05 1.47 75.74 3.74 79.39C7.51 82.3 12.28 83.78 17.49 83.78C29.64 83.78 39.48 75.74 39.48 60.18C39.48 51.83 36.65 43.02 32.15 36.64C29.15 34.1 25.74 32.58 22.13 32.58Z" fill="#E8AC0F"/>
<path d="M19.74 56.79C18.31 62.89 14.07 67.11 10.28 66.21C6.49 65.32 4.57 59.65 6 53.56C7.43 47.47 11.67 43.24 15.46 44.14C19.25 45.03 21.17 50.7 19.74 56.79Z" fill="#FFD978"/>
<mask id="mask0_145_7006" style="mask-type:luminance" maskUnits="userSpaceOnUse" x="0" y="32" width="45" height="57">
<path d="M44.12 65.34C44.12 80.91 34.27 88.94 22.13 88.94C9.99 88.94 0.139999 80.9 0.139999 65.34C0.139999 49.78 9.99 32.58 22.13 32.58C34.27 32.58 44.12 49.78 44.12 65.34Z" fill="white"/>
</mask>
<g mask="url(#mask0_145_7006)">
<path d="M4.45999 43.71L4.18999 43.44C3.71999 42.98 3.25999 42.66 2.76999 42.33C1.73999 41.63 0.679992 40.91 -0.360008 38.86L-0.630005 38.32L-0.0300064 38.3C0.789994 38.27 1.79999 36.94 2.67999 35.77C3.16999 35.12 3.67999 34.45 4.18999 33.93L4.45999 33.65L4.73 33.92C5.2 34.38 5.65999 34.7 6.14999 35.03C7.17999 35.73 8.23999 36.45 9.27999 38.5L9.55 39.04L8.94999 39.06C8.12999 39.09 7.11999 40.42 6.23999 41.59C5.74999 42.24 5.24 42.91 4.73 43.43L4.45999 43.71ZM0.55999 38.94C1.42999 40.48 2.28999 41.06 3.19999 41.68C3.60999 41.96 4.01999 42.24 4.43999 42.61C4.82999 42.17 5.23999 41.64 5.62999 41.12C6.53999 39.92 7.40999 38.77 8.35999 38.4C7.48999 36.86 6.62999 36.28 5.71999 35.66C5.30999 35.38 4.9 35.1 4.48 34.73C4.09 35.17 3.67999 35.7 3.28999 36.22C2.37999 37.42 1.50999 38.57 0.55999 38.94Z" fill="#DE7B00"/>
<path d="M13.7 43.71L13.43 43.44C12.96 42.98 12.5 42.66 12.01 42.33C10.98 41.63 9.92 40.91 8.88 38.86L8.61 38.32L9.21 38.3C10.03 38.27 11.04 36.94 11.92 35.77C12.41 35.12 12.92 34.45 13.43 33.93L13.7 33.65L13.97 33.92C14.44 34.38 14.9 34.7 15.39 35.03C16.42 35.73 17.48 36.45 18.52 38.5L18.79 39.04L18.19 39.06C17.37 39.09 16.36 40.42 15.48 41.59C14.99 42.24 14.48 42.91 13.97 43.43L13.7 43.71ZM9.8 38.94C10.67 40.48 11.53 41.06 12.44 41.68C12.85 41.96 13.26 42.24 13.68 42.61C14.07 42.17 14.48 41.64 14.87 41.12C15.78 39.92 16.65 38.77 17.6 38.4C16.73 36.86 15.87 36.28 14.96 35.66C14.55 35.38 14.14 35.1 13.72 34.73C13.33 35.17 12.92 35.7 12.53 36.22C11.62 37.42 10.75 38.57 9.8 38.94Z" fill="#DE7B00"/>
<path d="M22.95 43.71L22.68 43.44C22.21 42.98 21.75 42.66 21.26 42.33C20.23 41.63 19.17 40.91 18.13 38.86L17.86 38.32L18.46 38.3C19.28 38.27 20.29 36.94 21.17 35.77C21.66 35.12 22.17 34.45 22.68 33.93L22.95 33.65L23.22 33.92C23.69 34.38 24.15 34.7 24.64 35.03C25.67 35.73 26.73 36.45 27.77 38.5L28.04 39.04L27.44 39.06C26.62 39.09 25.61 40.42 24.73 41.59C24.24 42.24 23.73 42.91 23.22 43.43L22.95 43.71ZM19.05 38.94C19.92 40.48 20.78 41.06 21.69 41.68C22.1 41.96 22.51 42.24 22.93 42.61C23.32 42.17 23.73 41.64 24.12 41.12C25.03 39.92 25.9 38.77 26.85 38.4C25.98 36.86 25.12 36.28 24.21 35.66C23.8 35.38 23.39 35.1 22.97 34.73C22.58 35.17 22.17 35.7 21.78 36.22C20.87 37.42 20 38.57 19.05 38.94Z" fill="#DE7B00"/>
<path d="M31.98 43.71L31.71 43.44C31.24 42.98 30.78 42.66 30.29 42.33C29.26 41.63 28.2 40.91 27.16 38.86L26.89 38.32L27.49 38.3C28.31 38.27 29.32 36.94 30.2 35.77C30.69 35.12 31.2 34.45 31.71 33.93L31.98 33.65L32.25 33.92C32.72 34.38 33.18 34.7 33.67 35.03C34.69 35.73 35.76 36.45 36.8 38.5L37.07 39.04L36.47 39.06C35.65 39.09 34.64 40.42 33.76 41.59C33.27 42.24 32.76 42.91 32.25 43.43L31.98 43.71ZM28.08 38.94C28.95 40.48 29.81 41.06 30.72 41.68C31.13 41.96 31.54 42.24 31.96 42.61C32.35 42.17 32.76 41.64 33.15 41.12C34.06 39.92 34.93 38.77 35.88 38.4C35.01 36.86 34.15 36.28 33.24 35.66C32.83 35.38 32.42 35.1 32 34.73C31.61 35.17 31.2 35.7 30.81 36.22C29.9 37.42 29.03 38.57 28.08 38.94Z" fill="#DE7B00"/>
<path d="M4.54 52.95L4.27 52.68C3.8 52.22 3.34 51.9 2.85 51.57C1.82 50.87 0.760001 50.15 -0.279999 48.1L-0.550003 47.56L0.0500031 47.53C0.870003 47.5 1.88 46.17 2.76 45C3.25 44.35 3.76 43.68 4.27 43.16L4.54 42.88L4.81 43.15C5.28 43.61 5.74 43.93 6.23 44.26C7.26 44.96 8.32 45.68 9.36 47.73L9.63 48.27L9.03 48.3C8.21 48.33 7.2 49.66 6.32 50.83C5.83 51.48 5.32 52.15 4.81 52.67L4.54 52.95ZM0.639999 48.18C1.51 49.72 2.37 50.3 3.28 50.92C3.69 51.2 4.1 51.48 4.52 51.85C4.91 51.41 5.32 50.88 5.71 50.36C6.62 49.16 7.49 48.01 8.44 47.64C7.57 46.1 6.71 45.52 5.8 44.9C5.39 44.62 4.98 44.34 4.56 43.97C4.17 44.41 3.76 44.94 3.37 45.46C2.46 46.66 1.59 47.81 0.639999 48.18Z" fill="#DE7B00"/>
<path d="M13.79 52.95L13.52 52.68C13.05 52.22 12.59 51.9 12.1 51.57C11.07 50.87 10.01 50.15 8.97 48.1L8.7 47.56L9.3 47.53C10.12 47.5 11.13 46.17 12.01 45C12.5 44.35 13.01 43.68 13.52 43.16L13.79 42.88L14.06 43.15C14.53 43.61 14.99 43.93 15.48 44.26C16.51 44.96 17.57 45.68 18.61 47.73L18.88 48.27L18.28 48.3C17.46 48.33 16.45 49.66 15.57 50.83C15.08 51.48 14.57 52.15 14.06 52.67L13.79 52.95ZM9.89 48.18C10.76 49.72 11.62 50.3 12.53 50.92C12.94 51.2 13.35 51.48 13.77 51.85C14.16 51.41 14.57 50.88 14.96 50.36C15.87 49.16 16.74 48.01 17.69 47.64C16.82 46.1 15.96 45.52 15.05 44.9C14.64 44.62 14.23 44.34 13.81 43.97C13.42 44.41 13.01 44.94 12.62 45.46C11.71 46.66 10.84 47.81 9.89 48.18Z" fill="#DE7B00"/>
<path d="M22.82 52.95L22.54 52.68C22.07 52.22 21.61 51.9 21.12 51.57C20.09 50.87 19.03 50.15 17.99 48.1L17.72 47.56L18.32 47.53C19.14 47.5 20.15 46.17 21.03 45C21.52 44.35 22.03 43.68 22.54 43.16L22.81 42.88L23.08 43.15C23.55 43.61 24.01 43.93 24.5 44.26C25.53 44.96 26.59 45.68 27.63 47.73L27.9 48.27L27.3 48.3C26.48 48.33 25.47 49.66 24.59 50.83C24.1 51.48 23.59 52.15 23.08 52.67L22.81 52.95H22.82ZM18.92 48.18C19.79 49.72 20.65 50.3 21.56 50.92C21.97 51.2 22.38 51.48 22.8 51.85C23.19 51.41 23.6 50.88 23.99 50.36C24.9 49.16 25.77 48.01 26.72 47.64C25.85 46.1 24.99 45.52 24.08 44.9C23.67 44.62 23.26 44.34 22.84 43.97C22.45 44.41 22.04 44.94 21.65 45.46C20.74 46.66 19.87 47.81 18.92 48.18Z" fill="#DE7B00"/>
<path d="M32.07 52.95L31.8 52.68C31.33 52.22 30.87 51.9 30.38 51.57C29.35 50.87 28.29 50.15 27.25 48.1L26.98 47.56L27.58 47.53C28.4 47.5 29.41 46.17 30.29 45C30.78 44.35 31.29 43.68 31.8 43.16L32.07 42.88L32.34 43.15C32.81 43.61 33.27 43.93 33.76 44.26C34.79 44.96 35.85 45.68 36.89 47.73L37.16 48.27L36.56 48.3C35.74 48.33 34.73 49.66 33.85 50.83C33.36 51.48 32.85 52.15 32.34 52.67L32.07 52.95ZM28.17 48.18C29.04 49.72 29.9 50.3 30.81 50.92C31.22 51.2 31.63 51.48 32.05 51.85C32.44 51.41 32.85 50.88 33.24 50.36C34.15 49.16 35.02 48.01 35.97 47.64C35.1 46.1 34.24 45.52 33.33 44.9C32.92 44.62 32.51 44.34 32.09 43.97C31.7 44.41 31.29 44.94 30.9 45.46C29.99 46.66 29.12 47.81 28.17 48.18Z" fill="#DE7B00"/>
<path d="M4.65 61.99L4.38 61.72C3.91 61.26 3.45 60.94 2.96 60.61C1.94 59.91 0.880002 59.19 -0.169998 57.14L-0.440002 56.6L0.160004 56.58C0.980004 56.55 1.99 55.22 2.87 54.05C3.36 53.4 3.87 52.73 4.38 52.21L4.65 51.93L4.92 52.2C5.39 52.66 5.85 52.98 6.34 53.31C7.37 54.01 8.43 54.73 9.47 56.78L9.74 57.32L9.14 57.34C8.32 57.37 7.31 58.7 6.43 59.87C5.94 60.52 5.43 61.19 4.92 61.71L4.65 61.99ZM0.75 57.22C1.62 58.76 2.48 59.34 3.39 59.96C3.8 60.24 4.21 60.52 4.63 60.89C5.02 60.45 5.43 59.92 5.82 59.4C6.73 58.2 7.6 57.05 8.55 56.68C7.68 55.14 6.82 54.56 5.91 53.94C5.5 53.66 5.09 53.38 4.67 53.01C4.28 53.45 3.87 53.98 3.48 54.5C2.57 55.7 1.7 56.85 0.75 57.22Z" fill="#DE7B00"/>
<path d="M13.89 61.99L13.62 61.72C13.15 61.26 12.69 60.94 12.2 60.61C11.17 59.91 10.12 59.19 9.07 57.14L8.8 56.6L9.4 56.58C10.22 56.55 11.23 55.22 12.11 54.05C12.6 53.4 13.11 52.73 13.62 52.21L13.89 51.93L14.17 52.2C14.64 52.66 15.1 52.98 15.59 53.31C16.62 54.01 17.68 54.73 18.72 56.78L18.99 57.32L18.39 57.34C17.57 57.37 16.56 58.7 15.68 59.87C15.19 60.52 14.68 61.19 14.17 61.71L13.9 61.99H13.89ZM9.99 57.22C10.86 58.76 11.72 59.34 12.63 59.96C13.04 60.24 13.45 60.52 13.87 60.89C14.26 60.45 14.67 59.92 15.06 59.4C15.97 58.2 16.84 57.05 17.79 56.68C16.92 55.14 16.06 54.56 15.15 53.94C14.74 53.66 14.33 53.38 13.91 53.01C13.52 53.45 13.11 53.98 12.72 54.5C11.81 55.7 10.94 56.85 9.99 57.22Z" fill="#DE7B00"/>
<path d="M23.14 61.99L22.86 61.72C22.39 61.26 21.93 60.94 21.44 60.61C20.41 59.91 19.35 59.19 18.31 57.14L18.04 56.6L18.64 56.58C19.46 56.55 20.47 55.22 21.35 54.05C21.84 53.4 22.35 52.73 22.86 52.21L23.13 51.93L23.4 52.2C23.87 52.66 24.33 52.98 24.82 53.31C25.85 54.01 26.91 54.73 27.95 56.78L28.22 57.32L27.62 57.34C26.8 57.37 25.79 58.7 24.91 59.87C24.42 60.52 23.91 61.19 23.4 61.71L23.13 61.99H23.14ZM19.24 57.22C20.11 58.76 20.97 59.34 21.88 59.96C22.29 60.24 22.7 60.52 23.12 60.89C23.51 60.45 23.92 59.92 24.31 59.41C25.22 58.21 26.09 57.06 27.04 56.69C26.17 55.15 25.31 54.57 24.4 53.95C23.99 53.67 23.58 53.39 23.16 53.02C22.77 53.46 22.36 53.99 21.97 54.51C21.06 55.71 20.19 56.86 19.24 57.23V57.22Z" fill="#DE7B00"/>
<path d="M32.17 61.99L31.9 61.72C31.43 61.26 30.97 60.94 30.48 60.61C29.45 59.91 28.4 59.19 27.35 57.14L27.08 56.6L27.68 56.58C28.5 56.55 29.51 55.22 30.39 54.05C30.88 53.4 31.39 52.73 31.9 52.21L32.17 51.93L32.44 52.2C32.91 52.66 33.37 52.98 33.86 53.31C34.89 54.01 35.95 54.73 36.99 56.78L37.26 57.32L36.66 57.34C35.84 57.37 34.83 58.7 33.95 59.87C33.46 60.52 32.95 61.19 32.44 61.71L32.17 61.99ZM28.27 57.22C29.14 58.76 30 59.34 30.91 59.96C31.32 60.24 31.73 60.52 32.15 60.89C32.54 60.45 32.95 59.92 33.34 59.4C34.25 58.2 35.12 57.05 36.07 56.68C35.2 55.14 34.34 54.56 33.43 53.94C33.02 53.66 32.61 53.38 32.19 53.01C31.8 53.45 31.39 53.98 31 54.5C30.09 55.7 29.22 56.85 28.27 57.22Z" fill="#DE7B00"/>
<path d="M4.46 71.02L4.18 70.75C3.71 70.29 3.25 69.97 2.76 69.64C1.73 68.94 0.669997 68.22 -0.370003 66.17L-0.639999 65.63L-0.0400009 65.61C0.779999 65.58 1.78 64.25 2.67 63.08C3.16 62.43 3.67 61.76 4.18 61.24L4.45 60.96L4.72 61.23C5.19 61.69 5.65 62.01 6.14 62.34C7.17 63.04 8.22 63.76 9.27 65.81L9.54 66.35L8.94 66.37C8.12 66.4 7.11 67.73 6.23 68.9C5.74 69.55 5.23 70.22 4.72 70.74L4.45 71.02H4.46ZM0.559998 66.25C1.43 67.79 2.29 68.37 3.2 68.99C3.61 69.27 4.02 69.55 4.44 69.92C4.83 69.48 5.24 68.95 5.63 68.43C6.54 67.23 7.41 66.08 8.36 65.71C7.49 64.17 6.63 63.59 5.72 62.97C5.31 62.69 4.9 62.41 4.48 62.04C4.09 62.48 3.68 63.01 3.29 63.53C2.38 64.73 1.51 65.88 0.559998 66.25Z" fill="#DE7B00"/>
<path d="M13.7 71.02L13.42 70.75C12.95 70.29 12.49 69.97 12 69.64C10.97 68.94 9.91001 68.22 8.87001 66.17L8.60001 65.63L9.2 65.61C10.02 65.58 11.02 64.25 11.91 63.08C12.4 62.43 12.91 61.76 13.42 61.24L13.69 60.96L13.96 61.23C14.43 61.69 14.89 62.01 15.38 62.34C16.41 63.04 17.46 63.76 18.51 65.81L18.78 66.35L18.18 66.37C17.36 66.4 16.35 67.73 15.47 68.9C14.98 69.55 14.47 70.22 13.96 70.74L13.69 71.02H13.7ZM9.80001 66.25C10.67 67.79 11.53 68.37 12.44 68.99C12.85 69.27 13.26 69.55 13.68 69.92C14.07 69.48 14.48 68.95 14.87 68.43C15.78 67.23 16.65 66.08 17.6 65.71C16.73 64.17 15.87 63.59 14.96 62.97C14.55 62.69 14.14 62.41 13.72 62.04C13.33 62.48 12.92 63.01 12.53 63.53C11.62 64.73 10.75 65.88 9.80001 66.25Z" fill="#DE7B00"/>
<path d="M22.95 71.02L22.67 70.75C22.2 70.29 21.74 69.97 21.25 69.64C20.22 68.94 19.16 68.22 18.12 66.17L17.85 65.63L18.45 65.61C19.27 65.58 20.27 64.25 21.16 63.08C21.65 62.43 22.16 61.76 22.67 61.24L22.94 60.96L23.21 61.23C23.68 61.69 24.14 62.01 24.63 62.34C25.66 63.04 26.71 63.76 27.76 65.81L28.03 66.35L27.43 66.37C26.61 66.4 25.6 67.73 24.72 68.9C24.23 69.55 23.72 70.22 23.21 70.74L22.94 71.02H22.95ZM19.05 66.25C19.92 67.79 20.78 68.37 21.69 68.99C22.1 69.27 22.51 69.55 22.93 69.92C23.32 69.48 23.73 68.95 24.12 68.43C25.03 67.23 25.9 66.08 26.85 65.71C25.98 64.17 25.12 63.59 24.21 62.97C23.8 62.69 23.39 62.41 22.97 62.04C22.58 62.48 22.17 63.01 21.78 63.53C20.87 64.73 20 65.88 19.05 66.25Z" fill="#DE7B00"/>
<path d="M31.98 71.02L31.7 70.75C31.23 70.29 30.77 69.97 30.28 69.64C29.25 68.94 28.19 68.22 27.15 66.17L26.88 65.63L27.48 65.61C28.3 65.58 29.3 64.25 30.19 63.08C30.68 62.43 31.19 61.76 31.7 61.24L31.97 60.96L32.24 61.23C32.71 61.69 33.17 62.01 33.66 62.34C34.68 63.04 35.74 63.76 36.79 65.81L37.06 66.35L36.46 66.37C35.64 66.4 34.63 67.73 33.75 68.9C33.26 69.55 32.75 70.22 32.24 70.74L31.97 71.02H31.98ZM28.08 66.25C28.95 67.79 29.81 68.37 30.72 68.99C31.13 69.27 31.54 69.55 31.96 69.92C32.35 69.48 32.76 68.95 33.15 68.43C34.06 67.23 34.93 66.08 35.88 65.71C35.01 64.17 34.15 63.59 33.24 62.97C32.83 62.69 32.42 62.41 32 62.04C31.61 62.48 31.2 63.01 30.81 63.53C29.9 64.73 29.03 65.88 28.08 66.25Z" fill="#DE7B00"/>
<path d="M4.54 80.26L4.27 79.99C3.8 79.53 3.34 79.21 2.85 78.88C1.82 78.18 0.760001 77.46 -0.279999 75.41L-0.550003 74.87L0.0500031 74.85C0.870003 74.82 1.87 73.49 2.76 72.32C3.25 71.67 3.76 71 4.27 70.48L4.54 70.2L4.81 70.47C5.28 70.93 5.74 71.25 6.23 71.58C7.25 72.28 8.31 73 9.36 75.05L9.63 75.59L9.03 75.61C8.21 75.64 7.2 76.97 6.32 78.14C5.83 78.79 5.32 79.46 4.81 79.98L4.54 80.26ZM0.639999 75.49C1.51 77.03 2.37 77.61 3.28 78.23C3.69 78.51 4.1 78.79 4.52 79.16C4.91 78.72 5.32 78.19 5.71 77.67C6.62 76.47 7.49 75.32 8.44 74.95C7.57 73.41 6.71 72.83 5.8 72.21C5.39 71.93 4.98 71.65 4.56 71.28C4.17 71.72 3.76 72.25 3.37 72.77C2.46 73.97 1.59 75.12 0.639999 75.49Z" fill="#DE7B00"/>
<path d="M13.79 80.26L13.52 79.99C13.05 79.53 12.59 79.21 12.1 78.88C11.07 78.18 10.01 77.46 8.97 75.41L8.7 74.87L9.3 74.85C10.12 74.82 11.12 73.49 12.01 72.32C12.5 71.67 13.01 71 13.52 70.48L13.79 70.2L14.06 70.47C14.53 70.93 14.99 71.25 15.48 71.58C16.51 72.28 17.56 73 18.61 75.05L18.88 75.59L18.28 75.61C17.46 75.64 16.45 76.97 15.57 78.14C15.08 78.79 14.57 79.46 14.06 79.98L13.79 80.26ZM9.89 75.49C10.76 77.03 11.62 77.61 12.53 78.23C12.94 78.51 13.35 78.79 13.77 79.16C14.16 78.72 14.57 78.19 14.96 77.67C15.87 76.47 16.74 75.32 17.69 74.95C16.82 73.41 15.96 72.83 15.05 72.21C14.64 71.93 14.23 71.65 13.81 71.28C13.42 71.72 13.01 72.25 12.62 72.77C11.71 73.97 10.84 75.12 9.89 75.49Z" fill="#DE7B00"/>
<path d="M22.82 80.26L22.54 79.99C22.07 79.53 21.61 79.21 21.12 78.88C20.09 78.18 19.03 77.46 17.99 75.41L17.72 74.87L18.32 74.85C19.14 74.82 20.14 73.49 21.03 72.32C21.52 71.67 22.03 71 22.54 70.48L22.81 70.2L23.08 70.47C23.55 70.93 24.01 71.25 24.5 71.58C25.53 72.28 26.58 73 27.63 75.05L27.9 75.59L27.3 75.61C26.48 75.64 25.47 76.97 24.59 78.14C24.1 78.79 23.59 79.46 23.08 79.98L22.81 80.26H22.82ZM18.92 75.49C19.79 77.03 20.65 77.61 21.56 78.23C21.97 78.51 22.38 78.79 22.8 79.16C23.19 78.72 23.6 78.19 23.99 77.67C24.9 76.47 25.77 75.32 26.72 74.95C25.85 73.41 24.99 72.83 24.08 72.21C23.67 71.93 23.26 71.65 22.84 71.28C22.45 71.72 22.04 72.25 21.65 72.77C20.74 73.97 19.87 75.12 18.92 75.49Z" fill="#DE7B00"/>
<path d="M32.07 80.26L31.8 79.99C31.33 79.53 30.87 79.21 30.38 78.88C29.35 78.18 28.29 77.46 27.25 75.41L26.98 74.87L27.58 74.85C28.4 74.82 29.4 73.49 30.29 72.32C30.78 71.67 31.29 71 31.8 70.48L32.07 70.2L32.34 70.47C32.81 70.93 33.27 71.25 33.76 71.58C34.78 72.28 35.84 73 36.89 75.05L37.16 75.59L36.56 75.61C35.74 75.64 34.73 76.97 33.85 78.14C33.36 78.79 32.85 79.46 32.34 79.98L32.07 80.26ZM28.17 75.49C29.04 77.03 29.9 77.61 30.81 78.23C31.22 78.51 31.63 78.79 32.05 79.16C32.44 78.72 32.85 78.19 33.24 77.67C34.15 76.47 35.02 75.32 35.97 74.95C35.1 73.41 34.24 72.83 33.33 72.21C32.92 71.93 32.51 71.65 32.09 71.28C31.7 71.72 31.29 72.25 30.9 72.77C29.99 73.97 29.12 75.12 28.17 75.49Z" fill="#DE7B00"/>
<path d="M4.65 89.3L4.38 89.03C3.91 88.57 3.45 88.25 2.96 87.92C1.93 87.22 0.870002 86.5 -0.169998 84.45L-0.440002 83.91L0.160004 83.89C0.980004 83.86 1.99 82.53 2.87 81.36C3.36 80.71 3.87 80.04 4.38 79.52L4.65 79.24L4.92 79.51C5.39 79.97 5.85 80.29 6.34 80.62C7.37 81.32 8.43 82.04 9.47 84.09L9.74 84.63L9.14 84.65C8.32 84.68 7.31 86.01 6.43 87.18C5.94 87.83 5.43 88.5 4.92 89.02L4.65 89.3ZM0.75 84.53C1.62 86.07 2.48 86.65 3.39 87.27C3.8 87.55 4.21 87.83 4.63 88.2C5.02 87.76 5.43 87.23 5.82 86.71C6.73 85.51 7.6 84.36 8.55 83.99C7.68 82.45 6.82 81.87 5.91 81.25C5.5 80.97 5.09 80.69 4.67 80.32C4.28 80.76 3.87 81.29 3.48 81.81C2.57 83.01 1.7 84.16 0.75 84.53Z" fill="#DE7B00"/>
<path d="M13.89 89.3L13.62 89.03C13.15 88.57 12.69 88.25 12.2 87.92C11.17 87.22 10.11 86.5 9.07 84.45L8.8 83.91L9.4 83.89C10.22 83.86 11.23 82.53 12.11 81.36C12.6 80.71 13.11 80.04 13.62 79.52L13.89 79.24L14.16 79.51C14.63 79.97 15.09 80.29 15.58 80.62C16.61 81.32 17.67 82.04 18.71 84.09L18.98 84.63L18.38 84.65C17.56 84.68 16.55 86.01 15.67 87.18C15.18 87.83 14.67 88.5 14.16 89.02L13.89 89.3ZM9.99 84.53C10.86 86.07 11.72 86.65 12.63 87.27C13.04 87.55 13.45 87.83 13.87 88.2C14.26 87.76 14.67 87.23 15.06 86.71C15.97 85.51 16.84 84.36 17.79 83.99C16.92 82.45 16.06 81.87 15.15 81.25C14.74 80.97 14.33 80.69 13.91 80.32C13.52 80.76 13.11 81.29 12.72 81.81C11.81 83.01 10.94 84.16 9.99 84.53Z" fill="#DE7B00"/>
<path d="M23.14 89.3L22.86 89.03C22.39 88.57 21.93 88.25 21.44 87.92C20.41 87.22 19.35 86.5 18.31 84.45L18.04 83.91L18.64 83.89C19.46 83.86 20.47 82.53 21.35 81.36C21.84 80.71 22.35 80.04 22.86 79.52L23.13 79.24L23.4 79.51C23.87 79.97 24.33 80.29 24.82 80.62C25.85 81.32 26.9 82.04 27.95 84.09L28.22 84.63L27.62 84.65C26.8 84.68 25.79 86.01 24.91 87.18C24.42 87.83 23.91 88.5 23.4 89.02L23.13 89.3H23.14ZM19.24 84.53C20.11 86.07 20.97 86.65 21.88 87.27C22.29 87.55 22.7 87.83 23.12 88.2C23.51 87.76 23.92 87.23 24.31 86.71C25.22 85.51 26.09 84.36 27.04 83.99C26.17 82.45 25.31 81.87 24.4 81.25C23.99 80.97 23.58 80.69 23.16 80.32C22.77 80.76 22.36 81.29 21.97 81.81C21.06 83.01 20.19 84.16 19.24 84.53Z" fill="#DE7B00"/>
<path d="M32.17 89.3L31.9 89.03C31.43 88.57 30.97 88.25 30.48 87.92C29.45 87.22 28.39 86.5 27.35 84.45L27.08 83.91L27.68 83.89C28.5 83.86 29.51 82.53 30.39 81.36C30.88 80.71 31.39 80.04 31.9 79.52L32.17 79.24L32.44 79.51C32.91 79.97 33.37 80.29 33.86 80.62C34.88 81.32 35.94 82.04 36.99 84.09L37.26 84.63L36.66 84.65C35.84 84.68 34.83 86.01 33.95 87.18C33.46 87.83 32.95 88.5 32.44 89.02L32.17 89.3ZM28.27 84.53C29.14 86.07 30 86.65 30.91 87.27C31.32 87.55 31.73 87.83 32.15 88.2C32.54 87.76 32.95 87.23 33.34 86.71C34.25 85.51 35.12 84.36 36.07 83.99C35.2 82.45 34.34 81.87 33.43 81.25C33.02 80.97 32.61 80.69 32.19 80.32C31.8 80.76 31.39 81.29 31 81.81C30.09 83.01 29.22 84.16 28.27 84.53Z" fill="#DE7B00"/>
<path d="M40.94 43.71L40.67 43.44C40.2 42.98 39.74 42.66 39.25 42.33C38.23 41.63 37.17 40.91 36.12 38.86L35.85 38.32L36.45 38.3C37.27 38.27 38.28 36.94 39.16 35.77C39.65 35.12 40.16 34.45 40.67 33.93L40.94 33.65L41.22 33.92C41.69 34.38 42.15 34.7 42.64 35.03C43.67 35.73 44.73 36.45 45.77 38.5L46.04 39.04L45.44 39.06C44.62 39.09 43.61 40.42 42.73 41.59C42.24 42.24 41.73 42.91 41.22 43.43L40.95 43.71H40.94ZM37.04 38.94C37.91 40.48 38.77 41.06 39.68 41.68C40.09 41.96 40.5 42.24 40.92 42.61C41.31 42.17 41.72 41.64 42.11 41.12C43.02 39.92 43.89 38.77 44.84 38.4C43.97 36.86 43.11 36.28 42.2 35.66C41.79 35.38 41.38 35.1 40.96 34.73C40.57 35.17 40.16 35.7 39.77 36.22C38.86 37.42 37.99 38.57 37.04 38.94Z" fill="#DE7B00"/>
<path d="M41.03 52.95L40.75 52.68C40.28 52.22 39.82 51.9 39.33 51.57C38.3 50.87 37.24 50.15 36.2 48.1L35.93 47.56L36.53 47.53C37.35 47.5 38.36 46.17 39.24 45C39.73 44.35 40.24 43.68 40.75 43.16L41.02 42.88L41.29 43.15C41.76 43.61 42.22 43.93 42.71 44.26C43.74 44.96 44.8 45.68 45.84 47.73L46.11 48.27L45.51 48.3C44.69 48.33 43.68 49.66 42.8 50.83C42.31 51.48 41.8 52.15 41.29 52.67L41.02 52.95H41.03ZM37.13 48.18C38 49.72 38.86 50.3 39.77 50.92C40.18 51.2 40.59 51.48 41.01 51.85C41.4 51.41 41.81 50.88 42.2 50.36C43.11 49.16 43.98 48.01 44.93 47.64C44.06 46.1 43.2 45.52 42.29 44.9C41.88 44.62 41.47 44.34 41.05 43.97C40.66 44.41 40.25 44.94 39.86 45.46C38.95 46.66 38.08 47.81 37.13 48.18Z" fill="#DE7B00"/>
<path d="M41.13 61.99L40.85 61.72C40.38 61.26 39.92 60.94 39.43 60.61C38.41 59.91 37.35 59.19 36.3 57.14L36.03 56.6L36.63 56.58C37.45 56.55 38.46 55.22 39.34 54.05C39.83 53.4 40.34 52.73 40.85 52.21L41.12 51.93L41.39 52.2C41.86 52.66 42.32 52.98 42.81 53.31C43.84 54.01 44.9 54.73 45.94 56.78L46.21 57.32L45.61 57.34C44.79 57.37 43.78 58.7 42.9 59.87C42.41 60.52 41.9 61.19 41.39 61.71L41.12 61.99H41.13ZM37.23 57.22C38.1 58.76 38.96 59.34 39.87 59.96C40.28 60.24 40.69 60.52 41.11 60.89C41.5 60.45 41.91 59.92 42.3 59.41C43.21 58.21 44.08 57.06 45.03 56.69C44.16 55.15 43.3 54.57 42.39 53.95C41.98 53.67 41.57 53.39 41.15 53.02C40.76 53.46 40.35 53.99 39.96 54.51C39.05 55.71 38.18 56.86 37.23 57.23V57.22Z" fill="#DE7B00"/>
<path d="M40.94 71.02L40.67 70.75C40.2 70.29 39.74 69.97 39.25 69.64C38.22 68.94 37.16 68.22 36.12 66.17L35.85 65.63L36.45 65.61C37.27 65.58 38.28 64.25 39.16 63.08C39.65 62.43 40.16 61.76 40.67 61.24L40.94 60.96L41.21 61.23C41.68 61.69 42.14 62.01 42.63 62.34C43.66 63.04 44.72 63.76 45.76 65.81L46.03 66.35L45.43 66.37C44.61 66.4 43.6 67.73 42.72 68.9C42.23 69.55 41.72 70.22 41.21 70.74L40.94 71.02ZM37.04 66.25C37.91 67.79 38.77 68.37 39.68 68.99C40.09 69.27 40.5 69.55 40.92 69.92C41.31 69.48 41.72 68.95 42.11 68.43C43.02 67.23 43.89 66.08 44.84 65.71C43.97 64.17 43.11 63.59 42.2 62.97C41.79 62.69 41.38 62.41 40.96 62.04C40.57 62.48 40.16 63.01 39.77 63.53C38.86 64.73 37.99 65.88 37.04 66.25Z" fill="#DE7B00"/>
<path d="M41.03 80.26L40.75 79.99C40.28 79.53 39.82 79.21 39.33 78.88C38.3 78.18 37.24 77.46 36.2 75.41L35.93 74.87L36.53 74.85C37.35 74.82 38.35 73.49 39.24 72.32C39.73 71.67 40.24 71 40.75 70.48L41.02 70.2L41.29 70.47C41.76 70.93 42.22 71.25 42.71 71.58C43.74 72.28 44.79 73 45.84 75.05L46.11 75.59L45.51 75.61C44.69 75.64 43.68 76.97 42.8 78.14C42.31 78.79 41.8 79.46 41.29 79.98L41.02 80.26H41.03ZM37.13 75.49C38 77.03 38.86 77.61 39.77 78.23C40.18 78.51 40.59 78.79 41.01 79.16C41.4 78.72 41.81 78.19 42.2 77.67C43.11 76.47 43.98 75.32 44.93 74.95C44.06 73.41 43.2 72.83 42.29 72.21C41.88 71.93 41.47 71.65 41.05 71.28C40.66 71.72 40.25 72.25 39.86 72.77C38.95 73.97 38.08 75.12 37.13 75.49Z" fill="#DE7B00"/>
<path d="M41.13 89.3L40.85 89.03C40.38 88.57 39.92 88.25 39.43 87.92C38.4 87.22 37.34 86.5 36.3 84.45L36.03 83.91L36.63 83.89C37.45 83.86 38.46 82.53 39.34 81.36C39.83 80.71 40.34 80.04 40.85 79.52L41.12 79.24L41.39 79.51C41.86 79.97 42.32 80.29 42.81 80.62C43.84 81.32 44.89 82.04 45.94 84.09L46.21 84.63L45.61 84.65C44.79 84.68 43.78 86.01 42.9 87.18C42.41 87.83 41.9 88.5 41.39 89.02L41.12 89.3H41.13ZM37.23 84.53C38.1 86.07 38.96 86.65 39.87 87.27C40.28 87.55 40.69 87.83 41.11 88.2C41.5 87.76 41.91 87.23 42.3 86.71C43.21 85.51 44.08 84.36 45.03 83.99C44.16 82.45 43.3 81.87 42.39 81.25C41.98 80.97 41.57 80.69 41.15 80.32C40.76 80.76 40.35 81.29 39.96 81.81C39.05 83.01 38.18 84.16 37.23 84.53Z" fill="#DE7B00"/>
</g>
<path d="M20.41 20.1C19.21 19.23 19.6 11.46 19.31 8.43C18.91 4.11 17.46 0.330002 17.46 0.330002C17.46 0.330002 22.46 3.24 24.79 8.95C26.21 12.44 27.69 19.2 26.39 19.61C25.09 20.02 21.61 20.96 20.41 20.09V20.1Z" fill="#356F3D"/>
<path d="M27.25 25.4C28.78 25.09 29.7 16.46 30.91 13.23C32.63 8.63001 40.01 5.5 40.01 5.5C40.01 5.5 32.28 4.86001 26.78 10.16C23.03 13.77 19.56 23.5 20.82 24.67C22.09 25.84 25.72 25.7 27.25 25.39V25.4Z" fill="#356F3D"/>
<path d="M18.02 24.66C16.49 24.35 14.82 17.2 13.61 13.97C11.89 9.36999 9.22 5.95999 9.22 5.95999C9.22 5.95999 15.41 6.44999 19.6 11.54C22.15 14.65 25.71 22.77 24.45 23.94C23.18 25.11 19.55 24.97 18.02 24.66Z" fill="#356F3D"/>
<path d="M26.06 30.02C27.62 30.05 30.81 23.44 32.69 20.55C35.37 16.44 38.71 13.68 38.71 13.68C38.71 13.68 32.56 12.81 27.37 16.86C24.2 19.34 18.96 26.49 19.94 27.91C20.92 29.33 24.49 29.98 26.06 30.01V30.02Z" fill="#428A1C"/>
<path d="M18.1 31.54C16.54 31.53 13.47 23.87 11.68 20.92C9.13 16.73 1.84 14.39 1.84 14.39C1.84 14.39 9.31 12.32 15.71 16.49C20.07 19.33 25.3 28.24 24.28 29.63C23.26 31.02 19.66 31.56 18.1 31.55V31.54Z" fill="#428A1C"/>
<path d="M18.98 35.16C16.91 33.46 18.26 26.58 18.74 23.57C19.47 19.06 19.25 15.14 19.25 15.14C19.25 15.14 22.26 18.63 24.16 24.5C25.32 28.08 26.29 34.94 24.96 35.25C23.63 35.56 21.1 36.9 18.98 35.16Z" fill="#50A822"/>
<path d="M26.69 35.84C29.67 35.57 31.21 31.6 33.1 29.46C35.79 26.41 39.01 24.72 39.01 24.72C39.01 24.72 33.46 22.55 28.48 24.99C25.44 26.47 20.23 31.64 21.04 33.13C21.85 34.62 25.23 35.98 26.69 35.85V35.84Z" fill="#50A822"/>
<path d="M16.76 35.84C13.78 35.57 12.24 31.6 10.35 29.46C7.66 26.41 4.44 24.72 4.44 24.72C4.44 24.72 9.99 22.55 14.97 24.99C18.01 26.47 23.22 31.64 22.41 33.13C21.6 34.62 18.22 35.98 16.76 35.85V35.84Z" fill="#50A822"/>
<path d="M19.79 86.47L19.97 86.66C23.65 89.52 28.8 91.91 35.15 91.66C45.36 91.25 47.48 89.62 50.68 86.61L34.16 64.59L19.79 86.48V86.47Z" fill="#FECC19"/>
<path d="M47.83 88.82L32.08 68.06L18.62 86.45L19.91 87.5C23.59 90.36 28.81 91.72 35.16 91.72C39.91 91.72 44.47 90.58 47.83 88.82Z" fill="#FFF56D"/>
<path d="M29.89 85.62C21.78 85.62 29.63 72.23 31.11 72.23C32.59 72.23 38.01 85.62 29.89 85.62Z" fill="#FFFBC8"/>
<path d="M49.81 87.27C49.22 87.84 44.7 91.68 34.63 91.68C25.13 91.68 20.47 88.09 19.56 87.33C19.12 86.96 18.79 86.65 18.57 86.42L18.22 87.16C18.22 87.16 18.66 87.67 19.56 88.44C20.46 89.21 25.13 92.79 34.63 92.79C44.71 92.79 49.22 88.95 49.81 88.38C50.4 87.81 51.03 87.16 51.03 87.16L50.65 86.44C50.42 86.67 50.11 86.98 49.81 87.27Z" fill="#A8620B"/>
<path d="M34.63 91.64C25.13 91.64 20.47 88.05 19.56 87.29C19.13 86.92 18.81 86.62 18.59 86.4L18.22 87.17C18.22 87.17 18.66 87.68 19.56 88.45C20.46 89.22 25.13 92.8 34.63 92.8C41.78 92.8 46.13 90.87 48.26 89.54L47.79 88.73C45.52 90.03 41.29 91.64 34.63 91.64Z" fill="#C2710D"/>
<path d="M43.18 88.63C43.18 88.47 43.29 85.93 42.05 84.94C40.81 83.95 38.6 81.82 38.71 81.04C38.82 80.26 37.31 77.51 37.09 77.25C36.87 76.99 35.63 74.6 35.63 74.6C35.63 74.6 36.82 77.35 36.76 77.98C36.71 78.6 37.08 78.71 37.19 78.86C37.3 79.02 36.7 78.91 37.08 79.85C37.46 80.79 39.13 82.19 38.75 82.5C38.37 82.81 39.07 82.86 39.4 83.07C39.73 83.28 39.62 83.69 39.72 84.06C39.82 84.43 41.55 84.16 41.07 84.94C40.58 85.72 40.1 85.98 40.69 86.29C41.28 86.6 41.66 86.03 41.66 86.03C41.66 86.03 41.71 86.91 42.15 87.64C42.58 88.37 43.17 88.63 43.17 88.63H43.18Z" fill="#FFDA4A"/>
<path d="M30.07 75.09C29.54 76.54 28.52 77.9 29.34 77.75C30.16 77.6 30.07 75.09 30.07 75.09Z" fill="#FFDA4A"/>
<path d="M28.28 78.47C27.6 79.44 28.09 79.97 27.99 80.16C27.89 80.35 27.75 80.64 27.31 81.18C26.87 81.71 26.78 82.53 26.44 83.11C26.1 83.69 26.15 84.17 26.39 84.17C26.63 84.17 27.65 83.01 27.41 83.54C27.17 84.07 25.09 87.94 25.23 87.99C25.37 88.04 27.02 87.12 27.16 86.49C27.3 85.86 28.08 83.3 27.98 82.72C27.88 82.14 28.9 81.56 28.8 80.35C28.7 79.14 28.7 78.85 28.7 78.85L28.26 78.46L28.28 78.47Z" fill="#FFDA4A"/>
<path d="M32.4 75.33C32.11 76.35 31.72 84.18 31.53 84.42C31.34 84.66 32.06 85.39 31.82 85.48C31.58 85.58 30.51 87.17 30.42 87.41C30.32 87.65 31 88.86 31.15 88.86C31.3 88.86 32.07 87.22 32.12 86.54C32.17 85.86 32.17 84.85 32.27 83.88C32.37 82.91 33 83.25 32.51 80.78C32.03 78.31 32.99 80.54 32.85 78.89C32.7 77.25 32.41 75.31 32.41 75.31L32.4 75.33Z" fill="#FFDA4A"/>
<path d="M35.1 80.5C35.34 82.34 37.08 84.8 37.23 86.3C37.38 87.8 37.42 88.52 36.89 88.82C36.36 89.11 36.31 88.63 36.31 87.47C36.31 86.31 36.21 86.16 35.63 85.24C35.05 84.32 35.92 85.05 35.34 83.4C34.76 81.76 33.89 81.56 34.57 79.53C35.25 77.5 34.52 75.18 34.52 75.18L35.1 80.5Z" fill="#FFDA4A"/>
</svg>
