<svg width="60" height="65" viewBox="0 0 60 65" fill="none" xmlns="http://www.w3.org/2000/svg">
<path d="M29.6992 5.71809L26.8372 12.4771L28.421 13.1478L31.2831 6.38877L29.6992 5.71809Z" fill="#578D38"/>
<path d="M55.09 37.6C55.09 52.66 42.89 64.86 27.83 64.86C12.77 64.86 0.570007 52.66 0.570007 37.6C0.570007 22.54 12.8 9.48 27.83 12.06C43.5 9.27 55.09 22.55 55.09 37.6Z" fill="#FF7000"/>
<path d="M27.83 12.06C12.81 9.48 0.570007 22.55 0.570007 37.6C0.570007 47.32 5.66001 55.85 13.32 60.67C15.36 61.16 17.48 61.42 19.67 61.42C34.73 61.42 46.93 49.22 46.93 34.16C46.93 25.12 42.75 16.72 36.01 12.06C33.45 11.57 30.71 11.54 27.83 12.06Z" fill="#FF892B"/>
<path d="M29.69 5.73C29.69 5.73 34.01 11.38 42.16 11.49C50.31 11.6 59.2 6.13 59.2 6.13C59.2 6.13 50.46 0.42 42.31 0.31C34.16 0.2 29.69 5.73 29.69 5.73Z" fill="#50A822"/>
<path d="M42.16 11.49C50.31 11.6 59.2 6.13 59.2 6.13C59.2 6.13 59.14 6.09 59.03 6.02L29.78 5.84C30.42 6.61 34.67 11.4 42.16 11.5V11.49Z" fill="#578D38"/>
<path d="M18.17 41.89C23.8585 41.89 28.47 37.2785 28.47 31.59C28.47 25.9015 23.8585 21.29 18.17 21.29C12.4815 21.29 7.87 25.9015 7.87 31.59C7.87 37.2785 12.4815 41.89 18.17 41.89Z" fill="#FFA861"/>
</svg>
