<svg width="70" height="35" viewBox="0 0 70 35" fill="none" xmlns="http://www.w3.org/2000/svg">
<path d="M7.26999 10.27L11.07 12.95C11.07 12.95 7.30999 13.42 5.29999 19.07C3.84999 23.15 4.32001 28.44 4.39001 28.47C4.40001 28.55 9.52999 29.97 13.8 29.28C19.72 28.32 20.86 24.71 20.86 24.71L23.25 29.29C23.25 29.29 30.22 26.39 29.9 20.14C29.66 15.41 26.69 12.31 25.25 11.08C24.3 9.45 21.79 5.96 17.18 4.87C11.1 3.43 7.25 10.25 7.25 10.25L7.26999 10.27Z" fill="#578D38"/>
<path d="M33.43 9.24001C33.43 12.31 30.94 14.79 27.88 14.79C24.82 14.79 22.33 12.3 22.33 9.24001C22.33 6.18001 24.82 3.69 27.88 3.69C30.94 3.69 33.43 6.18001 33.43 9.24001Z" fill="#E00000"/>
<path d="M44.05 14.93C44.05 18 41.56 20.48 38.5 20.48C35.44 20.48 32.95 17.99 32.95 14.93C32.95 11.87 35.44 9.38 38.5 9.38C41.56 9.38 44.05 11.87 44.05 14.93Z" fill="#E00000"/>
<path d="M52.72 20.09C52.72 22.64 50.65 24.71 48.1 24.71C45.55 24.71 43.48 22.64 43.48 20.09C43.48 17.54 45.55 15.47 48.1 15.47C50.65 15.47 52.72 17.54 52.72 20.09Z" fill="#E00000"/>
<path d="M60.12 24.18C60.12 26.21 58.47 27.86 56.44 27.86C54.41 27.86 52.76 26.21 52.76 24.18C52.76 22.15 54.41 20.5 56.44 20.5C58.47 20.5 60.12 22.15 60.12 24.18Z" fill="#E00000"/>
<path d="M60.35 24.68C56.06 24.68 49.63 23.89 44.11 18.9C24.59 1.25 0.850002 2.96001 0.690002 2.97001L0.589996 0.160009C1.31 0.140009 24.35 0.900011 45.67 18.35C58.36 28.74 69.55 20.98 69.65 20.91C69.65 20.91 66.76 24.68 60.36 24.68H60.35Z" fill="#50A822"/>
<path d="M61.86 27.74L61 27.37L61.43 27.56L61 27.38C61 27.38 61.43 26.33 60.72 25.56C59.94 24.72 59.07 24.7 59.03 24.7V23.76C59.09 23.76 60.34 23.77 61.41 24.93C62.54 26.15 61.9 27.69 61.87 27.76L61.86 27.74Z" fill="#50A822"/>
<path d="M50.1 26.2L49.92 25.28C49.92 25.28 50.8 25.09 50.9 24.49C50.99 23.93 50.52 22.88 50.2 22.35L51 21.87C51.1 22.04 52 23.57 51.82 24.65C51.61 25.89 50.16 26.19 50.1 26.2Z" fill="#50A822"/>
<path d="M39.6 20.27L39.09 19.48C39.7 19.08 40.56 18.29 40.56 17.76C40.56 17.01 40.14 15.89 39.98 15.53L40.84 15.15C40.87 15.21 41.5 16.66 41.5 17.76C41.5 18.99 39.8 20.14 39.61 20.26L39.6 20.27Z" fill="#50A822"/>
<path d="M28.75 14.82C28.67 14.82 28.61 14.82 28.55 14.79L28.8 13.89C28.8 13.89 28.75 13.89 28.74 13.89C28.74 13.89 29.04 13.66 28.89 12.24C28.64 9.98001 27.11 8.07 27.1 8.05L27.83 7.46001C27.9 7.55001 29.54 9.61 29.82 12.13C29.96 13.4 29.82 14.2 29.36 14.59C29.16 14.76 28.94 14.82 28.76 14.82H28.75Z" fill="#50A822"/>
<path d="M18.13 8.78L17.92 7.87L18.03 8.33L17.91 7.88C17.91 7.88 17.99 7.84999 18.03 7.75999C18.07 7.66999 18.14 7.41001 17.9 6.82001C17.37 5.49001 15.68 4.29 15.66 4.28L16.2 3.50999C16.28 3.55999 18.14 4.88 18.78 6.47C19.06 7.18 19.09 7.77001 18.86 8.21001C18.68 8.56001 18.36 8.73999 18.15 8.78999L18.13 8.78Z" fill="#50A822"/>
<path d="M15.29 17.89C15.29 17.89 14.93 18.9 15.17 19.05C15.41 19.2 16.07 18.21 16.07 18.21L15.29 17.9V17.89Z" fill="#0A131F"/>
<path d="M26.33 23.91C26.33 23.91 26.28 24.98 26.56 25.05C26.84 25.12 27.17 23.98 27.17 23.98L26.33 23.91Z" fill="#0A131F"/>
<path d="M35.4 28.48C35.4 28.48 34.78 29.36 34.98 29.56C35.18 29.76 36.07 28.98 36.07 28.98L35.4 28.47V28.48Z" fill="#0A131F"/>
<path d="M47.05 31.46C47.05 31.46 46.43 32.34 46.63 32.54C46.83 32.74 47.72 31.96 47.72 31.96L47.05 31.45V31.46Z" fill="#0A131F"/>
<path d="M60.99 33.97C60.99 33.97 61.29 35 61.57 34.98C61.85 34.96 61.81 33.77 61.81 33.77L61 33.97H60.99Z" fill="#0A131F"/>
<path d="M33.67 18.85C33.67 21.92 31.18 24.4 28.12 24.4C25.06 24.4 22.57 21.91 22.57 18.85C22.57 15.79 25.06 13.3 28.12 13.3C31.18 13.3 33.67 15.79 33.67 18.85Z" fill="#B80000"/>
<path d="M28.11 13.29C25.04 13.29 22.56 15.78 22.56 18.84C22.56 20.03 22.94 21.13 23.57 22.03C24.47 22.67 25.57 23.04 26.76 23.04C29.83 23.04 32.31 20.55 32.31 17.49C32.31 16.3 31.93 15.2 31.3 14.3C30.4 13.66 29.3 13.29 28.11 13.29Z" fill="#E00000"/>
<path d="M28.8 17.65C28.8 18.5 28.11 19.18 27.27 19.18C26.43 19.18 25.74 18.49 25.74 17.65C25.74 16.81 26.43 16.12 27.27 16.12C28.11 16.12 28.8 16.81 28.8 17.65Z" fill="#FF7878"/>
<path d="M44.22 24.53C44.22 27.6 41.73 30.08 38.67 30.08C35.61 30.08 33.12 27.59 33.12 24.53C33.12 21.47 35.61 18.98 38.67 18.98C41.73 18.98 44.22 21.47 44.22 24.53Z" fill="#B80000"/>
<path d="M38.67 18.97C35.6 18.97 33.12 21.46 33.12 24.52C33.12 25.71 33.5 26.81 34.13 27.71C35.03 28.35 36.13 28.72 37.32 28.72C40.39 28.72 42.87 26.23 42.87 23.17C42.87 21.98 42.49 20.88 41.86 19.98C40.96 19.34 39.86 18.97 38.67 18.97Z" fill="#E00000"/>
<path d="M39.36 23.34C39.36 24.19 38.67 24.87 37.83 24.87C36.99 24.87 36.3 24.18 36.3 23.34C36.3 22.5 36.99 21.81 37.83 21.81C38.67 21.81 39.36 22.5 39.36 23.34Z" fill="#FF7878"/>
<path d="M53.35 27.95C53.89 30.04 52.63 32.18 50.53 32.71C48.44 33.25 46.3 31.98 45.77 29.89C45.23 27.8 46.49 25.66 48.59 25.13C50.68 24.59 52.82 25.86 53.35 27.95Z" fill="#B80000"/>
<path d="M48.59 25.13C46.5 25.67 45.23 27.8 45.77 29.89C45.98 30.7 46.43 31.39 47.02 31.89C47.75 32.17 48.56 32.23 49.38 32.02C51.47 31.48 52.74 29.35 52.2 27.26C51.99 26.45 51.54 25.76 50.95 25.26C50.22 24.98 49.41 24.92 48.59 25.13Z" fill="#E00000"/>
<path d="M49.82 27.99C49.97 28.57 49.62 29.16 49.04 29.31C48.46 29.46 47.87 29.11 47.72 28.53C47.57 27.95 47.92 27.36 48.5 27.21C49.08 27.06 49.67 27.41 49.82 27.99Z" fill="#FF7878"/>
<path d="M64.52 28.29C65.73 29.87 65.44 32.13 63.86 33.34C62.28 34.55 60.02 34.26 58.81 32.68C57.6 31.1 57.89 28.84 59.47 27.63C61.05 26.42 63.31 26.71 64.52 28.29Z" fill="#B80000"/>
<path d="M59.47 27.62C57.89 28.83 57.6 31.09 58.81 32.67C59.28 33.28 59.91 33.7 60.59 33.91C61.31 33.88 62.02 33.64 62.63 33.17C64.21 31.96 64.5 29.7 63.29 28.12C62.82 27.51 62.19 27.09 61.51 26.88C60.79 26.91 60.08 27.15 59.47 27.62Z" fill="#E00000"/>
<path d="M61.55 29.6C61.88 30.04 61.8 30.66 61.37 31C60.93 31.33 60.31 31.25 59.98 30.82C59.65 30.38 59.73 29.76 60.16 29.43C60.6 29.1 61.22 29.18 61.56 29.61L61.55 29.6Z" fill="#FF7878"/>
<path d="M23.83 13.46C23.83 16.53 21.34 19.01 18.28 19.01C15.22 19.01 12.73 16.52 12.73 13.46C12.73 10.4 15.22 7.91 18.28 7.91C21.34 7.91 23.83 10.4 23.83 13.46Z" fill="#B80000"/>
<path d="M18.27 7.89999C15.2 7.89999 12.72 10.39 12.72 13.45C12.72 14.64 13.1 15.74 13.73 16.64C14.63 17.28 15.73 17.65 16.92 17.65C19.99 17.65 22.47 15.16 22.47 12.1C22.47 10.91 22.09 9.81 21.46 8.91C20.56 8.27 19.46 7.89999 18.27 7.89999Z" fill="#E00000"/>
<path d="M17.43 13.8C18.275 13.8 18.96 13.115 18.96 12.27C18.96 11.425 18.275 10.74 17.43 10.74C16.585 10.74 15.9 11.425 15.9 12.27C15.9 13.115 16.585 13.8 17.43 13.8Z" fill="#FF7878"/>
</svg>
