<svg width="82" height="55" viewBox="0 0 82 55" fill="none" xmlns="http://www.w3.org/2000/svg">
<path d="M66.07 19.73C66.07 19.73 67.53 18.21 70.44 18.54C73.35 18.87 73.02 20.86 74.87 21.98C76.72 23.1 77.91 22.05 77.91 22.05C77.91 22.05 76.79 24.76 73.61 23.17C71.49 22.11 71.16 20.66 68.98 21.32C66.8 21.98 66.53 22.44 66.53 22.44L66.07 19.73Z" fill="#9B842C"/>
<path d="M33.84 46.5C52.2587 46.5 67.19 36.122 67.19 23.32C67.19 10.518 52.2587 0.139999 33.84 0.139999C15.4213 0.139999 0.490005 10.518 0.490005 23.32C0.490005 36.122 15.4213 46.5 33.84 46.5Z" fill="#E6A820"/>
<path d="M0.490005 23.32C0.490005 26.52 1.27 29.58 2.77 32.35C8.45 36.17 16.46 38.5 26.36 38.5C47.24 38.5 59.71 28.12 59.71 15.32C59.71 12.12 58.93 9.05999 57.43 6.28999C51.75 2.46999 43.74 0.139999 33.84 0.139999C12.96 0.139999 0.490005 10.52 0.490005 23.32Z" fill="#FFC138"/>
<path d="M20.18 23.36C25.3107 23.36 29.47 20.3424 29.47 16.62C29.47 12.8976 25.3107 9.88 20.18 9.88C15.0493 9.88 10.89 12.8976 10.89 16.62C10.89 20.3424 15.0493 23.36 20.18 23.36Z" fill="#FFD370"/>
<path d="M70.74 31.87C65.06 35.66 57.08 37.98 47.21 37.98C37.34 37.98 29.36 35.66 23.68 31.87H14.38C14.41 44.65 26.86 55.01 47.72 55.01C68.58 55.01 81.04 44.65 81.06 31.87H70.73H70.74Z" fill="#FFC138"/>
<path d="M70.74 31.87C65.06 35.66 57.08 37.98 47.21 37.98C37.34 37.98 29.36 35.66 23.68 31.87H15.54C15.57 44.65 26.86 53.85 47.72 53.85C68.58 53.85 79.88 44.65 79.9 31.87H70.73H70.74Z" fill="#FFEFC4"/>
<path d="M23.65 31.84C23.94 31.94 23.94 34.84 24.62 34.45C25.3 34.06 24.91 33.29 25.68 33.77C26.45 34.25 25.78 34.25 26.55 34.74C27.32 35.23 27.81 34.74 28.29 35.03C28.77 35.32 28.97 35.42 28.87 36.09C28.77 36.77 29.93 37.15 29.93 37.15C29.93 37.15 30.32 36.96 30.8 37.15C31.28 37.34 33.12 37.73 32.73 37.92C32.34 38.11 33.12 38.6 33.12 38.6C33.12 38.6 34.47 38.21 34.76 37.92C35.05 37.63 34.76 38.02 35.24 38.6C35.72 39.18 36.3 38.31 36.3 38.31C36.3 38.31 36.4 39.28 36.88 39.28C37.36 39.28 37.75 38.7 37.75 38.7L39.3 38.99L39.59 39.86L40.46 39.18C40.46 39.18 42.3 39.18 42.3 39.57C42.3 39.96 42.69 40.15 44.14 40.44C45.59 40.73 45.01 39.96 45.4 39.96C45.79 39.96 47.11 39.19 47.71 39.62C48.3 40.05 49.27 40.73 49.27 40.44C49.27 40.15 50.14 39.47 50.53 39.47C50.92 39.47 52.17 39.57 52.08 39.86C51.98 40.15 51.69 40.44 52.66 40.44C53.63 40.44 52.95 40.15 53.24 39.67C53.53 39.19 54.88 38.99 55.17 38.99C55.46 38.99 56.72 38.51 56.91 38.8C57.1 39.09 57.68 40.06 57.97 39.86C58.26 39.67 57.97 38.89 58.84 38.8C59.71 38.7 60.19 38.7 60.19 38.7L60.96 38.31H62.22C62.51 38.31 63.48 38.21 63.48 37.92C63.48 37.63 63.09 37.34 63.87 37.24C64.64 37.14 65.22 37.82 65.42 36.85C65.62 35.88 65.42 35.5 66.1 35.3C66.78 35.11 67.45 35.01 67.74 35.01C68.03 35.01 69.48 34.82 69.48 34.82C69.48 34.82 69.09 33.95 69.87 33.56C70.64 33.17 71.64 33.62 71.71 32.98C71.77 32.34 70.55 31.88 70.55 31.88C70.55 31.88 62.68 38.1 45.53 37.91C33.34 37.77 23.63 31.82 23.63 31.82L23.65 31.84Z" fill="#FFDB52"/>
</svg>
