<svg width="63" height="54" viewBox="0 0 63 54" fill="none" xmlns="http://www.w3.org/2000/svg">
<path d="M50.4 21.73C50.4 21.73 52.23 19.49 53.05 20.51C53.86 21.53 54.68 23.16 53.86 23.36C53.05 23.56 50.6 23.56 50.6 23.56L50.4 21.73Z" fill="#8D4706"/>
<path d="M49.35 36.2C50.69 33.29 51.42 29.92 51.42 26.21C51.42 13.39 39.41 7.69001 26.79 8.09001C19.62 8.32001 12.92 11.99 8.12 16.7C6.78 19.19 6.03 21.67 6.03 23.86C6.03 32.68 17.34 36.65 31.27 39.84C38.4 41.47 44.77 39.94 49.35 36.19V36.2Z" fill="#EC5821"/>
<path d="M51.42 26.21C51.42 40.66 40.22 50.03 25.98 46.77C12.05 43.59 0.740005 39.62 0.740005 30.79C0.740005 21.96 12.86 8.53999 26.79 8.08999C39.41 7.67999 51.42 13.38 51.42 26.21Z" fill="#EC5821"/>
<path d="M0.75 30.24C5.32 33.71 12.86 35.96 21.39 37.91C35.64 41.17 46.83 31.8 46.83 17.35C46.83 16.32 46.75 15.33 46.6 14.39C41.94 9.87 34.47 7.83998 26.78 8.08998C13.13 8.52998 1.22001 21.42 0.740005 30.24H0.75Z" fill="#F08621"/>
<path d="M34.14 11.86C26.81 10.26 24.39 0.700004 24.19 0.540004C24.3 0.790004 33.8 -0.47999 41.85 3.64001C50.07 8.09001 52.82 20.77 52.8 20.53C52.84 20.71 50.59 17.78 46.81 15.9C43.12 13.81 37.9 12.79 34.13 11.86H34.14Z" fill="#50A822"/>
<path d="M52.8 20.53C48.4 12.87 42.85 9.64999 38.04 7.39999C33.1 5.15999 28.9 3.88001 24.19 0.540009C24.38 0.700009 26.81 10.25 34.14 11.86C37.9 12.79 43.13 13.82 46.82 15.9C50.6 17.77 52.85 20.71 52.81 20.53H52.8Z" fill="#578D38"/>
<path d="M25.54 17.26C26.76 19.81 24.36 23.5 20.18 25.51C16 27.51 11.62 27.07 10.39 24.52C9.17 21.97 11.57 18.28 15.75 16.27C19.93 14.27 24.31 14.71 25.54 17.26Z" fill="#F0A862"/>
<path d="M12.96 37.91C13.21 46.37 24.23 53.18 37.8 53.18C51.37 53.18 62.39 46.37 62.64 37.91H12.97H12.96Z" fill="#668341"/>
<path d="M35.04 53.08C47.32 52.23 56.9 45.79 57.13 37.91H12.96C13.19 45.79 22.77 52.23 35.05 53.08H35.04Z" fill="#EC5821"/>
<path d="M12.96 37.91C13.21 45.35 24.23 51.34 37.8 51.34C51.37 51.34 62.39 45.35 62.64 37.91H12.97H12.96Z" fill="#FFC20E"/>
<path d="M33.11 51.1C44.44 49.91 53.05 44.48 53.26 37.91H12.95C13.17 44.47 21.77 49.91 33.1 51.1H33.11Z" fill="#FFCE41"/>
</svg>
