<svg width="43" height="65" viewBox="0 0 43 65" fill="none" xmlns="http://www.w3.org/2000/svg">
<path d="M20.22 24.56C20.22 24.56 20.19 24.56 20.17 24.56C19.58 24.53 19.13 24.04 19.15 23.45C19.16 23.2 19.43 17.31 20.41 11.93C21.76 4.48001 26.13 1.02001 26.32 0.880006C26.79 0.520006 27.46 0.600006 27.82 1.07001C28.18 1.53001 28.1 2.20001 27.63 2.56001C27.58 2.60001 23.46 6.97001 22.71 13.63C21.84 21.35 21.29 23.49 21.29 23.55C21.26 24.12 20.79 24.57 20.22 24.57V24.56Z" fill="#50A822"/>
<path d="M28.44 10.41C28.17 11.67 27.73 12.95 27.09 14.2C24.29 19.72 18.91 22.61 15.08 20.66C14.22 20.22 13.22 27 16.18 28.5C20.01 30.45 25.39 27.55 28.19 22.04C30.37 17.76 30.34 13.16 28.43 10.41H28.44Z" fill="#50A822"/>
<path d="M34.84 10.24C34.57 11.5 34.13 12.78 33.49 14.03C30.69 19.55 25.31 22.44 21.48 20.49C20.62 20.05 19.62 26.83 22.58 28.33C26.41 30.28 31.79 27.38 34.59 21.87C36.77 17.59 36.74 12.99 34.83 10.24H34.84Z" fill="#50A822"/>
<path d="M14.19 10.41C14.46 11.67 14.9 12.95 15.54 14.2C18.34 19.72 23.72 22.61 27.55 20.66C28.41 20.22 29.41 27 26.45 28.5C22.62 30.45 17.24 27.55 14.44 22.04C12.26 17.76 12.29 13.16 14.2 10.41H14.19Z" fill="#50A822"/>
<path d="M7.79 10.24C8.06 11.5 8.5 12.78 9.14 14.03C11.94 19.55 17.32 22.44 21.15 20.49C22.01 20.05 23.01 26.83 20.05 28.33C16.22 30.28 10.84 27.38 8.04 21.87C5.86 17.59 5.89 12.99 7.8 10.24H7.79Z" fill="#50A822"/>
<path d="M20.23 63.05C17.1 64.26 13.57 62.7 12.36 59.57C11.15 56.44 12.71 52.91 15.84 51.7C18.97 50.49 22.5 52.05 23.71 55.18C24.92 58.31 23.36 61.84 20.23 63.05Z" fill="#9E0007"/>
<path d="M23.71 55.18C22.5 52.05 18.98 50.49 15.84 51.7C14.31 52.29 13.16 53.43 12.52 54.81C12.41 55.76 12.52 56.75 12.89 57.7C14.1 60.83 17.62 62.39 20.76 61.18C22.29 60.59 23.44 59.45 24.08 58.07C24.19 57.12 24.08 56.13 23.71 55.18Z" fill="#C52228"/>
<path d="M35.02 35.27C38.3779 35.27 41.1 32.5479 41.1 29.19C41.1 25.8321 38.3779 23.11 35.02 23.11C31.6621 23.11 28.94 25.8321 28.94 29.19C28.94 32.5479 31.6621 35.27 35.02 35.27Z" fill="#9E0007"/>
<path d="M35.02 23.11C31.66 23.11 28.94 25.83 28.94 29.19C28.94 30.83 29.59 32.31 30.65 33.41C31.5 33.86 32.46 34.11 33.48 34.11C36.84 34.11 39.56 31.39 39.56 28.03C39.56 26.39 38.91 24.91 37.85 23.81C37 23.36 36.04 23.11 35.02 23.11Z" fill="#C52228"/>
<path d="M27.64 32.16C30.9979 32.16 33.72 29.4379 33.72 26.08C33.72 22.7221 30.9979 20 27.64 20C24.2821 20 21.56 22.7221 21.56 26.08C21.56 29.4379 24.2821 32.16 27.64 32.16Z" fill="#C52228"/>
<path d="M37.37 53.37C37.37 56.73 34.65 59.45 31.29 59.45C27.93 59.45 25.21 56.73 25.21 53.37C25.21 50.01 27.93 47.29 31.29 47.29C34.65 47.29 37.37 50.01 37.37 53.37Z" fill="#9E0007"/>
<path d="M31.29 47.29C27.93 47.29 25.21 50.01 25.21 53.37C25.21 55.01 25.86 56.49 26.92 57.59C27.77 58.04 28.73 58.29 29.75 58.29C33.11 58.29 35.83 55.57 35.83 52.21C35.83 50.57 35.18 49.09 34.12 47.99C33.27 47.54 32.31 47.29 31.29 47.29Z" fill="#C52228"/>
<path d="M26.88 46.22C23.52 46.22 20.8 48.94 20.8 52.3C20.8 53.94 21.45 55.42 22.51 56.52C23.36 56.97 24.32 57.22 25.34 57.22C28.7 57.22 31.42 54.5 31.42 51.14C31.42 49.5 30.77 48.02 29.71 46.92C28.86 46.47 27.9 46.22 26.88 46.22Z" fill="#C52228"/>
<path d="M17.15 31.62C20.5079 31.62 23.23 28.8979 23.23 25.54C23.23 22.1821 20.5079 19.46 17.15 19.46C13.7921 19.46 11.07 22.1821 11.07 25.54C11.07 28.8979 13.7921 31.62 17.15 31.62Z" fill="#C52228"/>
<path d="M9.24001 35.18C12.5979 35.18 15.32 32.4579 15.32 29.1C15.32 25.7421 12.5979 23.02 9.24001 23.02C5.88211 23.02 3.16 25.7421 3.16 29.1C3.16 32.4579 5.88211 35.18 9.24001 35.18Z" fill="#C52228"/>
<path d="M6.83 41.85C10.1879 41.85 12.91 39.1279 12.91 35.77C12.91 32.4121 10.1879 29.69 6.83 29.69C3.47211 29.69 0.75 32.4121 0.75 35.77C0.75 39.1279 3.47211 41.85 6.83 41.85Z" fill="#C52228"/>
<path d="M8.61 50.12C11.9679 50.12 14.69 47.3979 14.69 44.04C14.69 40.6821 11.9679 37.96 8.61 37.96C5.25211 37.96 2.53 40.6821 2.53 44.04C2.53 47.3979 5.25211 50.12 8.61 50.12Z" fill="#C52228"/>
<path d="M30.42 61.32C28.83 64.28 25.14 65.39 22.18 63.8C19.22 62.21 18.11 58.52 19.7 55.56C21.29 52.6 24.98 51.49 27.94 53.08C30.9 54.67 32.01 58.36 30.42 61.32Z" fill="#9E0007"/>
<path d="M27.94 53.08C24.98 51.49 21.29 52.6 19.7 55.56C18.92 57 18.79 58.62 19.21 60.08C19.74 60.87 20.47 61.55 21.37 62.04C24.33 63.63 28.02 62.52 29.61 59.56C30.39 58.12 30.52 56.5 30.1 55.04C29.57 54.25 28.84 53.57 27.94 53.08Z" fill="#C52228"/>
<path d="M40.67 43.45C42.03 46.52 40.64 50.12 37.56 51.47C34.49 52.83 30.89 51.44 29.54 48.36C28.18 45.29 29.57 41.69 32.65 40.34C35.73 38.99 39.32 40.37 40.67 43.45Z" fill="#9E0007"/>
<path d="M32.65 40.34C29.58 41.7 28.19 45.29 29.54 48.36C30.2 49.86 31.4 50.95 32.8 51.53C33.75 51.6 34.74 51.44 35.67 51.03C38.74 49.67 40.13 46.08 38.78 43.01C38.12 41.51 36.92 40.42 35.52 39.84C34.57 39.77 33.58 39.93 32.65 40.34Z" fill="#C52228"/>
<path d="M35.38 46.16C35.38 47.19 34.54 48.03 33.51 48.03C32.48 48.03 31.64 47.19 31.64 46.16C31.64 45.13 32.48 44.29 33.51 44.29C34.54 44.29 35.38 45.13 35.38 46.16Z" fill="#DB696C"/>
<path d="M31.29 51.05C31.29 52.08 30.45 52.92 29.42 52.92C28.39 52.92 27.55 52.08 27.55 51.05C27.55 50.02 28.39 49.18 29.42 49.18C30.45 49.18 31.29 50.02 31.29 51.05Z" fill="#DB696C"/>
<path d="M42.61 38.17C42.61 41.53 39.89 44.25 36.53 44.25C33.17 44.25 30.45 41.53 30.45 38.17C30.45 34.81 33.17 32.09 36.53 32.09C39.89 32.09 42.61 34.81 42.61 38.17Z" fill="#9E0007"/>
<path d="M36.53 32.09C33.17 32.09 30.45 34.81 30.45 38.17C30.45 39.81 31.1 41.29 32.16 42.39C33.01 42.84 33.97 43.09 34.99 43.09C38.35 43.09 41.07 40.37 41.07 37.01C41.07 35.37 40.42 33.89 39.36 32.79C38.51 32.34 37.55 32.09 36.53 32.09Z" fill="#C52228"/>
<path d="M33.22 48.58C31.54 51.49 27.83 52.5 24.91 50.82C21.99 49.14 20.99 45.42 22.67 42.51C24.35 39.6 28.06 38.59 30.98 40.27C33.89 41.95 34.9 45.67 33.22 48.58Z" fill="#9E0007"/>
<path d="M30.98 40.28C28.07 38.6 24.35 39.61 22.67 42.52C21.85 43.94 21.68 45.55 22.05 47.03C22.56 47.84 23.27 48.54 24.15 49.05C27.06 50.73 30.78 49.72 32.46 46.81C33.28 45.39 33.45 43.78 33.08 42.3C32.57 41.49 31.86 40.79 30.98 40.28Z" fill="#C52228"/>
<path d="M36 35.67C36 36.7 35.16 37.54 34.13 37.54C33.1 37.54 32.26 36.7 32.26 35.67C32.26 34.64 33.1 33.8 34.13 33.8C35.16 33.8 36 34.64 36 35.67Z" fill="#DB696C"/>
<path d="M25.25 44.92C26.2828 44.92 27.12 44.0828 27.12 43.05C27.12 42.0172 26.2828 41.18 25.25 41.18C24.2172 41.18 23.38 42.0172 23.38 43.05C23.38 44.0828 24.2172 44.92 25.25 44.92Z" fill="#DB696C"/>
<path d="M27.35 42.03C30.7079 42.03 33.43 39.3079 33.43 35.95C33.43 32.5921 30.7079 29.87 27.35 29.87C23.9921 29.87 21.27 32.5921 21.27 35.95C21.27 39.3079 23.9921 42.03 27.35 42.03Z" fill="#9E0007"/>
<path d="M27.35 29.86C23.99 29.86 21.27 32.58 21.27 35.94C21.27 37.58 21.92 39.06 22.98 40.16C23.83 40.61 24.79 40.86 25.81 40.86C29.17 40.86 31.89 38.14 31.89 34.78C31.89 33.14 31.24 31.66 30.18 30.56C29.33 30.11 28.37 29.86 27.35 29.86Z" fill="#C52228"/>
<path d="M12.88 41.41C16.2379 41.41 18.96 38.6879 18.96 35.33C18.96 31.9721 16.2379 29.25 12.88 29.25C9.52211 29.25 6.8 31.9721 6.8 35.33C6.8 38.6879 9.52211 41.41 12.88 41.41Z" fill="#C52228"/>
<path d="M25.51 56.74C25.51 57.77 24.67 58.61 23.64 58.61C22.61 58.61 21.77 57.77 21.77 56.74C21.77 55.71 22.61 54.87 23.64 54.87C24.67 54.87 25.51 55.71 25.51 56.74Z" fill="#DB696C"/>
<path d="M12.26 57.32C15.6179 57.32 18.34 54.5979 18.34 51.24C18.34 47.8821 15.6179 45.16 12.26 45.16C8.9021 45.16 6.17999 47.8821 6.17999 51.24C6.17999 54.5979 8.9021 57.32 12.26 57.32Z" fill="#C52228"/>
<path d="M17.69 55.76C17.69 56.79 16.85 57.63 15.82 57.63C14.79 57.63 13.95 56.79 13.95 55.76C13.95 54.73 14.79 53.89 15.82 53.89C16.85 53.89 17.69 54.73 17.69 55.76Z" fill="#DB696C"/>
<path d="M23.74 55.15C21.24 57.39 17.39 57.18 15.15 54.67C12.91 52.17 13.12 48.32 15.63 46.08C18.13 43.84 21.98 44.05 24.22 46.56C26.46 49.07 26.25 52.91 23.74 55.15Z" fill="#9E0007"/>
<path d="M24.22 46.56C21.98 44.06 18.13 43.84 15.63 46.08C14.41 47.17 13.74 48.65 13.62 50.16C13.85 51.09 14.3 51.97 14.98 52.73C17.22 55.23 21.07 55.45 23.57 53.21C24.79 52.12 25.46 50.64 25.58 49.13C25.35 48.2 24.9 47.32 24.22 46.56Z" fill="#C52228"/>
<path d="M12.62 34.51C12.62 35.54 11.78 36.38 10.75 36.38C9.72 36.38 8.88 35.54 8.88 34.51C8.88 33.48 9.72 32.64 10.75 32.64C11.78 32.64 12.62 33.48 12.62 34.51Z" fill="#DB696C"/>
<path d="M19.64 49.54C19.64 50.57 18.8 51.41 17.77 51.41C16.74 51.41 15.9 50.57 15.9 49.54C15.9 48.51 16.74 47.67 17.77 47.67C18.8 47.67 19.64 48.51 19.64 49.54Z" fill="#DB696C"/>
<path d="M28.09 33.98C28.09 35.01 27.25 35.85 26.22 35.85C25.19 35.85 24.35 35.01 24.35 33.98C24.35 32.95 25.19 32.11 26.22 32.11C27.25 32.11 28.09 32.95 28.09 33.98Z" fill="#DB696C"/>
<path d="M34.94 27.49C34.94 28.52 34.1 29.36 33.07 29.36C32.04 29.36 31.2 28.52 31.2 27.49C31.2 26.46 32.04 25.62 33.07 25.62C34.1 25.62 34.94 26.46 34.94 27.49Z" fill="#DB696C"/>
<path d="M4.8 37.1C5.83278 37.1 6.67 36.2628 6.67 35.23C6.67 34.1972 5.83278 33.36 4.8 33.36C3.76723 33.36 2.92999 34.1972 2.92999 35.23C2.92999 36.2628 3.76723 37.1 4.8 37.1Z" fill="#DB696C"/>
<path d="M7.44 29.49C8.47277 29.49 9.31 28.6528 9.31 27.62C9.31 26.5872 8.47277 25.75 7.44 25.75C6.40723 25.75 5.57001 26.5872 5.57001 27.62C5.57001 28.6528 6.40723 29.49 7.44 29.49Z" fill="#DB696C"/>
<path d="M17.11 23.47C17.11 24.5 16.27 25.34 15.24 25.34C14.21 25.34 13.37 24.5 13.37 23.47C13.37 22.44 14.21 21.6 15.24 21.6C16.27 21.6 17.11 22.44 17.11 23.47Z" fill="#DB696C"/>
<path d="M7.84 44.83C8.87277 44.83 9.71001 43.9928 9.71001 42.96C9.71001 41.9272 8.87277 41.09 7.84 41.09C6.80722 41.09 5.97 41.9272 5.97 42.96C5.97 43.9928 6.80722 44.83 7.84 44.83Z" fill="#DB696C"/>
<path d="M11.91 50.76C11.91 51.79 11.07 52.63 10.04 52.63C9.00999 52.63 8.17 51.79 8.17 50.76C8.17 49.73 9.00999 48.89 10.04 48.89C11.07 48.89 11.91 49.73 11.91 50.76Z" fill="#DB696C"/>
<path d="M27.74 23.58C27.74 24.61 26.9 25.45 25.87 25.45C24.84 25.45 24 24.61 24 23.58C24 22.55 24.84 21.71 25.87 21.71C26.9 21.71 27.74 22.55 27.74 23.58Z" fill="#DB696C"/>
<path d="M22.32 46.38C19.75 48.55 15.91 48.22 13.75 45.65C11.58 43.08 11.91 39.24 14.48 37.08C17.05 34.91 20.89 35.24 23.05 37.81C25.22 40.38 24.89 44.22 22.32 46.38Z" fill="#9E0007"/>
<path d="M23.04 37.8C20.87 35.23 17.03 34.91 14.47 37.07C13.22 38.13 12.5 39.58 12.35 41.09C12.55 42.02 12.98 42.92 13.64 43.7C15.81 46.27 19.65 46.59 22.21 44.43C23.46 43.37 24.18 41.92 24.33 40.41C24.12 39.48 23.7 38.58 23.04 37.8Z" fill="#C52228"/>
<path d="M16.53 41.81C17.5628 41.81 18.4 40.9728 18.4 39.94C18.4 38.9072 17.5628 38.07 16.53 38.07C15.4972 38.07 14.66 38.9072 14.66 39.94C14.66 40.9728 15.4972 41.81 16.53 41.81Z" fill="#DB696C"/>
<path d="M19.1 37.85C22.4579 37.85 25.18 35.1279 25.18 31.77C25.18 28.4121 22.4579 25.69 19.1 25.69C15.7421 25.69 13.02 28.4121 13.02 31.77C13.02 35.1279 15.7421 37.85 19.1 37.85Z" fill="#9E0007"/>
<path d="M19.1 25.68C15.74 25.68 13.02 28.4 13.02 31.76C13.02 33.4 13.67 34.88 14.73 35.98C15.58 36.43 16.54 36.68 17.56 36.68C20.92 36.68 23.64 33.96 23.64 30.6C23.64 28.96 22.99 27.48 21.93 26.38C21.08 25.93 20.12 25.68 19.1 25.68Z" fill="#C52228"/>
<path d="M19.2 30.78C19.2 31.81 18.36 32.65 17.33 32.65C16.3 32.65 15.46 31.81 15.46 30.78C15.46 29.75 16.3 28.91 17.33 28.91C18.36 28.91 19.2 29.75 19.2 30.78Z" fill="#DB696C"/>
</svg>
