<svg width="49" height="74" viewBox="0 0 49 74" fill="none" xmlns="http://www.w3.org/2000/svg">
<path d="M48.51 41.86C48.51 63.99 34.75 78.59 24.25 71.22C14.89 78.45 -0.00999451 64.84 -0.00999451 41.86C-0.00999451 28.46 11.48 22.71 23.39 26.11C37.01 22.71 48.5 28.46 48.5 41.86H48.51Z" fill="#D10008"/>
<path d="M22.41 26.11C22.41 26.05 22.02 19.38 19.01 15.76C15.55 11.61 9.71001 12.04 9.67001 12.05C8.51001 12.21 7.43001 11.41 7.26001 10.24C7.09001 9.07999 7.90001 7.99999 9.07001 7.82999C9.36001 7.78999 16.26 6.87999 21.22 12.83C25.37 17.81 24.71 25.95 24.68 26.29C24.58 27.4 22.32 27.28 22.42 26.11H22.41Z" fill="#8D4706"/>
<path d="M40.1 16.03C34.73 22.11 24.69 22.01 24.69 22.01C24.69 22.01 23.34 12.05 28.71 5.97999C34.08 -0.100005 44.12 -5.38781e-06 44.12 -5.38781e-06C44.12 -5.38781e-06 45.47 9.95999 40.1 16.03Z" fill="#50A822"/>
<path d="M44.12 0L24.69 22.01C24.69 22.01 34.74 22.11 40.1 16.03C45.47 9.96 44.12 0 44.12 0Z" fill="#578D38"/>
<path d="M40.71 44.41C40.71 36.04 36.01 28.79 29.16 25.22C27.31 25.33 25.38 25.63 23.41 26.12C11.49 22.72 0.0100098 28.47 0.0100098 41.87C0.0100098 47.94 1.05001 53.24 2.76001 57.62C6.64001 62.7 12.7 65.98 19.52 65.98C31.23 65.98 40.73 56.33 40.73 44.42L40.71 44.41Z" fill="#ED1C24"/>
<path d="M19.91 43.33C18.34 48.08 14.03 50.93 10.29 49.69C6.55001 48.45 4.79001 43.6 6.36001 38.85C7.93001 34.1 12.24 31.25 15.98 32.49C19.72 33.73 21.48 38.58 19.91 43.33Z" fill="#FF787F"/>
</svg>
