<svg width="77" height="69" viewBox="0 0 77 69" fill="none" xmlns="http://www.w3.org/2000/svg">
<path d="M62.03 2.58L67.07 14.43C67.07 14.43 70.03 14.33 72.21 17.2C74.38 20.06 80.74 39.52 70.83 54.73C57.89 74.58 47.33 67.07 47.33 67.07L45.06 63.71C45.06 63.71 47.53 59.17 51.08 55.71C54.64 52.25 62.14 47.41 61.05 33.29C59.96 19.17 60.85 20.55 60.56 18.58C60.15 15.85 62.24 15.12 62.24 15.12L59.08 2.58H62.04H62.03Z" fill="#E8BE17"/>
<path d="M68.55 53.24C78.46 39.13 72.11 21.07 69.93 18.41C67.75 15.75 64.79 15.84 64.79 15.84L61.99 2.54L59.01 2.57L62.22 15.11C62.22 15.11 60.13 15.83 60.54 18.57C60.84 20.55 59.95 19.16 61.03 33.28C62.11 47.4 54.61 52.24 51.06 55.7C47.5 59.16 45.04 63.7 45.04 63.7L46.05 65.19C48.98 66.39 57.97 68.3 68.55 53.23V53.24Z" fill="#FFE342"/>
<path d="M50.58 17.1C44.85 18.29 46.04 29.15 31.72 34.97C14.85 41.83 7.82001 42.57 5.85001 44.65C3.88001 46.72 0.619995 49.09 0.619995 49.09L0.720001 54.42C0.720001 54.42 3.19001 53.83 4.67001 54.91C6.15001 56 7.04001 57.58 13.95 57.68C20.86 57.78 43.16 55.7 53.45 40.69C62.73 27.16 60.46 19.56 58.88 18.08C57.3 16.6 57 16.99 56.81 16.1C56.61 15.21 56.22 0.690002 56.22 0.690002L52.27 1.38C52.27 1.38 53.36 16.19 50.59 17.08L50.58 17.1Z" fill="#E8BE17"/>
<path d="M66.37 21.49C65.7 19.72 64.77 17.73 62.89 16.76C61.59 12.3 59.01 2.32 59.16 2.09L55.9 1.79L56.45 16.95C54.96 17.73 54.8 19.04 54.32 20.95C53.63 23.72 54.22 29.25 43.56 39.42C30.58 51.8 22.82 52.36 18.67 56.31C16.84 58.06 13.8 60 13.73 62.14C13.63 65.3 13.14 65.7 22.22 67.67C26.84 68.67 38.33 67.36 54.71 54.14C71.1 40.91 67.35 24.12 66.36 21.5L66.37 21.49Z" fill="#E8BE17"/>
<path d="M53.34 49.78C62.64 42.27 64.3 33.19 64.8 27.56C65.14 23.69 65.13 18.15 61.57 16.76C60.88 11.79 59.66 4.12 59.32 2.08L56.08 1.8L56.46 16.95C54.97 17.73 54.81 19.04 54.33 20.95C53.64 23.72 54.23 29.25 43.57 39.42C30.59 51.8 15.11 57.99 13.85 59.37C15.33 62.33 19.01 62.63 22.24 62.93C26.95 63.36 36.97 63.02 53.35 49.8L53.34 49.78Z" fill="#FFE342"/>
<path d="M56.21 0.669998L52.26 1.39C52.26 1.39 52.53 5.66 52.48 7.51C52.43 9.36 52.33 11.62 52.33 11.62C52.12 14.4 51.63 16.75 50.58 17.09C44.85 18.28 46.04 29.14 31.72 34.96C14.85 41.82 11.94 40.85 8.17999 42.76C4.41999 44.67 0.579987 48.92 0.579987 48.92L0.709991 49.97C1.97999 50.55 3.4 50.71 7.03 50.76C13.94 50.86 36.18 46.8 46.63 31.9C50.08 26.97 54.54 22.61 54.04 17.35C57.4 14.49 56.21 0.660004 56.21 0.660004V0.669998Z" fill="#FFE342"/>
<path d="M49.7 39.24C48.81 38.81 52.4 36.47 54.85 31.86C57.38 27.29 57.38 23.01 58.23 23.52C59.03 23.91 60.37 28.91 57.84 33.48C55.39 38.09 50.47 39.7 49.7 39.24Z" fill="#FFEF94"/>
<path d="M38.6 34.02C38.28 33.66 40.91 32.13 43.08 29.67C45.35 27.09 46.9 23.81 47.43 23.94C48.3 24.16 46.9 29.08 44.47 31.64C42.04 34.2 39.14 34.73 38.61 34.01L38.6 34.02Z" fill="#FFEF94"/>
<path d="M0.859985 54.52C1.3239 54.52 1.70001 53.1948 1.70001 51.56C1.70001 49.9252 1.3239 48.6 0.859985 48.6C0.396066 48.6 0.019989 49.9252 0.019989 51.56C0.019989 53.1948 0.396066 54.52 0.859985 54.52Z" fill="#4B3925"/>
<path d="M14.29 64.99C14.8644 64.99 15.33 63.6648 15.33 62.03C15.33 60.3952 14.8644 59.07 14.29 59.07C13.7156 59.07 13.25 60.3952 13.25 62.03C13.25 63.6648 13.7156 64.99 14.29 64.99Z" fill="#4B3925"/>
<path d="M47.37 64.64C47.9 65.7 47.91 66.77 47.4 67.03C46.89 67.29 46.04 66.63 45.51 65.57C44.98 64.51 44.97 63.44 45.48 63.18C45.99 62.92 46.84 63.58 47.37 64.64Z" fill="#4B3925"/>
</svg>
