<svg width="70" height="36" viewBox="0 0 70 36" fill="none" xmlns="http://www.w3.org/2000/svg">
<path d="M6.74 10.56L10.54 13.24C10.54 13.24 6.78 13.71 4.77 19.36C3.32 23.44 3.79001 28.73 3.86001 28.76C3.87001 28.84 9 30.26 13.27 29.57C19.19 28.61 20.33 25 20.33 25L22.72 29.58C22.72 29.58 29.69 26.67 29.37 20.43C29.13 15.7 26.16 12.6 24.72 11.37C23.77 9.73998 21.26 6.24999 16.65 5.15999C10.57 3.71999 6.72001 10.54 6.72001 10.54L6.74 10.56Z" fill="#578D38"/>
<path d="M32.9 9.53C32.9 12.6 30.41 15.08 27.35 15.08C24.29 15.08 21.8 12.59 21.8 9.53C21.8 6.47 24.29 3.98001 27.35 3.98001C30.41 3.98001 32.9 6.47 32.9 9.53Z" fill="#172942"/>
<path d="M43.52 15.22C43.52 18.29 41.03 20.77 37.97 20.77C34.91 20.77 32.42 18.28 32.42 15.22C32.42 12.16 34.91 9.67001 37.97 9.67001C41.03 9.67001 43.52 12.16 43.52 15.22Z" fill="#172942"/>
<path d="M52.18 20.37C52.18 22.92 50.11 24.99 47.56 24.99C45.01 24.99 42.94 22.92 42.94 20.37C42.94 17.82 45.01 15.75 47.56 15.75C50.11 15.75 52.18 17.82 52.18 20.37Z" fill="#172942"/>
<path d="M59.59 24.47C59.59 26.5 57.94 28.15 55.91 28.15C53.88 28.15 52.23 26.5 52.23 24.47C52.23 22.44 53.88 20.79 55.91 20.79C57.94 20.79 59.59 22.44 59.59 24.47Z" fill="#172942"/>
<path d="M59.82 24.97C55.53 24.97 49.1 24.18 43.58 19.19C24.06 1.53999 0.320004 3.25 0.160004 3.26L0.0599976 0.450002C0.779998 0.430002 23.82 1.19 45.14 18.64C57.83 29.03 69.02 21.27 69.12 21.2C69.12 21.2 66.23 24.97 59.82 24.97Z" fill="#50A822"/>
<path d="M61.32 28.03L60.46 27.66L60.89 27.85L60.46 27.67C60.46 27.67 60.89 26.62 60.18 25.85C59.4 25.01 58.53 24.99 58.49 24.99V24.05C58.55 24.05 59.8 24.06 60.87 25.22C62 26.44 61.35 27.98 61.33 28.05L61.32 28.03Z" fill="#50A822"/>
<path d="M49.56 26.48L49.38 25.56C49.38 25.56 50.26 25.37 50.36 24.77C50.45 24.21 49.98 23.16 49.66 22.63L50.46 22.15C50.56 22.32 51.46 23.85 51.28 24.93C51.07 26.17 49.62 26.47 49.56 26.48Z" fill="#50A822"/>
<path d="M39.07 20.56L38.56 19.77C39.17 19.37 40.03 18.58 40.03 18.05C40.03 17.3 39.61 16.18 39.45 15.82L40.31 15.44C40.34 15.5 40.97 16.95 40.97 18.05C40.97 19.28 39.27 20.43 39.08 20.55L39.07 20.56Z" fill="#50A822"/>
<path d="M28.21 15.11C28.13 15.11 28.07 15.11 28.01 15.08L28.26 14.18C28.26 14.18 28.21 14.18 28.2 14.18C28.2 14.18 28.5 13.95 28.34 12.53C28.09 10.27 26.56 8.36 26.55 8.34L27.28 7.75C27.35 7.84 28.99 9.90001 29.27 12.42C29.41 13.69 29.27 14.49 28.81 14.88C28.61 15.05 28.39 15.11 28.21 15.11Z" fill="#50A822"/>
<path d="M17.6 9.07001L17.39 8.16L17.5 8.62L17.38 8.17001C17.38 8.17001 17.46 8.13999 17.5 8.04999C17.54 7.95999 17.61 7.69999 17.37 7.10999C16.84 5.77999 15.15 4.58001 15.13 4.57001L15.67 3.79999C15.75 3.84999 17.61 5.17001 18.25 6.76001C18.53 7.47001 18.56 8.06 18.33 8.5C18.15 8.85 17.83 9.02999 17.62 9.07999L17.6 9.07001Z" fill="#50A822"/>
<path d="M14.76 18.17C14.76 18.17 14.4 19.18 14.64 19.33C14.88 19.48 15.54 18.49 15.54 18.49L14.76 18.17Z" fill="#0A131F"/>
<path d="M25.8 24.2C25.8 24.2 25.75 25.27 26.03 25.34C26.31 25.41 26.64 24.27 26.64 24.27L25.8 24.2Z" fill="#0A131F"/>
<path d="M34.86 28.76C34.86 28.76 34.24 29.64 34.44 29.84C34.64 30.04 35.53 29.26 35.53 29.26L34.86 28.75V28.76Z" fill="#0A131F"/>
<path d="M46.52 31.75C46.52 31.75 45.9 32.63 46.1 32.83C46.3 33.03 47.19 32.25 47.19 32.25L46.52 31.74V31.75Z" fill="#0A131F"/>
<path d="M60.46 34.26C60.46 34.26 60.76 35.29 61.04 35.27C61.32 35.25 61.28 34.06 61.28 34.06L60.47 34.26H60.46Z" fill="#0A131F"/>
<path d="M33.14 19.13C33.14 22.2 30.65 24.68 27.59 24.68C24.53 24.68 22.04 22.19 22.04 19.13C22.04 16.07 24.53 13.58 27.59 13.58C30.65 13.58 33.14 16.07 33.14 19.13Z" fill="#0A131F"/>
<path d="M27.58 13.58C24.51 13.58 22.03 16.07 22.03 19.13C22.03 20.32 22.41 21.42 23.04 22.32C23.94 22.96 25.04 23.33 26.23 23.33C29.3 23.33 31.78 20.84 31.78 17.78C31.78 16.59 31.4 15.49 30.77 14.59C29.87 13.95 28.77 13.58 27.58 13.58Z" fill="#172942"/>
<path d="M28.27 17.94C28.27 18.79 27.58 19.47 26.74 19.47C25.9 19.47 25.21 18.78 25.21 17.94C25.21 17.1 25.9 16.41 26.74 16.41C27.58 16.41 28.27 17.1 28.27 17.94Z" fill="#335C94"/>
<path d="M43.69 24.81C43.69 27.88 41.2 30.36 38.14 30.36C35.08 30.36 32.59 27.87 32.59 24.81C32.59 21.75 35.08 19.26 38.14 19.26C41.2 19.26 43.69 21.75 43.69 24.81Z" fill="#0A131F"/>
<path d="M38.13 19.26C35.06 19.26 32.58 21.75 32.58 24.81C32.58 26 32.96 27.1 33.59 28C34.49 28.64 35.59 29.01 36.78 29.01C39.85 29.01 42.33 26.52 42.33 23.46C42.33 22.27 41.95 21.17 41.32 20.27C40.42 19.63 39.32 19.26 38.13 19.26Z" fill="#172942"/>
<path d="M38.82 23.62C38.82 24.47 38.13 25.15 37.29 25.15C36.45 25.15 35.76 24.46 35.76 23.62C35.76 22.78 36.45 22.09 37.29 22.09C38.13 22.09 38.82 22.78 38.82 23.62Z" fill="#335C94"/>
<path d="M52.82 28.23C53.36 30.32 52.09 32.46 50 32.99C47.91 33.53 45.77 32.27 45.24 30.17C44.7 28.08 45.96 25.94 48.06 25.41C50.15 24.87 52.29 26.14 52.82 28.23Z" fill="#0A131F"/>
<path d="M48.06 25.41C45.97 25.95 44.7 28.08 45.24 30.17C45.45 30.98 45.9 31.67 46.49 32.17C47.22 32.45 48.03 32.51 48.85 32.3C50.94 31.76 52.21 29.63 51.67 27.54C51.46 26.73 51.01 26.04 50.42 25.54C49.69 25.26 48.88 25.2 48.06 25.41Z" fill="#172942"/>
<path d="M49.29 28.27C49.44 28.85 49.09 29.44 48.51 29.59C47.93 29.74 47.34 29.39 47.19 28.81C47.04 28.23 47.39 27.64 47.97 27.49C48.55 27.34 49.14 27.69 49.29 28.27Z" fill="#335C94"/>
<path d="M63.99 28.57C65.2 30.15 64.91 32.41 63.33 33.62C61.75 34.83 59.49 34.54 58.28 32.96C57.07 31.38 57.36 29.12 58.94 27.91C60.52 26.7 62.78 26.99 63.99 28.57Z" fill="#0A131F"/>
<path d="M58.94 27.91C57.36 29.12 57.07 31.38 58.28 32.96C58.75 33.57 59.38 33.99 60.06 34.2C60.78 34.17 61.49 33.93 62.1 33.46C63.68 32.25 63.97 29.99 62.76 28.41C62.29 27.8 61.66 27.38 60.98 27.17C60.26 27.2 59.55 27.44 58.94 27.91Z" fill="#172942"/>
<path d="M61.02 29.88C61.35 30.32 61.27 30.94 60.84 31.28C60.4 31.61 59.78 31.53 59.44 31.1C59.11 30.66 59.19 30.04 59.62 29.7C60.06 29.37 60.68 29.45 61.01 29.88H61.02Z" fill="#335C94"/>
<path d="M23.3 13.74C23.3 16.81 20.81 19.29 17.75 19.29C14.69 19.29 12.2 16.8 12.2 13.74C12.2 10.68 14.69 8.19 17.75 8.19C20.81 8.19 23.3 10.68 23.3 13.74Z" fill="#0A131F"/>
<path d="M17.74 8.19C14.67 8.19 12.19 10.68 12.19 13.74C12.19 14.93 12.57 16.03 13.2 16.93C14.1 17.57 15.2 17.94 16.39 17.94C19.46 17.94 21.94 15.45 21.94 12.39C21.94 11.2 21.56 10.1 20.93 9.20001C20.03 8.56001 18.93 8.19 17.74 8.19Z" fill="#172942"/>
<path d="M18.43 12.55C18.43 13.4 17.74 14.08 16.9 14.08C16.06 14.08 15.37 13.39 15.37 12.55C15.37 11.71 16.06 11.02 16.9 11.02C17.74 11.02 18.43 11.71 18.43 12.55Z" fill="#335C94"/>
</svg>
