<svg width="43" height="65" viewBox="0 0 43 65" fill="none" xmlns="http://www.w3.org/2000/svg">
<path d="M20.22 24.55C20.22 24.55 20.19 24.55 20.17 24.55C19.58 24.52 19.13 24.03 19.15 23.44C19.16 23.19 19.43 17.3 20.41 11.92C21.76 4.47 26.13 1.00999 26.32 0.869995C26.79 0.509995 27.46 0.589997 27.82 1.06C28.18 1.52 28.1 2.19 27.63 2.55C27.58 2.59 23.46 6.96 22.71 13.62C21.84 21.34 21.29 23.48 21.29 23.54C21.26 24.11 20.79 24.56 20.22 24.56V24.55Z" fill="#50A822"/>
<path d="M28.44 10.4C28.17 11.66 27.73 12.94 27.09 14.19C24.29 19.71 18.91 22.6 15.08 20.65C14.22 20.21 13.22 26.99 16.18 28.49C20.01 30.44 25.39 27.54 28.19 22.03C30.37 17.75 30.34 13.15 28.43 10.4H28.44Z" fill="#50A822"/>
<path d="M34.84 10.23C34.57 11.49 34.13 12.77 33.49 14.02C30.69 19.54 25.31 22.43 21.48 20.48C20.62 20.04 19.62 26.82 22.58 28.32C26.41 30.27 31.79 27.37 34.59 21.86C36.77 17.58 36.74 12.98 34.83 10.23H34.84Z" fill="#50A822"/>
<path d="M14.19 10.4C14.46 11.66 14.9 12.94 15.54 14.19C18.34 19.71 23.72 22.6 27.55 20.65C28.41 20.21 29.41 26.99 26.45 28.49C22.62 30.44 17.24 27.54 14.44 22.03C12.26 17.75 12.29 13.15 14.2 10.4H14.19Z" fill="#50A822"/>
<path d="M7.79 10.23C8.06 11.49 8.5 12.77 9.14 14.02C11.94 19.54 17.32 22.43 21.15 20.48C22.01 20.04 23.01 26.82 20.05 28.32C16.22 30.27 10.84 27.37 8.04 21.86C5.86 17.58 5.89 12.98 7.8 10.23H7.79Z" fill="#50A822"/>
<path d="M20.23 63.04C17.1 64.25 13.57 62.69 12.36 59.56C11.15 56.43 12.71 52.9 15.84 51.69C18.97 50.48 22.5 52.04 23.71 55.17C24.92 58.3 23.36 61.83 20.23 63.04Z" fill="black"/>
<path d="M23.71 55.17C22.5 52.04 18.98 50.48 15.84 51.69C14.31 52.28 13.16 53.42 12.52 54.8C12.41 55.75 12.52 56.74 12.89 57.69C14.1 60.82 17.62 62.38 20.76 61.17C22.29 60.58 23.44 59.44 24.08 58.06C24.19 57.11 24.08 56.12 23.71 55.17Z" fill="#242126"/>
<path d="M35.02 35.26C38.3779 35.26 41.1 32.5379 41.1 29.18C41.1 25.8221 38.3779 23.1 35.02 23.1C31.6621 23.1 28.94 25.8221 28.94 29.18C28.94 32.5379 31.6621 35.26 35.02 35.26Z" fill="black"/>
<path d="M35.02 23.1C31.66 23.1 28.94 25.82 28.94 29.18C28.94 30.82 29.59 32.3 30.65 33.4C31.5 33.85 32.46 34.1 33.48 34.1C36.84 34.1 39.56 31.38 39.56 28.02C39.56 26.38 38.91 24.9 37.85 23.8C37 23.35 36.04 23.1 35.02 23.1Z" fill="#242126"/>
<path d="M27.64 32.15C30.9979 32.15 33.72 29.4279 33.72 26.07C33.72 22.7121 30.9979 19.99 27.64 19.99C24.2821 19.99 21.56 22.7121 21.56 26.07C21.56 29.4279 24.2821 32.15 27.64 32.15Z" fill="#242126"/>
<path d="M37.37 53.36C37.37 56.72 34.65 59.44 31.29 59.44C27.93 59.44 25.21 56.72 25.21 53.36C25.21 50 27.93 47.28 31.29 47.28C34.65 47.28 37.37 50 37.37 53.36Z" fill="black"/>
<path d="M31.29 47.28C27.93 47.28 25.21 50 25.21 53.36C25.21 55 25.86 56.48 26.92 57.58C27.77 58.03 28.73 58.28 29.75 58.28C33.11 58.28 35.83 55.56 35.83 52.2C35.83 50.56 35.18 49.08 34.12 47.98C33.27 47.53 32.31 47.28 31.29 47.28Z" fill="#242126"/>
<path d="M26.88 46.21C23.52 46.21 20.8 48.93 20.8 52.29C20.8 53.93 21.45 55.41 22.51 56.51C23.36 56.96 24.32 57.21 25.34 57.21C28.7 57.21 31.42 54.49 31.42 51.13C31.42 49.49 30.77 48.01 29.71 46.91C28.86 46.46 27.9 46.21 26.88 46.21Z" fill="#242126"/>
<path d="M17.15 31.61C20.5079 31.61 23.23 28.8879 23.23 25.53C23.23 22.1721 20.5079 19.45 17.15 19.45C13.7921 19.45 11.07 22.1721 11.07 25.53C11.07 28.8879 13.7921 31.61 17.15 31.61Z" fill="#242126"/>
<path d="M9.24001 35.17C12.5979 35.17 15.32 32.4479 15.32 29.09C15.32 25.7321 12.5979 23.01 9.24001 23.01C5.88211 23.01 3.16 25.7321 3.16 29.09C3.16 32.4479 5.88211 35.17 9.24001 35.17Z" fill="#242126"/>
<path d="M6.83 41.84C10.1879 41.84 12.91 39.1179 12.91 35.76C12.91 32.4021 10.1879 29.68 6.83 29.68C3.47211 29.68 0.75 32.4021 0.75 35.76C0.75 39.1179 3.47211 41.84 6.83 41.84Z" fill="#242126"/>
<path d="M8.61 50.11C11.9679 50.11 14.69 47.3879 14.69 44.03C14.69 40.6721 11.9679 37.95 8.61 37.95C5.25211 37.95 2.53 40.6721 2.53 44.03C2.53 47.3879 5.25211 50.11 8.61 50.11Z" fill="#242126"/>
<path d="M30.42 61.31C28.83 64.27 25.14 65.38 22.18 63.79C19.22 62.2 18.11 58.51 19.7 55.55C21.29 52.59 24.98 51.48 27.94 53.07C30.9 54.66 32.01 58.35 30.42 61.31Z" fill="black"/>
<path d="M27.94 53.07C24.98 51.48 21.29 52.59 19.7 55.55C18.92 56.99 18.79 58.61 19.21 60.07C19.74 60.86 20.47 61.54 21.37 62.03C24.33 63.62 28.02 62.51 29.61 59.55C30.39 58.11 30.52 56.49 30.1 55.03C29.57 54.24 28.84 53.56 27.94 53.07Z" fill="#242126"/>
<path d="M40.67 43.44C42.03 46.51 40.64 50.11 37.56 51.46C34.49 52.82 30.89 51.43 29.54 48.35C28.19 45.27 29.57 41.68 32.65 40.33C35.73 38.98 39.32 40.36 40.67 43.44Z" fill="black"/>
<path d="M32.65 40.33C29.58 41.69 28.19 45.28 29.54 48.35C30.2 49.85 31.4 50.94 32.8 51.52C33.75 51.59 34.74 51.43 35.67 51.02C38.74 49.66 40.13 46.07 38.78 43C38.12 41.5 36.92 40.41 35.52 39.83C34.57 39.76 33.58 39.92 32.65 40.33Z" fill="#242126"/>
<path d="M35.38 46.15C35.38 47.18 34.54 48.02 33.51 48.02C32.48 48.02 31.64 47.18 31.64 46.15C31.64 45.12 32.48 44.28 33.51 44.28C34.54 44.28 35.38 45.12 35.38 46.15Z" fill="#655775"/>
<path d="M31.29 51.04C31.29 52.07 30.45 52.91 29.42 52.91C28.39 52.91 27.55 52.07 27.55 51.04C27.55 50.01 28.39 49.17 29.42 49.17C30.45 49.17 31.29 50.01 31.29 51.04Z" fill="#655775"/>
<path d="M36.53 44.24C39.8879 44.24 42.61 41.5179 42.61 38.16C42.61 34.8021 39.8879 32.08 36.53 32.08C33.1721 32.08 30.45 34.8021 30.45 38.16C30.45 41.5179 33.1721 44.24 36.53 44.24Z" fill="black"/>
<path d="M36.53 32.08C33.17 32.08 30.45 34.8 30.45 38.16C30.45 39.8 31.1 41.28 32.16 42.38C33.01 42.83 33.97 43.08 34.99 43.08C38.35 43.08 41.07 40.36 41.07 37C41.07 35.36 40.42 33.88 39.36 32.78C38.51 32.33 37.55 32.08 36.53 32.08Z" fill="#242126"/>
<path d="M33.22 48.57C31.54 51.48 27.83 52.49 24.91 50.81C21.99 49.13 20.99 45.41 22.67 42.5C24.35 39.59 28.06 38.58 30.98 40.26C33.89 41.94 34.9 45.66 33.22 48.57Z" fill="black"/>
<path d="M30.98 40.27C28.07 38.59 24.35 39.6 22.67 42.51C21.85 43.93 21.68 45.54 22.05 47.02C22.56 47.83 23.27 48.53 24.15 49.04C27.06 50.72 30.78 49.71 32.46 46.8C33.28 45.38 33.45 43.77 33.08 42.29C32.57 41.48 31.86 40.78 30.98 40.27Z" fill="#242126"/>
<path d="M36 35.66C36 36.69 35.16 37.53 34.13 37.53C33.1 37.53 32.26 36.69 32.26 35.66C32.26 34.63 33.1 33.79 34.13 33.79C35.16 33.79 36 34.63 36 35.66Z" fill="#655775"/>
<path d="M27.11 43.04C27.11 44.07 26.27 44.91 25.24 44.91C24.21 44.91 23.37 44.07 23.37 43.04C23.37 42.01 24.21 41.17 25.24 41.17C26.27 41.17 27.11 42.01 27.11 43.04Z" fill="#655775"/>
<path d="M27.35 42.02C30.7079 42.02 33.43 39.2979 33.43 35.94C33.43 32.5821 30.7079 29.86 27.35 29.86C23.9921 29.86 21.27 32.5821 21.27 35.94C21.27 39.2979 23.9921 42.02 27.35 42.02Z" fill="black"/>
<path d="M27.35 29.85C23.99 29.85 21.27 32.57 21.27 35.93C21.27 37.57 21.92 39.05 22.98 40.15C23.83 40.6 24.79 40.85 25.81 40.85C29.17 40.85 31.89 38.13 31.89 34.77C31.89 33.13 31.24 31.65 30.18 30.55C29.33 30.1 28.37 29.85 27.35 29.85Z" fill="#242126"/>
<path d="M12.88 41.4C16.2379 41.4 18.96 38.6779 18.96 35.32C18.96 31.9621 16.2379 29.24 12.88 29.24C9.52211 29.24 6.8 31.9621 6.8 35.32C6.8 38.6779 9.52211 41.4 12.88 41.4Z" fill="#242126"/>
<path d="M25.51 56.73C25.51 57.76 24.67 58.6 23.64 58.6C22.61 58.6 21.77 57.76 21.77 56.73C21.77 55.7 22.61 54.86 23.64 54.86C24.67 54.86 25.51 55.7 25.51 56.73Z" fill="#655775"/>
<path d="M12.26 57.31C15.6179 57.31 18.34 54.5879 18.34 51.23C18.34 47.8721 15.6179 45.15 12.26 45.15C8.9021 45.15 6.17999 47.8721 6.17999 51.23C6.17999 54.5879 8.9021 57.31 12.26 57.31Z" fill="#242126"/>
<path d="M15.82 57.62C16.8528 57.62 17.69 56.7828 17.69 55.75C17.69 54.7172 16.8528 53.88 15.82 53.88C14.7872 53.88 13.95 54.7172 13.95 55.75C13.95 56.7828 14.7872 57.62 15.82 57.62Z" fill="#655775"/>
<path d="M23.74 55.14C21.24 57.38 17.39 57.17 15.15 54.66C12.91 52.16 13.12 48.31 15.63 46.07C18.13 43.83 21.98 44.04 24.22 46.55C26.46 49.05 26.25 52.9 23.74 55.14Z" fill="black"/>
<path d="M24.22 46.55C21.98 44.05 18.13 43.83 15.63 46.07C14.41 47.16 13.74 48.64 13.62 50.15C13.85 51.08 14.3 51.96 14.98 52.72C17.22 55.22 21.07 55.44 23.57 53.2C24.79 52.11 25.46 50.63 25.58 49.12C25.35 48.19 24.9 47.31 24.22 46.55Z" fill="#242126"/>
<path d="M12.62 34.5C12.62 35.53 11.78 36.37 10.75 36.37C9.72 36.37 8.88 35.53 8.88 34.5C8.88 33.47 9.72 32.63 10.75 32.63C11.78 32.63 12.62 33.47 12.62 34.5Z" fill="#655775"/>
<path d="M19.64 49.53C19.64 50.56 18.8 51.4 17.77 51.4C16.74 51.4 15.9 50.56 15.9 49.53C15.9 48.5 16.74 47.66 17.77 47.66C18.8 47.66 19.64 48.5 19.64 49.53Z" fill="#655775"/>
<path d="M28.09 33.97C28.09 35 27.25 35.84 26.22 35.84C25.19 35.84 24.35 35 24.35 33.97C24.35 32.94 25.19 32.1 26.22 32.1C27.25 32.1 28.09 32.94 28.09 33.97Z" fill="#655775"/>
<path d="M33.07 29.35C34.1028 29.35 34.94 28.5128 34.94 27.48C34.94 26.4472 34.1028 25.61 33.07 25.61C32.0372 25.61 31.2 26.4472 31.2 27.48C31.2 28.5128 32.0372 29.35 33.07 29.35Z" fill="#655775"/>
<path d="M6.66 35.22C6.66 36.25 5.81999 37.09 4.78999 37.09C3.75999 37.09 2.92 36.25 2.92 35.22C2.92 34.19 3.75999 33.35 4.78999 33.35C5.81999 33.35 6.66 34.19 6.66 35.22Z" fill="#655775"/>
<path d="M9.31 27.61C9.31 28.64 8.47 29.48 7.44 29.48C6.41 29.48 5.57001 28.64 5.57001 27.61C5.57001 26.58 6.41 25.74 7.44 25.74C8.47 25.74 9.31 26.58 9.31 27.61Z" fill="#655775"/>
<path d="M17.11 23.46C17.11 24.49 16.27 25.33 15.24 25.33C14.21 25.33 13.37 24.49 13.37 23.46C13.37 22.43 14.21 21.59 15.24 21.59C16.27 21.59 17.11 22.43 17.11 23.46Z" fill="#655775"/>
<path d="M9.71001 42.95C9.71001 43.98 8.87 44.82 7.84 44.82C6.81 44.82 5.97 43.98 5.97 42.95C5.97 41.92 6.81 41.08 7.84 41.08C8.87 41.08 9.71001 41.92 9.71001 42.95Z" fill="#655775"/>
<path d="M11.91 50.75C11.91 51.78 11.07 52.62 10.04 52.62C9.00999 52.62 8.17 51.78 8.17 50.75C8.17 49.72 9.00999 48.88 10.04 48.88C11.07 48.88 11.91 49.72 11.91 50.75Z" fill="#655775"/>
<path d="M27.74 23.57C27.74 24.6 26.9 25.44 25.87 25.44C24.84 25.44 24 24.6 24 23.57C24 22.54 24.84 21.7 25.87 21.7C26.9 21.7 27.74 22.54 27.74 23.57Z" fill="#655775"/>
<path d="M22.32 46.37C19.75 48.54 15.91 48.21 13.75 45.64C11.58 43.07 11.91 39.23 14.48 37.07C17.05 34.9 20.89 35.23 23.05 37.8C25.22 40.37 24.89 44.21 22.32 46.37Z" fill="black"/>
<path d="M23.04 37.79C20.87 35.22 17.03 34.9 14.47 37.06C13.22 38.12 12.5 39.57 12.35 41.08C12.55 42.01 12.98 42.91 13.64 43.69C15.81 46.26 19.65 46.58 22.21 44.42C23.46 43.36 24.18 41.91 24.33 40.4C24.12 39.47 23.7 38.57 23.04 37.79Z" fill="#242126"/>
<path d="M18.4 39.93C18.4 40.96 17.56 41.8 16.53 41.8C15.5 41.8 14.66 40.96 14.66 39.93C14.66 38.9 15.5 38.06 16.53 38.06C17.56 38.06 18.4 38.9 18.4 39.93Z" fill="#655775"/>
<path d="M19.1 37.84C22.4579 37.84 25.18 35.1179 25.18 31.76C25.18 28.4021 22.4579 25.68 19.1 25.68C15.7421 25.68 13.02 28.4021 13.02 31.76C13.02 35.1179 15.7421 37.84 19.1 37.84Z" fill="black"/>
<path d="M19.1 25.67C15.74 25.67 13.02 28.39 13.02 31.75C13.02 33.39 13.67 34.87 14.73 35.97C15.58 36.42 16.54 36.67 17.56 36.67C20.92 36.67 23.64 33.95 23.64 30.59C23.64 28.95 22.99 27.47 21.93 26.37C21.08 25.92 20.12 25.67 19.1 25.67Z" fill="#242126"/>
<path d="M19.2 30.77C19.2 31.8 18.36 32.64 17.33 32.64C16.3 32.64 15.46 31.8 15.46 30.77C15.46 29.74 16.3 28.9 17.33 28.9C18.36 28.9 19.2 29.74 19.2 30.77Z" fill="#655775"/>
</svg>
