<svg width="39" height="69" viewBox="0 0 39 69" fill="none" xmlns="http://www.w3.org/2000/svg">
<path d="M28.42 39.26C28.42 41.46 26.64 43.25 24.43 43.25C22.22 43.25 20.44 41.47 20.44 39.26C20.44 37.05 22.22 35.27 24.43 35.27C26.64 35.27 28.42 37.05 28.42 39.26Z" fill="#1F3352"/>
<path d="M20.45 39.26C20.45 40.02 20.67 40.73 21.04 41.33C21.64 41.7 22.35 41.92 23.11 41.92C25.31 41.92 27.1 40.14 27.1 37.93C27.1 37.17 26.88 36.46 26.51 35.86C25.91 35.49 25.2 35.27 24.44 35.27C22.24 35.27 20.45 37.05 20.45 39.26Z" fill="#364C6F"/>
<path d="M23.85 38.68C23.85 39.23 23.4 39.68 22.85 39.68C22.3 39.68 21.85 39.23 21.85 38.68C21.85 38.13 22.3 37.68 22.85 37.68C23.4 37.68 23.85 38.13 23.85 38.68Z" fill="#587CB5"/>
<path d="M25.39 9.78C25.39 14.92 21.4 19.08 20.16 19.08C18.92 19.08 14.93 14.92 14.93 9.78C14.93 4.64 18.75 0.480011 20.16 0.480011C21.57 0.480011 25.39 4.64 25.39 9.78Z" fill="#50A822"/>
<path d="M20.41 0.48999V19.07C21.72 18.95 25.58 14.84 25.58 9.78C25.58 4.72 21.87 0.59999 20.41 0.48999Z" fill="#578D38"/>
<path d="M13.5 21.73C17.78 22.39 20.74 26.26 20.58 27.3C20.42 28.34 16.43 31.13 12.15 30.46C7.87001 29.8 4.89 26.07 5.07 24.89C5.25 23.71 9.22 21.06 13.5 21.73Z" fill="#50A822"/>
<path d="M5.11 24.69L20.61 27.09C20.68 25.99 17.75 22.23 13.53 21.58C9.3 20.93 5.39 23.49 5.11 24.69Z" fill="#578D38"/>
<path d="M28.29 68.08C28.29 67.83 27.77 42.59 26.18 31.18C24.65 20.26 15.39 17.89 15 17.8L15.35 16.35C15.46 16.38 25.99 19.03 27.66 30.98C29.27 42.47 29.78 67.8 29.78 68.06L28.29 68.09V68.08Z" fill="#50A822"/>
<path d="M29.7 20.08C29.7 20.08 27.42 23.49 27.05 26.1C26.68 28.72 27.17 33.95 27.17 33.95L29.69 20.08H29.7Z" fill="#50A822"/>
<path d="M26.69 34.97C26.69 34.97 26.04 32.17 22.58 29.29C19.49 26.71 18.2 27.66 18.19 27.67L17.2 26.55C17.42 26.35 19.42 24.71 23.54 28.14C27.43 31.38 27.73 34.64 27.75 34.78L26.69 34.97Z" fill="#50A822"/>
<path d="M27.92 56.82C27.92 56.82 27.67 54.87 26.32 53.07C25.12 51.47 24.57 51.21 24.56 51.21C24.56 51.21 24.59 51.22 24.65 51.24L24.94 49.77C25.28 49.84 26.06 50.24 27.51 52.17C29.11 54.3 29.39 56.55 29.4 56.64L27.92 56.81V56.82Z" fill="#50A822"/>
<path d="M28.47 65.33L25.24 61.8L26.5 60.72L29.72 64.25L28.47 65.33Z" fill="#50A822"/>
<path d="M29.12 53.57L27.5 52.82L30.44 48.55L32.07 49.3L29.12 53.57Z" fill="#50A822"/>
<path d="M28.71 42.7L27.23 42.11L29.37 37.27L30.85 37.86L28.71 42.7Z" fill="#50A822"/>
<path d="M18.08 28.67C18.08 30.87 16.3 32.66 14.09 32.66C11.88 32.66 10.1 30.88 10.1 28.67C10.1 26.46 11.88 24.68 14.09 24.68C16.3 24.68 18.08 26.46 18.08 28.67Z" fill="#1F3352"/>
<path d="M10.11 28.67C10.11 29.43 10.33 30.14 10.7 30.74C11.3 31.11 12.01 31.33 12.77 31.33C14.97 31.33 16.76 29.55 16.76 27.34C16.76 26.58 16.54 25.87 16.17 25.27C15.57 24.9 14.86 24.68 14.1 24.68C11.9 24.68 10.11 26.46 10.11 28.67Z" fill="#364C6F"/>
<path d="M12.52 29.09C13.0723 29.09 13.52 28.6423 13.52 28.09C13.52 27.5377 13.0723 27.09 12.52 27.09C11.9677 27.09 11.52 27.5377 11.52 28.09C11.52 28.6423 11.9677 29.09 12.52 29.09Z" fill="#587CB5"/>
<path d="M11.17 8.1C15.34 11.1 16.39 16.77 15.66 17.78C14.93 18.79 9.23 19.59 5.06 16.59C0.890001 13.59 -0.259999 8.05999 0.570001 6.90999C1.39 5.75999 7 5.1 11.17 8.1Z" fill="#50A822"/>
<path d="M0.720001 6.71999L15.8 17.57C16.46 16.44 15.39 10.91 11.28 7.95C7.17 4.99 1.66 5.59999 0.720001 6.71999Z" fill="#578D38"/>
<path d="M37.51 47.73C37.51 49.93 35.73 51.72 33.52 51.72C31.31 51.72 29.53 49.94 29.53 47.73C29.53 45.52 31.31 43.74 33.52 43.74C35.73 43.74 37.51 45.52 37.51 47.73Z" fill="#1F3352"/>
<path d="M29.54 47.73C29.54 48.49 29.76 49.2 30.13 49.8C30.73 50.17 31.44 50.39 32.2 50.39C34.4 50.39 36.19 48.61 36.19 46.4C36.19 45.64 35.97 44.93 35.6 44.33C35 43.96 34.29 43.74 33.53 43.74C31.33 43.74 29.54 45.52 29.54 47.73Z" fill="#364C6F"/>
<path d="M32.94 47.15C32.94 47.7 32.49 48.15 31.94 48.15C31.39 48.15 30.94 47.7 30.94 47.15C30.94 46.6 31.39 46.15 31.94 46.15C32.49 46.15 32.94 46.6 32.94 47.15Z" fill="#587CB5"/>
<path d="M36.64 34.9C36.64 37.1 34.86 38.89 32.65 38.89C30.44 38.89 28.66 37.11 28.66 34.9C28.66 32.69 30.44 30.91 32.65 30.91C34.86 30.91 36.64 32.69 36.64 34.9Z" fill="#1F3352"/>
<path d="M28.67 34.9C28.67 35.66 28.89 36.37 29.26 36.97C29.86 37.34 30.57 37.56 31.33 37.56C33.53 37.56 35.32 35.78 35.32 33.57C35.32 32.81 35.1 32.1 34.73 31.5C34.13 31.13 33.42 30.91 32.66 30.91C30.46 30.91 28.67 32.69 28.67 34.9Z" fill="#364C6F"/>
<path d="M32.07 34.32C32.07 34.87 31.62 35.32 31.07 35.32C30.52 35.32 30.07 34.87 30.07 34.32C30.07 33.77 30.52 33.32 31.07 33.32C31.62 33.32 32.07 33.77 32.07 34.32Z" fill="#587CB5"/>
<path d="M19.1 42.7C23.79 44.79 25.98 50.12 25.47 51.26C24.96 52.4 19.54 54.35 14.85 52.26C10.16 50.17 7.9 44.99 8.48 43.7C9.05 42.41 14.41 40.61 19.1 42.7Z" fill="#50A822"/>
<path d="M8.59 43.48L25.57 51.03C25.99 49.79 23.81 44.59 19.18 42.53C14.55 40.47 9.28 42.2 8.59 43.48Z" fill="#578D38"/>
<path d="M26.8 59.93C26.8 62.13 25.02 63.92 22.81 63.92C20.6 63.92 18.82 62.14 18.82 59.93C18.82 57.72 20.6 55.94 22.81 55.94C25.02 55.94 26.8 57.72 26.8 59.93Z" fill="#1F3352"/>
<path d="M18.83 59.93C18.83 60.69 19.05 61.4 19.42 62C20.02 62.37 20.73 62.59 21.49 62.59C23.69 62.59 25.48 60.81 25.48 58.6C25.48 57.84 25.26 57.13 24.89 56.53C24.29 56.16 23.58 55.94 22.82 55.94C20.62 55.94 18.83 57.72 18.83 59.93Z" fill="#364C6F"/>
<path d="M22.23 59.35C22.23 59.9 21.78 60.35 21.23 60.35C20.68 60.35 20.23 59.9 20.23 59.35C20.23 58.8 20.68 58.35 21.23 58.35C21.78 58.35 22.23 58.8 22.23 59.35Z" fill="#587CB5"/>
<path d="M37.07 15.85C34.98 20.54 29.65 22.73 28.51 22.22C27.37 21.71 25.42 16.29 27.51 11.6C29.6 6.90999 34.78 4.65 36.07 5.23C37.36 5.8 39.16 11.16 37.07 15.85Z" fill="#50A822"/>
<path d="M36.29 5.34L28.74 22.32C29.98 22.74 35.18 20.56 37.24 15.93C39.3 11.3 37.58 6.03 36.29 5.34Z" fill="#578D38"/>
<path d="M30.91 23.94C30.91 26.14 29.13 27.93 26.92 27.93C24.71 27.93 22.93 26.15 22.93 23.94C22.93 21.73 24.71 19.95 26.92 19.95C29.13 19.95 30.91 21.73 30.91 23.94Z" fill="#1F3352"/>
<path d="M22.94 23.94C22.94 24.7 23.16 25.41 23.53 26.01C24.13 26.38 24.84 26.6 25.6 26.6C27.8 26.6 29.59 24.82 29.59 22.61C29.59 21.85 29.37 21.14 29 20.54C28.4 20.17 27.69 19.95 26.93 19.95C24.73 19.95 22.94 21.73 22.94 23.94Z" fill="#364C6F"/>
<path d="M26.34 23.36C26.34 23.91 25.89 24.36 25.34 24.36C24.79 24.36 24.34 23.91 24.34 23.36C24.34 22.81 24.79 22.36 25.34 22.36C25.89 22.36 26.34 22.81 26.34 23.36Z" fill="#587CB5"/>
</svg>
