<svg width="47" height="45" viewBox="0 0 47 45" fill="none" xmlns="http://www.w3.org/2000/svg">
<path d="M44.67 6.07001C42.53 3.34001 39.18 2.27 36.61 3.28C28.97 -1.33 18.58 -0.779983 10.68 5.39002C2.09999 12.1 -0.730007 23.29 3.24999 32.22C0.649993 34.29 -0.110009 37.66 1.55999 39.79C3.22999 41.92 6.68999 41.99 9.31999 39.96C17.05 45.96 28.6 45.9 37.19 39.18C45.08 33.01 48.11 23.06 45.45 14.55C47.05 12.3 46.81 8.8 44.67 6.06V6.07001Z" fill="#549900"/>
<path d="M40.77 11.11C42.24 9.04999 42.02 5.85001 40.06 3.35001C39.96 3.23001 39.86 3.11 39.76 3C38.67 2.81 37.59 2.89 36.61 3.28C28.97 -1.33 18.58 -0.779983 10.68 5.39002C4.08 10.55 0.89 18.35 1.57 25.73C1.66 26.41 1.67 26.75 1.82 27.57C2.11 29.16 2.58 30.72 3.25 32.22C2.33 32.95 1.65 33.84 1.22 34.78C2.88 36.12 5.6 35.98 7.73 34.34C14.8 39.82 25.36 39.77 33.21 33.63C40.43 27.98 43.19 18.89 40.77 11.11Z" fill="#64B009"/>
<path d="M21.18 19C18.57 21.35 14.61 21.11 12.33 18.47C10.05 15.83 10.32 11.79 12.94 9.44001C15.55 7.09001 19.51 7.33001 21.79 9.97001C24.07 12.61 23.8 16.65 21.18 19Z" fill="#97C75C"/>
</svg>
