<svg width="56" height="68" viewBox="0 0 56 68" fill="none" xmlns="http://www.w3.org/2000/svg">
<path d="M39.62 45.28C39.6 45.21 37.27 38.38 35.85 32.17C34.76 27.39 34.88 20.5 35.02 17.28C31.78 19.48 23.98 25.06 20.33 30.34C15.66 37.09 13.7 44.78 13.68 44.86L11.95 44.43C12.03 44.1 14.01 36.34 18.86 29.33C23.72 22.3 35.05 15.11 35.53 14.81L37.02 13.87L36.9 15.63C36.9 15.73 36.21 25.74 37.59 31.78C38.99 37.91 41.29 44.65 41.31 44.71L39.62 45.29V45.28Z" fill="#50A822"/>
<path d="M27.08 54.36C27.08 61.8 21.05 67.83 13.61 67.83C6.16999 67.83 0.140015 61.8 0.140015 54.36C0.140015 48.51 3.98 42.76 9.94 42.8C11.16 42.8 11.65 43.38 13.61 43.38C15.57 43.38 16.01 42.78 17.2 42.77C23.51 42.75 27.08 48.46 27.08 54.35V54.36Z" fill="#7D0006"/>
<path d="M55.38 51.81C56.8 59.11 52.03 66.18 44.73 67.6C37.43 69.02 30.36 64.25 28.94 56.95C27.82 51.21 30.49 44.84 36.35 43.74C37.55 43.52 38.14 43.99 40.06 43.61C41.99 43.24 42.31 42.56 43.47 42.33C49.66 41.11 54.25 46.03 55.38 51.81Z" fill="#7D0006"/>
<path d="M13.62 43.39C11.66 43.39 11.17 42.81 9.95001 42.81C3.99001 42.77 0.149994 48.51 0.149994 54.36C0.149994 59.31 2.81999 63.64 6.79999 65.98C7.65999 66.15 8.54999 66.24 9.45999 66.24C16.9 66.24 22.93 60.21 22.93 52.77C22.93 48.82 21.32 44.96 18.36 42.84C17.98 42.8 17.6 42.78 17.2 42.78C16.02 42.78 15.57 43.39 13.61 43.39H13.62Z" fill="#AD0009"/>
<path d="M43.47 42.33C42.31 42.56 41.99 43.24 40.06 43.61C38.13 43.98 37.54 43.51 36.35 43.74C30.49 44.84 27.82 51.21 28.94 56.95C29.71 60.9 32.13 64.11 35.35 66C37.03 66.34 38.79 66.36 40.57 66.02C47.87 64.6 52.64 57.53 51.22 50.23C50.59 46.96 48.84 43.97 46.33 42.21C45.42 42.11 44.47 42.15 43.47 42.34V42.33Z" fill="#AD0009"/>
<path d="M19.48 17C11.16 14.37 6.89001 4.43999 6.89001 4.43999C6.89001 4.43999 16.1 -1.22001 24.41 1.41C32.73 4.04 37 13.97 37 13.97C37 13.97 27.79 19.63 19.48 17Z" fill="#50A822"/>
<path d="M37.01 13.98L6.89001 4.45999C6.89001 4.45999 11.17 14.39 19.48 17.02C27.8 19.65 37 13.99 37 13.99L37.01 13.98Z" fill="#578D38"/>
<path d="M11.53 51.82C11.53 53.97 9.83001 55.71 7.73001 55.71C5.63001 55.71 3.92999 53.97 3.92999 51.82C3.92999 49.67 5.63001 47.93 7.73001 47.93C9.83001 47.93 11.53 49.67 11.53 51.82Z" fill="#FF6269"/>
<path d="M40.49 52.19C40.49 54.34 38.79 56.08 36.69 56.08C34.59 56.08 32.89 54.34 32.89 52.19C32.89 50.04 34.59 48.3 36.69 48.3C38.79 48.3 40.49 50.04 40.49 52.19Z" fill="#FF6269"/>
</svg>
