<svg width="77" height="49" viewBox="0 0 77 49" fill="none" xmlns="http://www.w3.org/2000/svg">
<path d="M54.93 17.76C57.2 29.58 47.42 41.37 33.08 44.16C15.16 47.65 1.95999 34.46 0.459991 28.3C-1.04001 22.14 6.38999 5.6 24.85 1.35C39.08 -1.93 52.66 5.94 54.93 17.76Z" fill="#573A1E"/>
<path d="M27.41 38.23C41.74 35.44 51.53 23.65 49.26 11.83C48.81 9.5 47.92 7.32 46.67 5.35C40.95 1.26 33.01 -0.530003 24.85 1.35C6.39999 5.6 -1.05001 22.15 0.459993 28.3C0.719993 29.37 1.33999 30.65 2.26999 32.02C8.12999 36.62 16.96 40.26 27.41 38.23Z" fill="#6B4B28"/>
<path d="M24.76 15.55C26.23 18.16 24.44 21.94 20.78 24C17.12 26.06 12.96 25.61 11.49 23C10.02 20.39 11.81 16.61 15.47 14.55C19.13 12.49 23.29 12.94 24.76 15.55Z" fill="#7A5C3A"/>
<path d="M58.84 6.01999C58.26 5.98999 57.67 5.97999 57.07 5.98999C43.71 6.25999 33.07 16 33.3 27.74C33.53 39.48 44.56 48.78 57.92 48.51C59.5 48.48 61.04 48.31 62.52 48.03C61.42 35.75 59.62 15.62 58.83 6.01999H58.84Z" fill="#694724"/>
<path d="M57.08 6C47.14 6.2 38.7 11.65 35.13 19.26C34.84 20.64 34.7 22.07 34.73 23.54C34.97 35.28 45.99 44.58 59.35 44.31C60.31 44.29 61.25 44.22 62.18 44.1C61.08 31.81 59.56 14.67 58.84 6.03C58.26 6 57.67 5.99 57.07 6H57.08Z" fill="#7A552E"/>
<path d="M60.9157 48.3531C69.6014 48.1788 76.452 38.5478 76.217 26.8417C75.9821 15.1356 68.7504 5.78731 60.0647 5.96167C51.379 6.13602 44.5284 15.767 44.7634 27.4731C44.9984 39.1792 52.23 48.5275 60.9157 48.3531Z" fill="#694724"/>
<mask id="mask0_145_6966" style="mask-type:luminance" maskUnits="userSpaceOnUse" x="46" y="7" width="29" height="40">
<path d="M61.0455 46.3501C68.8422 46.1936 74.9887 37.4007 74.7741 26.7106C74.5595 16.0206 68.0651 7.4814 60.2684 7.63792C52.4717 7.79443 46.3252 16.5873 46.5398 27.2774C46.7544 37.9675 53.2488 46.5066 61.0455 46.3501Z" fill="white"/>
</mask>
<g mask="url(#mask0_145_6966)">
<path d="M61.0455 46.3501C68.8422 46.1936 74.9887 37.4007 74.7741 26.7106C74.5595 16.0206 68.0651 7.4814 60.2684 7.63792C52.4717 7.79443 46.3252 16.5873 46.5398 27.2774C46.7544 37.9675 53.2488 46.5066 61.0455 46.3501Z" fill="#D3DEF1"/>
</g>
<path d="M69.92 23.16C69.81 17.5 67.93 12.46 65.03 8.97C64.81 8.79 64.59 8.61 64.36 8.45C63.06 7.95 61.7 7.68 60.29 7.71C52.49 7.87 46.35 16.66 46.56 27.35C46.67 33.01 48.55 38.05 51.45 41.54C51.67 41.72 51.89 41.9 52.12 42.06C53.42 42.56 54.78 42.83 56.19 42.8C63.99 42.64 70.13 33.85 69.92 23.16Z" fill="#F4FBFE"/>
<path d="M69.96 28.22C68.32 30.32 68.55 35.26 68.55 35.26C68.55 35.26 66.79 37.1 65.62 37.99C64.4 38.92 62.89 39.89 61.39 39.92C59.57 39.96 58.12 38.51 56.69 37.24C56.09 36.71 56.1 35.33 55.61 34.62C55.05 33.81 53.62 32.64 53.62 32.64C53.62 32.64 54.25 30.37 54.21 28.45C54.19 27.5 52.6 25.52 52.6 25.52C52.6 25.52 55.07 21.11 54.6 19.06C54.24 17.46 57.1 15.3 57.1 15.3L62.67 14.82C62.67 14.82 65.36 16.2 66.93 16.96C69.3 18.11 70.97 23.1 70.97 23.1C70.97 23.1 71.15 26.72 69.96 28.24V28.22Z" fill="#A1ACB9"/>
<mask id="mask1_145_6966" style="mask-type:luminance" maskUnits="userSpaceOnUse" x="46" y="7" width="29" height="40">
<path d="M61.0455 46.3501C68.8422 46.1936 74.9887 37.4007 74.7741 26.7106C74.5595 16.0206 68.0651 7.4814 60.2684 7.63792C52.4717 7.79443 46.3252 16.5873 46.5398 27.2774C46.7544 37.9675 53.2488 46.5066 61.0455 46.3501Z" fill="white"/>
</mask>
<g mask="url(#mask1_145_6966)">
<path d="M55.83 8.31L56.54 14.27L54.69 8.47L55.83 8.31Z" fill="#A1ACB9"/>
<path d="M58.57 19.58L48.34 14.78L48.3 16.12L58.57 19.58Z" fill="#A1ACB9"/>
<path d="M60.3 26.97L44.73 23.09L45.62 24.88L60.3 26.97Z" fill="#A1ACB9"/>
<path d="M46.94 33.9L51.14 33.14L46.61 35.29L46.94 33.9Z" fill="#A1ACB9"/>
<path d="M51.36 42.19L54.18 38.25L52.86 43.38L51.36 42.19Z" fill="#A1ACB9"/>
<path d="M49.77 40.84L53.71 34.41L50.54 41.38L49.77 40.84Z" fill="#A1ACB9"/>
<path d="M47.77 16.89L52.49 18.21L47.56 17.91L47.77 16.89Z" fill="#A1ACB9"/>
<path d="M57.09 7.79L58.05 16.27L58.32 7.38L57.09 7.79Z" fill="#A1ACB9"/>
<path d="M61.13 7.11C61.01 7.48 60.63 10.21 60.63 10.21L62.96 7.32L61.13 7.11Z" fill="#A1ACB9"/>
<path d="M51.01 10.91L53.77 13.61L50.6 11.72L51.01 10.91Z" fill="#A1ACB9"/>
<path d="M46.5 29.13L52.99 28.45L46.26 30.27L46.5 29.13Z" fill="#A1ACB9"/>
<path d="M67.36 37.51L70.41 41.4L69.51 42.46L67.36 37.51Z" fill="#A1ACB9"/>
<path d="M64.54 41.05L66.52 45.67L67.18 44.94L64.54 41.05Z" fill="#A1ACB9"/>
<path d="M60.68 47.24L61.03 40.96L59.99 47.28L60.68 47.24Z" fill="#A1ACB9"/>
<path d="M73.69 36.11L69.12 34.7L73.44 37.25L73.69 36.11Z" fill="#A1ACB9"/>
<path d="M70.03 19.9L73.95 18.77L74.39 19.47L70.03 19.9Z" fill="#A1ACB9"/>
<path d="M64.76 7.65L63.81 12.5L65.5 7.9L64.76 7.65Z" fill="#A1ACB9"/>
<path d="M70.65 29.37L75.54 31.01L75.01 31.79L70.65 29.37Z" fill="#A1ACB9"/>
</g>
<path d="M60.26 16.95C59.32 16.49 57.96 15.81 57.04 15.34C56.65 15.65 54.26 17.58 54.6 19.06C55.07 21.12 52.6 25.53 52.6 25.53C52.6 25.53 54.19 27.52 54.21 28.46C54.25 30.38 53.62 32.65 53.62 32.65C53.62 32.65 55.05 33.82 55.61 34.63C56.1 35.34 56.09 36.72 56.69 37.25C57.18 37.69 57.68 38.14 58.19 38.56C58.46 38.38 58.72 38.19 58.96 38C60.13 37.1 61.89 35.27 61.89 35.27C61.89 35.27 61.66 30.33 63.3 28.23C64.49 26.71 64.31 23.09 64.31 23.09C64.31 23.09 62.63 18.1 60.27 16.95H60.26Z" fill="#929CA8"/>
</svg>
