<svg width="42" height="63" viewBox="0 0 42 63" fill="none" xmlns="http://www.w3.org/2000/svg">
<path d="M18.01 18.7C18.01 18.7 20.59 13.61 20.4 9.98C20.18 5.82 16.7 4.28 16.67 4.27C15.95 4.02 15.67 3.08 16.06 2.17C16.45 1.26 17.35 0.720004 18.08 0.970004C18.26 1.03 22.53 2.56 22.85 8.52C23.12 13.51 19.37 19.3 19.21 19.55C18.7 20.34 17.47 19.53 18.01 18.7Z" fill="#50A822"/>
<path d="M28.01 15.98C21.94 13.24 19.59 5.32 19.59 5.32C19.59 5.32 27.08 1.86 33.15 4.6C39.22 7.34 41.57 15.26 41.57 15.26C41.57 15.26 34.08 18.72 28.01 15.98Z" fill="#50A822"/>
<path d="M41.57 15.26L19.59 5.32001C19.59 5.32001 21.94 13.23 28.01 15.98C34.08 18.72 41.57 15.26 41.57 15.26Z" fill="#578D38"/>
<path d="M17.73 62.25C27.152 62.25 34.79 52.2928 34.79 40.01C34.79 27.7272 27.152 17.77 17.73 17.77C8.30803 17.77 0.670013 27.7272 0.670013 40.01C0.670013 52.2928 8.30803 62.25 17.73 62.25Z" fill="#5E1D34"/>
<path d="M21.58 62.25C29.8532 62.25 36.56 52.2928 36.56 40.01C36.56 27.7272 29.8532 17.77 21.58 17.77C13.3068 17.77 6.60001 27.7272 6.60001 40.01C6.60001 52.2928 13.3068 62.25 21.58 62.25Z" fill="#57112C"/>
<path d="M21.58 17.76C13.31 17.76 6.60001 27.72 6.60001 40C6.60001 45.9 8.14999 51.26 10.68 55.25C12.36 56.21 14.18 56.75 16.08 56.75C24.35 56.75 31.06 46.79 31.06 34.51C31.06 28.61 29.51 23.25 26.98 19.26C25.3 18.3 23.48 17.76 21.58 17.76Z" fill="#6E1C38"/>
<path d="M9.26001 40.01C9.26001 28.39 15.26 18.86 22.91 17.86C22.47 17.8 22.03 17.77 21.58 17.77C13.31 17.77 6.60001 27.73 6.60001 40.01C6.60001 52.29 13.31 62.25 21.58 62.25C22.03 62.25 22.47 62.22 22.91 62.16C15.26 61.16 9.26001 51.63 9.26001 40.01Z" fill="#431435"/>
<path d="M19.45 34.46C18.75 37.31 16.53 39.21 14.5 38.71C12.47 38.21 11.38 35.5 12.08 32.65C12.78 29.8 15 27.9 17.03 28.4C19.06 28.9 20.15 31.61 19.45 34.46Z" fill="#8C2B4E"/>
</svg>
