<svg width="44" height="52" viewBox="0 0 44 52" fill="none" xmlns="http://www.w3.org/2000/svg">
<path d="M25.71 3.51001C28.49 0.51001 24.95 -0.310001 22.65 0.279999C20.36 0.869999 20.27 11.35 20.27 11.35C10.47 13.3 0.729996 25.01 0.729996 34.96C0.729996 45.91 11.31 51.62 22.26 51.62C33.21 51.62 43.79 45.91 43.79 34.96C43.79 25.02 34.05 13.3 24.25 11.35C24.25 11.35 22.49 7.00001 25.72 3.51001H25.71Z" fill="#64428B"/>
<path d="M22.13 12.3C18.09 12.3 2.34999 22.15 2.34999 34.3C2.34999 44.42 12.13 49.7 22.25 49.7C32.37 49.7 42.15 44.43 42.15 34.3C42.15 22.91 26.16 12.3 22.12 12.3H22.13Z" fill="#F8E5DE"/>
<path d="M22.14 14.22C18.51 14.22 4.39999 23.06 4.39999 33.95C4.39999 41.28 10.11 45.77 17.09 47.24C18.76 47.59 20.5 49.81 22.25 49.81C24.16 49.81 26.05 47.56 27.85 47.15C34.63 45.59 40.11 41.13 40.11 33.96C40.11 23.75 25.77 14.23 22.14 14.23V14.22Z" fill="#C20000"/>
<path d="M22.66 40.28C23.57 40.28 21.75 36.72 23.94 35.99C26.13 35.26 27.04 38.09 27.86 37.27C28.68 36.45 25.03 35.54 26.67 34.08C28.31 32.62 30.07 33.43 30.3 31.9C30.52 30.37 25.87 30.86 24.94 30.15C23.67 29.18 22.57 27.78 23.57 26.14C24.57 24.5 25.58 23.86 25.58 23.86C25.58 23.86 22.02 23.59 21.57 26.69C21.29 28.6 21.84 29.06 20.75 29.43C19.66 29.79 17.37 27.15 17.37 27.15C17.37 27.15 19.1 30.62 17.37 31.26C15.64 31.9 14.27 32.9 14.27 32.9C14.27 32.9 17.19 32.9 18.38 33.99C19.57 35.08 18.74 38.55 18.74 38.55C18.74 38.55 19.93 35.45 20.84 35.9C21.75 36.36 21.75 40.28 22.66 40.28Z" fill="#850000"/>
<path d="M25.5 39.4C25.47 39.01 25.18 38.69 24.78 38.69C24.38 38.69 24.06 39.01 24.06 39.4C24.06 39.57 24.12 39.73 24.22 39.85C24.39 40.03 24.66 40.46 24.3 41.29C23.35 43.43 24.21 45.36 24.21 45.36C24.21 45.36 23.97 43.92 24.21 42.85C24.49 41.63 25.56 40.03 25.52 39.4H25.5Z" fill="#F9BD64"/>
<path d="M26.13 39.92C26.09 39.53 26.33 39.16 26.72 39.09C27.11 39.02 27.49 39.28 27.55 39.67C27.58 39.84 27.55 40 27.46 40.14C27.32 40.34 27.13 40.82 27.63 41.57C28.93 43.52 28.41 45.57 28.41 45.57C28.41 45.57 28.41 44.11 27.99 43.1C27.51 41.95 26.18 40.55 26.12 39.92H26.13Z" fill="#F9BD64"/>
<path d="M29.17 37.72C28.89 37.44 28.46 37.4 28.16 37.66C27.86 37.92 27.83 38.38 28.09 38.67C28.2 38.8 28.35 38.87 28.51 38.9C28.75 38.93 29.25 39.08 29.52 39.94C30.22 42.18 32.14 43.06 32.14 43.06C32.14 43.06 31.01 42.14 30.48 41.17C29.88 40.07 29.63 38.16 29.19 37.72H29.17Z" fill="#F9BD64"/>
<path d="M17.75 39.33C17.98 39.01 17.95 38.57 17.64 38.32C17.33 38.07 16.88 38.11 16.63 38.41C16.52 38.54 16.47 38.7 16.47 38.86C16.49 39.1 16.42 39.61 15.62 40.01C13.53 41.06 12.97 43.1 12.97 43.1C12.97 43.1 13.7 41.83 14.56 41.16C15.55 40.39 17.39 39.84 17.76 39.32L17.75 39.33Z" fill="#F9BD64"/>
<path d="M18.93 40.01C19.2 39.73 19.64 39.68 19.94 39.93C20.24 40.19 20.28 40.64 20.03 40.94C19.92 41.07 19.77 41.15 19.61 41.17C19.37 41.2 18.88 41.36 18.62 42.22C17.95 44.47 16.05 45.38 16.05 45.38C16.05 45.38 17.17 44.44 17.68 43.47C18.26 42.36 18.48 40.45 18.92 40L18.93 40.01Z" fill="#F9BD64"/>
<path d="M22.91 41.95C22.94 41.56 22.7 41.2 22.31 41.13C21.92 41.07 21.55 41.33 21.49 41.72C21.46 41.89 21.5 42.05 21.58 42.19C21.72 42.39 21.92 42.86 21.43 43.62C20.16 45.59 20.71 47.63 20.71 47.63C20.71 47.63 20.69 46.17 21.1 45.15C21.56 43.99 22.87 42.57 22.92 41.94L22.91 41.95Z" fill="#F9BD64"/>
<path d="M12.98 33.66C13.37 33.62 13.68 33.31 13.67 32.91C13.66 32.51 13.32 32.2 12.93 32.21C12.76 32.21 12.61 32.29 12.49 32.39C12.32 32.56 11.89 32.84 11.06 32.51C8.87999 31.64 6.98999 32.57 6.98999 32.57C6.98999 32.57 8.41999 32.27 9.49999 32.48C10.73 32.71 12.37 33.72 12.99 33.66H12.98Z" fill="#F9BD64"/>
<path d="M13.59 34.57C13.98 34.52 14.35 34.74 14.44 35.13C14.52 35.52 14.28 35.9 13.89 35.98C13.72 36.01 13.56 35.98 13.42 35.91C13.21 35.79 12.73 35.61 12 36.14C10.1 37.51 8.03 37.07 8.03 37.07C8.03 37.07 9.49 37.01 10.49 36.55C11.63 36.03 12.97 34.65 13.6 34.56L13.59 34.57Z" fill="#F9BD64"/>
<path d="M17 36.68C17.27 36.39 17.3 35.95 17.02 35.66C16.75 35.37 16.29 35.35 16.01 35.63C15.89 35.75 15.82 35.9 15.8 36.06C15.79 36.3 15.66 36.8 14.81 37.1C12.6 37.88 11.79 39.83 11.79 39.83C11.79 39.83 12.67 38.66 13.61 38.11C14.69 37.47 16.59 37.15 17.01 36.69L17 36.68Z" fill="#F9BD64"/>
<path d="M15.56 27.11C15.88 27.33 16.32 27.3 16.57 26.99C16.82 26.68 16.77 26.23 16.46 25.98C16.33 25.87 16.17 25.83 16.01 25.83C15.77 25.85 15.26 25.78 14.84 24.98C13.76 22.9 11.72 22.37 11.72 22.37C11.72 22.37 13 23.08 13.68 23.94C14.46 24.92 15.04 26.75 15.56 27.11Z" fill="#F9BD64"/>
<path d="M14.76 27.29C15.09 27.5 15.23 27.92 15.04 28.27C14.85 28.62 14.41 28.75 14.07 28.56C13.92 28.48 13.82 28.35 13.76 28.2C13.69 27.98 13.44 27.53 12.54 27.45C10.21 27.25 8.92999 25.56 8.92999 25.56C8.92999 25.56 10.08 26.47 11.13 26.77C12.33 27.12 14.25 26.95 14.78 27.29H14.76Z" fill="#F9BD64"/>
<path d="M14.58 31.03C14.97 30.99 15.28 30.67 15.26 30.28C15.24 29.88 14.91 29.57 14.51 29.59C14.34 29.59 14.19 29.67 14.07 29.77C13.9 29.94 13.48 30.23 12.64 29.9C10.46 29.05 8.56999 30 8.56999 30C8.56999 30 9.99999 29.69 11.08 29.88C12.31 30.1 13.96 31.1 14.58 31.03Z" fill="#F9BD64"/>
<path d="M31.76 34.27C31.37 34.23 31.06 33.92 31.07 33.52C31.08 33.12 31.42 32.81 31.81 32.82C31.98 32.82 32.13 32.9 32.25 33C32.42 33.17 32.85 33.45 33.68 33.12C35.86 32.25 37.75 33.18 37.75 33.18C37.75 33.18 36.32 32.88 35.24 33.09C34.01 33.32 32.37 34.33 31.75 34.27H31.76Z" fill="#F9BD64"/>
<path d="M30.92 35.42C30.53 35.37 30.16 35.59 30.07 35.98C29.99 36.37 30.23 36.75 30.62 36.83C30.79 36.86 30.95 36.83 31.09 36.76C31.3 36.64 31.78 36.46 32.51 36.99C34.41 38.36 36.48 37.92 36.48 37.92C36.48 37.92 35.02 37.86 34.02 37.41C32.88 36.89 31.54 35.51 30.91 35.42H30.92Z" fill="#F9BD64"/>
<path d="M28.18 27.62C27.86 27.84 27.42 27.81 27.17 27.5C26.92 27.19 26.97 26.74 27.28 26.49C27.41 26.38 27.57 26.34 27.73 26.34C27.97 26.36 28.48 26.29 28.9 25.49C29.98 23.41 32.02 22.88 32.02 22.88C32.02 22.88 30.74 23.59 30.06 24.45C29.28 25.43 28.7 27.26 28.18 27.62Z" fill="#F9BD64"/>
<path d="M29.15 27.29C28.82 27.5 28.68 27.92 28.87 28.27C29.06 28.62 29.5 28.75 29.84 28.56C29.99 28.48 30.09 28.35 30.15 28.2C30.22 27.98 30.47 27.53 31.37 27.45C33.71 27.25 34.98 25.56 34.98 25.56C34.98 25.56 33.83 26.47 32.78 26.77C31.58 27.12 29.66 26.95 29.13 27.29H29.15Z" fill="#F9BD64"/>
<path d="M31.59 24.2C31.32 24.38 31.23 24.77 31.43 25.12C31.63 25.47 32.01 25.63 32.29 25.47C32.41 25.4 32.49 25.29 32.53 25.15C32.57 24.94 32.76 24.53 33.53 24.52C35.53 24.5 36.51 22.98 36.51 22.98C36.51 22.98 35.59 23.77 34.7 23.98C33.69 24.22 32.02 23.92 31.59 24.21V24.2Z" fill="#F8E5DE"/>
<path d="M33.01 27.66C32.74 27.84 32.65 28.23 32.85 28.58C33.05 28.93 33.43 29.09 33.71 28.93C33.83 28.86 33.91 28.75 33.95 28.61C33.99 28.4 34.18 27.99 34.95 27.98C36.95 27.96 37.93 26.44 37.93 26.44C37.93 26.44 37.01 27.23 36.12 27.44C35.11 27.68 33.44 27.38 33.01 27.67V27.66Z" fill="#F8E5DE"/>
<path d="M34.63 30.57C34.31 30.64 34.1 30.97 34.15 31.37C34.21 31.76 34.51 32.05 34.83 32C34.97 31.98 35.09 31.9 35.17 31.78C35.29 31.6 35.61 31.28 36.33 31.55C38.21 32.24 39.66 31.16 39.66 31.16C39.66 31.16 38.52 31.57 37.62 31.46C36.59 31.33 35.13 30.46 34.63 30.57Z" fill="#F8E5DE"/>
<path d="M34.78 34.32C34.46 34.32 34.18 34.61 34.15 35.01C34.12 35.41 34.37 35.75 34.69 35.76C34.83 35.76 34.96 35.71 35.07 35.62C35.22 35.47 35.6 35.22 36.26 35.62C37.97 36.67 39.6 35.9 39.6 35.9C39.6 35.9 38.4 36.07 37.54 35.78C36.55 35.45 35.3 34.3 34.78 34.31V34.32Z" fill="#F8E5DE"/>
<path d="M34.13 39.31C33.81 39.23 33.47 39.43 33.35 39.81C33.23 40.19 33.37 40.58 33.68 40.68C33.81 40.72 33.95 40.7 34.08 40.64C34.27 40.53 34.7 40.39 35.23 40.95C36.61 42.4 38.38 42.08 38.38 42.08C38.38 42.08 37.18 41.94 36.42 41.44C35.55 40.87 34.64 39.44 34.13 39.32V39.31Z" fill="#F8E5DE"/>
<path d="M12.79 41.91C13.04 41.71 13.1 41.32 12.88 40.98C12.66 40.65 12.26 40.53 11.99 40.7C11.87 40.78 11.8 40.9 11.77 41.04C11.74 41.25 11.59 41.68 10.83 41.75C8.83999 41.94 7.98999 43.53 7.98999 43.53C7.98999 43.53 8.83999 42.67 9.70999 42.38C10.7 42.05 12.39 42.21 12.79 41.89V41.91Z" fill="#F8E5DE"/>
<path d="M11.04 38.9C11.29 38.7 11.35 38.31 11.13 37.97C10.91 37.64 10.51 37.52 10.24 37.69C10.12 37.77 10.05 37.89 10.02 38.03C9.98999 38.24 9.83999 38.67 9.07999 38.74C7.08999 38.93 6.23999 40.52 6.23999 40.52C6.23999 40.52 7.08999 39.66 7.95999 39.37C8.94999 39.04 10.64 39.2 11.04 38.88V38.9Z" fill="#F8E5DE"/>
<path d="M10.27 28.97C10.58 28.88 10.78 28.54 10.7 28.14C10.62 27.75 10.3 27.48 9.97999 27.55C9.83999 27.58 9.72999 27.67 9.64999 27.78C9.53999 27.97 9.23999 28.3 8.50999 28.08C6.58999 27.5 5.20999 28.66 5.20999 28.66C5.20999 28.66 6.31999 28.19 7.22999 28.25C8.26999 28.32 9.76999 29.11 10.27 28.96V28.97Z" fill="#F8E5DE"/>
<path d="M30.72 40.38C30.57 40.09 30.67 39.71 31.01 39.49C31.35 39.27 31.76 39.32 31.94 39.59C32.02 39.71 32.03 39.85 32 39.99C31.94 40.2 31.91 40.65 32.58 41.02C34.34 41.98 34.48 43.78 34.48 43.78C34.48 43.78 34.04 42.65 33.36 42.05C32.58 41.36 30.97 40.84 30.72 40.38Z" fill="#F8E5DE"/>
<path d="M25.17 43.6C25.14 43.28 25.39 42.97 25.78 42.9C26.17 42.83 26.54 43.04 26.59 43.36C26.61 43.5 26.57 43.63 26.49 43.75C26.35 43.92 26.14 44.32 26.62 44.93C27.86 46.51 27.28 48.22 27.28 48.22C27.28 48.22 27.32 47.01 26.93 46.18C26.49 45.24 25.21 44.12 25.16 43.61L25.17 43.6Z" fill="#F8E5DE"/>
<path d="M15.4 41.9C15.68 41.73 16.07 41.82 16.3 42.15C16.53 42.48 16.5 42.89 16.24 43.08C16.13 43.16 15.99 43.18 15.84 43.16C15.62 43.11 15.17 43.1 14.83 43.79C13.94 45.59 12.15 45.81 12.15 45.81C12.15 45.81 13.26 45.32 13.83 44.61C14.49 43.8 14.94 42.17 15.38 41.9H15.4Z" fill="#F8E5DE"/>
<path d="M21.5 18.27C21.48 18.59 21.18 18.86 20.79 18.87C20.39 18.87 20.06 18.62 20.06 18.29C20.06 18.15 20.12 18.02 20.22 17.92C20.39 17.77 20.65 17.41 20.28 16.74C19.31 14.99 20.14 13.39 20.14 13.39C20.14 13.39 19.91 14.58 20.17 15.46C20.46 16.46 21.55 17.76 21.51 18.28L21.5 18.27Z" fill="#F8E5DE"/>
<path d="M25.11 18.48C25 18.76 24.64 18.91 24.26 18.8C23.88 18.69 23.64 18.36 23.72 18.07C23.76 17.95 23.85 17.85 23.97 17.79C24.17 17.71 24.53 17.46 24.35 16.76C23.91 14.92 25.15 13.76 25.15 13.76C25.15 13.76 24.6 14.75 24.6 15.6C24.6 16.57 25.28 18.05 25.1 18.49L25.11 18.48Z" fill="#F8E5DE"/>
<path d="M18.78 44.11C18.97 43.85 19.36 43.78 19.7 43.98C20.04 44.19 20.18 44.58 20.01 44.86C19.94 44.98 19.82 45.06 19.68 45.09C19.46 45.13 19.04 45.3 19 46.07C18.9 48.07 17.34 48.98 17.34 48.98C17.34 48.98 18.16 48.09 18.41 47.21C18.69 46.21 18.46 44.53 18.76 44.11H18.78Z" fill="#F8E5DE"/>
<path d="M7.93 30.55C8.25 30.57 8.52 30.86 8.53 31.26C8.54 31.66 8.28 31.99 7.96 31.99C7.82 31.99 7.69 31.93 7.59 31.83C7.44 31.67 7.08 31.41 6.41 31.79C4.67 32.77 3.06 31.95 3.06 31.95C3.06 31.95 4.25 32.17 5.12 31.91C6.12 31.61 7.41 30.51 7.93 30.55Z" fill="#F8E5DE"/>
<path d="M8.32999 33.95C8.64999 33.97 8.91999 34.26 8.92999 34.66C8.93999 35.06 8.67999 35.39 8.35999 35.39C8.21999 35.39 8.08999 35.33 7.98999 35.23C7.83999 35.07 7.47999 34.81 6.80999 35.19C5.06999 36.17 3.45999 35.35 3.45999 35.35C3.45999 35.35 4.64999 35.57 5.51999 35.31C6.51999 35.01 7.80999 33.91 8.32999 33.95Z" fill="#F8E5DE"/>
<path d="M28.19 22.53C28 22.87 28.07 23.3 28.4 23.52C28.73 23.74 29.18 23.65 29.4 23.32C29.49 23.18 29.53 23.01 29.51 22.86C29.46 22.63 29.48 22.11 30.24 21.62C32.21 20.35 32.55 18.27 32.55 18.27C32.55 18.27 31.96 19.61 31.17 20.37C30.27 21.24 28.5 21.99 28.19 22.53Z" fill="#F8E5DE"/>
<path d="M26.83 19.42C26.64 19.76 26.71 20.19 27.04 20.41C27.37 20.63 27.82 20.54 28.04 20.21C28.13 20.07 28.17 19.9 28.15 19.75C28.1 19.52 28.12 19 28.88 18.51C30.85 17.24 30.3 17.12 30.3 17.12C30.3 17.12 30.6 16.5 29.81 17.26C28.91 18.13 27.14 18.88 26.83 19.42Z" fill="#F8E5DE"/>
<path d="M11.98 25.86C12.26 26.05 12.66 25.99 12.91 25.68C13.16 25.37 13.15 24.94 12.88 24.73C12.76 24.64 12.62 24.6 12.48 24.62C12.26 24.65 11.79 24.62 11.46 23.89C10.61 21.99 8.76999 21.62 8.76999 21.62C8.76999 21.62 9.88999 22.21 10.46 22.98C11.11 23.86 11.52 25.56 11.97 25.86H11.98Z" fill="#F8E5DE"/>
<path d="M14.36 22.86C14.64 23.05 15.04 22.99 15.29 22.68C15.54 22.37 15.53 21.94 15.26 21.73C15.14 21.64 15 21.6 14.86 21.62C14.64 21.65 14.17 21.62 13.84 20.89C12.99 18.99 11.15 18.62 11.15 18.62C11.15 18.62 12.27 19.21 12.84 19.98C13.49 20.86 13.9 22.56 14.35 22.86H14.36Z" fill="#F8E5DE"/>
<path d="M16.9 20.67C17.1 20.95 17.49 21.03 17.84 20.83C18.19 20.63 18.32 20.22 18.14 19.93C18.06 19.8 17.94 19.72 17.8 19.68C17.58 19.63 17.15 19.45 17.1 18.65C16.96 16.57 15.37 15.58 15.37 15.58C15.37 15.58 16.22 16.53 16.48 17.44C16.78 18.49 16.57 20.22 16.89 20.67H16.9Z" fill="#F8E5DE"/>
<path d="M31.29 30.86C30.9 30.82 30.59 30.5 30.61 30.11C30.63 29.71 30.96 29.4 31.36 29.42C31.53 29.42 31.68 29.5 31.8 29.6C31.97 29.77 32.39 30.06 33.23 29.73C35.41 28.88 37.3 29.83 37.3 29.83C37.3 29.83 35.87 29.52 34.79 29.71C33.56 29.93 31.91 30.93 31.29 30.86Z" fill="#F9BD64"/>
<path d="M21.03 22.48C21.02 22.87 21.28 23.22 21.68 23.26C22.08 23.3 22.43 23.01 22.47 22.62C22.49 22.45 22.44 22.29 22.35 22.16C22.2 21.97 21.97 21.51 22.41 20.72C23.56 18.68 22.9 16.68 22.9 16.68C22.9 16.68 23 18.14 22.66 19.18C22.27 20.37 21.04 21.86 21.03 22.48Z" fill="#F9BD64"/>
<path d="M24.4 22.62C24.4 23.01 24.69 23.35 25.09 23.36C25.49 23.37 25.83 23.07 25.84 22.68C25.84 22.51 25.79 22.35 25.7 22.23C25.54 22.05 25.29 21.6 25.69 20.79C26.73 18.69 25.96 16.73 25.96 16.73C25.96 16.73 26.14 18.18 25.85 19.24C25.52 20.45 24.38 22 24.4 22.63V22.62Z" fill="#F9BD64"/>
<path d="M20.61 25.34C20.61 25.73 20.34 26.08 19.94 26.1C19.54 26.12 19.2 25.83 19.17 25.44C19.16 25.27 19.21 25.11 19.3 24.98C19.46 24.79 19.69 24.34 19.27 23.54C18.17 21.47 18.88 19.49 18.88 19.49C18.88 19.49 18.74 20.95 19.06 21.99C19.42 23.19 20.61 24.7 20.61 25.33V25.34Z" fill="#F9BD64"/>
<path d="M26.37 25.96C26.11 26.25 25.68 26.33 25.36 26.08C25.04 25.84 24.99 25.38 25.23 25.07C25.33 24.94 25.48 24.85 25.63 24.82C25.87 24.78 26.35 24.6 26.57 23.72C27.13 21.45 28.99 20.45 28.99 20.45C28.99 20.45 27.91 21.44 27.45 22.43C26.92 23.56 26.79 25.48 26.37 25.95V25.96Z" fill="#F9BD64"/>
<path d="M17.04 24.91C17.29 25.21 17.72 25.3 18.04 25.07C18.36 24.84 18.44 24.39 18.21 24.07C18.11 23.93 17.97 23.84 17.82 23.8C17.58 23.75 17.1 23.55 16.92 22.67C16.44 20.38 14.62 19.31 14.62 19.31C14.62 19.31 15.66 20.34 16.09 21.35C16.58 22.5 16.64 24.43 17.04 24.91Z" fill="#F9BD64"/>
<path d="M24.25 49.46L24.49 49.29C24.43 48.77 24.25 48.19 23.84 47.6C23.4 46.97 23.63 46.58 23.78 46.42C23.87 46.31 23.92 46.18 23.9 46.04C23.86 45.72 23.51 45.49 23.11 45.54C22.71 45.59 22.45 45.88 22.46 46.21C22.48 46.73 23.7 47.91 24.09 48.87C24.17 49.06 24.22 49.26 24.26 49.47L24.25 49.46Z" fill="#F8E5DE"/>
</svg>
