<svg width="44" height="53" viewBox="0 0 44 53" fill="none" xmlns="http://www.w3.org/2000/svg">
<path d="M25.34 4.23C28.12 1.23 24.58 0.410002 22.28 1C19.99 1.6 19.9 12.07 19.9 12.07C10.1 14.02 0.359985 25.73 0.359985 35.68C0.359985 46.63 10.94 52.34 21.89 52.34C32.84 52.34 43.42 46.63 43.42 35.68C43.42 25.74 33.68 14.02 23.88 12.07C23.88 12.07 22.12 7.72 25.35 4.23H25.34Z" fill="#4C2B70"/>
<path d="M0.359985 35.67C0.359985 37.89 0.799987 39.89 1.57999 41.67C5.68999 45.42 11.91 47.34 18.26 47.34C29.21 47.34 39.79 41.63 39.79 30.68C39.79 27.17 38.57 23.44 36.57 19.99C33.01 16 28.45 12.97 23.87 12.06H19.9C10.1 14.01 0.359985 25.72 0.359985 35.67Z" fill="#64428B"/>
<path d="M20.33 27.32C20.33 30.7 17.46 33.44 13.91 33.44C10.36 33.44 7.48999 30.7 7.48999 27.32C7.48999 23.94 10.36 21.2 13.91 21.2C17.46 21.2 20.33 23.94 20.33 27.32Z" fill="#8658BA"/>
</svg>
