<svg width="83" height="55" viewBox="0 0 83 55" fill="none" xmlns="http://www.w3.org/2000/svg">
<path d="M27.02 26.89C27.02 26.89 24.84 22.66 21.25 20.11C17.66 17.56 14.41 18.34 14.41 18.34L16.78 22.37C16.78 22.37 14.43 21.52 9.64 23.42C4.85 25.32 0.509995 28.73 0.509995 28.73L8.95 31.88C8.95 31.88 6.54 33.17 4.89 36.12C3.41 38.77 3.03 41.53 3.03 41.53C3.03 41.53 6.17 43.54 11.3 43.61C16.9 43.69 19.66 41.88 19.66 41.88C19.66 41.88 19.61 45.22 19.77 46.29C19.94 47.36 20.42 47.99 20.42 47.99C20.42 47.99 22.25 48.09 25.37 46.76C28.5 45.43 31.05 42.03 31.05 42.03L32.73 33.96L27 26.9L27.02 26.89Z" fill="#50A822"/>
<path d="M26.15 17.52C25.88 17.52 25.62 17.43 25.4 17.25C25.36 17.22 21.43 13.92 18.05 13.33C12.81 12.41 11.28 14.13 11.26 14.14C10.88 14.66 10.17 14.75 9.65 14.37C9.13 13.99 9.03001 13.25 9.41001 12.73C9.63001 12.43 11.73 9.86001 18.45 11.03C22.45 11.73 26.72 15.32 26.9 15.47C27.39 15.88 27.45 16.62 27.03 17.11C26.8 17.38 26.47 17.52 26.14 17.52H26.15Z" fill="#7A663A"/>
<path d="M42.26 18.45C46.7501 18.45 50.39 14.8101 50.39 10.32C50.39 5.82993 46.7501 2.19 42.26 2.19C37.7699 2.19 34.13 5.82993 34.13 10.32C34.13 14.8101 37.7699 18.45 42.26 18.45Z" fill="#172942"/>
<path d="M36.2494 24.0318C37.2777 19.6611 34.5682 15.2843 30.1975 14.2559C25.8267 13.2275 21.4499 15.9371 20.4216 20.3078C19.3932 24.6785 22.1027 29.0553 26.4734 30.0837C30.8442 31.1121 35.221 28.4025 36.2494 24.0318Z" fill="#172942"/>
<path d="M34.2092 18.6224C38.3611 16.9128 40.3409 12.1612 38.6313 8.00928C36.9218 3.8574 32.1701 1.87753 28.0182 3.58712C23.8663 5.2967 21.8865 10.0483 23.5961 14.2002C25.3057 18.3521 30.0573 20.332 34.2092 18.6224Z" fill="#172942"/>
<path d="M38.4763 44.7252C41.6513 41.5503 41.6513 36.4027 38.4763 33.2277C35.3014 30.0527 30.1538 30.0527 26.9788 33.2277C23.8038 36.4027 23.8038 41.5503 26.9788 44.7252C30.1538 47.9002 35.3014 47.9002 38.4763 44.7252Z" fill="#0A131F"/>
<path d="M32.73 30.84C28.24 30.84 24.6 34.48 24.6 38.97C24.6 40.71 25.15 42.32 26.08 43.64C27.4 44.57 29.01 45.12 30.75 45.12C35.24 45.12 38.88 41.48 38.88 36.99C38.88 35.25 38.33 33.64 37.4 32.32C36.08 31.39 34.47 30.84 32.73 30.84Z" fill="#172942"/>
<path d="M55.7399 39.6879C59.8918 37.9783 61.8716 33.2266 60.1621 29.0748C58.4525 24.9229 53.7008 22.943 49.549 24.6526C45.3971 26.3622 43.4172 31.1138 45.1268 35.2657C46.8364 39.4176 51.588 41.3975 55.7399 39.6879Z" fill="#172942"/>
<path d="M76.1922 49.0129C79.6024 46.0921 79.9991 40.9597 77.0783 37.5495C74.1574 34.1393 69.0251 33.7426 65.6149 36.6634C62.2047 39.5843 61.808 44.7166 64.7288 48.1268C67.6497 51.537 72.782 51.9337 76.1922 49.0129Z" fill="#0A131F"/>
<path d="M70.91 34.72C66.42 34.72 62.78 38.36 62.78 42.85C62.78 44.59 63.33 46.2 64.26 47.52C65.58 48.45 67.19 49 68.93 49C73.42 49 77.06 45.36 77.06 40.87C77.06 39.13 76.51 37.52 75.58 36.2C74.26 35.27 72.65 34.72 70.91 34.72Z" fill="#172942"/>
<path d="M71.92 41.1C71.92 42.34 70.91 43.35 69.67 43.35C68.43 43.35 67.42 42.34 67.42 41.1C67.42 39.86 68.43 38.85 69.67 38.85C70.91 38.85 71.92 39.86 71.92 41.1Z" fill="#335C94"/>
<path d="M74.4721 38.6988C77.5257 35.4069 77.3326 30.2629 74.0407 27.2093C70.7489 24.1557 65.6049 24.3488 62.5513 27.6406C59.4976 30.9325 59.6907 36.0765 62.9826 39.1301C66.2744 42.1837 71.4184 41.9906 74.4721 38.6988Z" fill="#0A131F"/>
<path d="M68.51 25.03C64.02 25.03 60.38 28.67 60.38 33.16C60.38 34.9 60.93 36.51 61.86 37.83C63.18 38.76 64.79 39.31 66.53 39.31C71.02 39.31 74.66 35.67 74.66 31.18C74.66 29.44 74.11 27.83 73.18 26.51C71.86 25.58 70.25 25.03 68.51 25.03Z" fill="#172942"/>
<path d="M62.779 47.2018C66.9309 45.4922 68.9108 40.7405 67.2012 36.5886C65.4916 32.4368 60.74 30.4569 56.5881 32.1665C52.4362 33.8761 50.4563 38.6277 52.1659 42.7796C53.8755 46.9315 58.6272 48.9113 62.779 47.2018Z" fill="#0A131F"/>
<path d="M59.68 31.54C55.19 31.54 51.55 35.18 51.55 39.67C51.55 41.41 52.1 43.02 53.03 44.34C54.35 45.27 55.96 45.82 57.7 45.82C62.19 45.82 65.83 42.18 65.83 37.69C65.83 35.95 65.28 34.34 64.35 33.02C63.03 32.09 61.42 31.54 59.68 31.54Z" fill="#172942"/>
<path d="M52.41 40.57C51.36 44.94 46.96 47.62 42.6 46.57C38.23 45.52 35.55 41.12 36.6 36.76C37.65 32.39 42.05 29.71 46.41 30.76C50.78 31.81 53.46 36.21 52.41 40.57Z" fill="#0A131F"/>
<path d="M46.41 30.76C42.04 29.71 37.65 32.39 36.6 36.76C36.19 38.45 36.35 40.15 36.95 41.65C38.02 42.87 39.45 43.78 41.14 44.19C45.51 45.24 49.9 42.56 50.95 38.19C51.36 36.5 51.2 34.8 50.6 33.3C49.53 32.08 48.1 31.17 46.41 30.76Z" fill="#172942"/>
<path d="M67.58 32.43C68.8226 32.43 69.83 31.4226 69.83 30.18C69.83 28.9374 68.8226 27.93 67.58 27.93C66.3373 27.93 65.33 28.9374 65.33 30.18C65.33 31.4226 66.3373 32.43 67.58 32.43Z" fill="#335C94"/>
<path d="M59.49 37.62C59.49 38.86 58.48 39.87 57.24 39.87C56 39.87 54.99 38.86 54.99 37.62C54.99 36.38 56 35.37 57.24 35.37C58.48 35.37 59.49 36.38 59.49 37.62Z" fill="#335C94"/>
<path d="M59.18 37.31C63.6701 37.31 67.31 33.6701 67.31 29.18C67.31 24.6899 63.6701 21.05 59.18 21.05C54.6899 21.05 51.05 24.6899 51.05 29.18C51.05 33.6701 54.6899 37.31 59.18 37.31Z" fill="#0A131F"/>
<path d="M59.18 21.05C54.69 21.05 51.05 24.69 51.05 29.18C51.05 30.92 51.6 32.53 52.53 33.85C53.85 34.78 55.46 35.33 57.2 35.33C61.69 35.33 65.33 31.69 65.33 27.2C65.33 25.46 64.78 23.85 63.85 22.53C62.53 21.6 60.92 21.05 59.18 21.05Z" fill="#172942"/>
<path d="M59.37 28.44C59.37 29.68 58.36 30.69 57.12 30.69C55.88 30.69 54.87 29.68 54.87 28.44C54.87 27.2 55.88 26.19 57.12 26.19C58.36 26.19 59.37 27.2 59.37 28.44Z" fill="#335C94"/>
<path d="M44.62 37.27C44.62 38.51 43.61 39.52 42.37 39.52C41.13 39.52 40.12 38.51 40.12 37.27C40.12 36.03 41.13 35.02 42.37 35.02C43.61 35.02 44.62 36.03 44.62 37.27Z" fill="#335C94"/>
<path d="M32.19 36.69C32.19 37.93 31.18 38.94 29.94 38.94C28.7 38.94 27.69 37.93 27.69 36.69C27.69 35.45 28.7 34.44 29.94 34.44C31.18 34.44 32.19 35.45 32.19 36.69Z" fill="#335C94"/>
<path d="M60.45 18.61C61.69 22.93 59.19 27.43 54.87 28.67C50.55 29.91 46.05 27.41 44.81 23.09C43.57 18.77 46.07 14.27 50.39 13.03C54.71 11.79 59.21 14.29 60.45 18.61Z" fill="#0A131F"/>
<path d="M50.4 13.03C46.08 14.27 43.58 18.77 44.82 23.09C45.3 24.76 46.27 26.16 47.53 27.17C49.06 27.7 50.76 27.79 52.43 27.31C56.75 26.07 59.25 21.57 58.01 17.25C57.53 15.58 56.56 14.18 55.3 13.17C53.77 12.64 52.07 12.55 50.4 13.03Z" fill="#172942"/>
<path d="M48.53 30.24C47.67 34.65 43.39 37.52 38.98 36.65C34.57 35.79 31.7 31.51 32.57 27.1C33.43 22.69 37.71 19.82 42.12 20.69C46.53 21.55 49.4 25.83 48.53 30.24Z" fill="#0A131F"/>
<path d="M42.12 20.69C37.71 19.83 33.44 22.7 32.57 27.1C32.23 28.81 32.47 30.49 33.13 31.97C34.25 33.14 35.72 33.99 37.43 34.33C41.84 35.19 46.11 32.32 46.98 27.92C47.32 26.21 47.08 24.53 46.42 23.05C45.3 21.88 43.83 21.03 42.12 20.69Z" fill="#172942"/>
<path d="M32.47 33.09C30.93 37.31 26.26 39.48 22.04 37.93C17.82 36.38 15.65 31.72 17.2 27.5C18.74 23.28 23.41 21.11 27.63 22.66C31.85 24.2 34.02 28.87 32.47 33.09Z" fill="#0A131F"/>
<path d="M27.63 22.66C23.41 21.12 18.74 23.29 17.2 27.5C16.6 29.14 16.57 30.84 16.99 32.4C17.91 33.73 19.23 34.8 20.87 35.4C25.09 36.94 29.76 34.77 31.3 30.56C31.9 28.92 31.93 27.22 31.51 25.66C30.59 24.33 29.27 23.26 27.63 22.66Z" fill="#172942"/>
<path d="M39.47 26.82C39.47 28.06 38.46 29.07 37.22 29.07C35.98 29.07 34.97 28.06 34.97 26.82C34.97 25.58 35.98 24.57 37.22 24.57C38.46 24.57 39.47 25.58 39.47 26.82Z" fill="#335C94"/>
<path d="M46.3197 18.9952C47.348 14.6244 44.6385 10.2476 40.2678 9.21927C35.8971 8.1909 31.5202 10.9004 30.4919 15.2711C29.4635 19.6419 32.173 24.0187 36.5437 25.047C40.9145 26.0754 45.2913 23.3659 46.3197 18.9952Z" fill="#0A131F"/>
<path d="M38.39 9C33.9 9 30.26 12.64 30.26 17.13C30.26 18.87 30.81 20.48 31.74 21.8C33.06 22.73 34.67 23.28 36.41 23.28C40.9 23.28 44.54 19.64 44.54 15.15C44.54 13.41 43.99 11.8 43.06 10.48C41.74 9.55 40.13 9 38.39 9Z" fill="#172942"/>
<path d="M37.3 15.2C37.3 16.44 36.29 17.45 35.05 17.45C33.81 17.45 32.8 16.44 32.8 15.2C32.8 13.96 33.81 12.95 35.05 12.95C36.29 12.95 37.3 13.96 37.3 15.2Z" fill="#335C94"/>
<path d="M24.76 27.28C24.76 28.52 23.75 29.53 22.51 29.53C21.27 29.53 20.26 28.52 20.26 27.28C20.26 26.04 21.27 25.03 22.51 25.03C23.75 25.03 24.76 26.04 24.76 27.28Z" fill="#335C94"/>
<path d="M49.77 21.17C51.0126 21.17 52.02 20.1626 52.02 18.92C52.02 17.6774 51.0126 16.67 49.77 16.67C48.5273 16.67 47.52 17.6774 47.52 18.92C47.52 20.1626 48.5273 21.17 49.77 21.17Z" fill="#335C94"/>
</svg>
