<svg width="81" height="47" viewBox="0 0 81 47" fill="none" xmlns="http://www.w3.org/2000/svg">
<path d="M26.51 24.75C26.51 24.75 24.33 20.52 20.74 17.97C17.15 15.42 13.9 16.2 13.9 16.2L16.27 20.23C16.27 20.23 13.92 19.37 9.13 21.28C4.34 23.18 0 26.59 0 26.59L8.44 29.74C8.44 29.74 6.03 31.03 4.38 33.98C2.9 36.63 2.52 39.39 2.52 39.39C2.52 39.39 5.66 41.4 10.79 41.47C16.39 41.55 19.15 39.74 19.15 39.74C19.15 39.74 19.1 43.08 19.26 44.15C19.43 45.22 19.91 45.85 19.91 45.85C19.91 45.85 21.74 45.95 24.86 44.62C27.99 43.29 30.54 39.89 30.54 39.89L32.22 31.82L26.49 24.76L26.51 24.75Z" fill="#50A822"/>
<path d="M25.63 15.39C25.36 15.39 25.1 15.3 24.88 15.11C24.84 15.08 20.91 11.78 17.53 11.19C12.29 10.27 10.76 11.99 10.74 12C10.36 12.52 9.65 12.61 9.13 12.23C8.61 11.85 8.51 11.11 8.89 10.59C9.11 10.29 11.21 7.72 17.93 8.89C21.93 9.59 26.2 13.18 26.38 13.33C26.87 13.74 26.93 14.48 26.51 14.97C26.28 15.24 25.95 15.38 25.62 15.38L25.63 15.39Z" fill="#7A663A"/>
<path d="M80.33 42C79.36 45.55 74.69 47.36 69.91 46.05C65.13 44.74 62.05 40.8 63.02 37.25C63.99 33.7 68.66 31.89 73.44 33.2C78.22 34.51 81.3 38.45 80.33 42Z" fill="#A2C83A"/>
<path d="M63.02 37.25C62.66 38.55 62.85 39.89 63.47 41.15C64.69 42.34 66.34 43.3 68.27 43.84C73.05 45.15 77.71 43.34 78.69 39.79C79.05 38.49 78.86 37.15 78.24 35.89C77.02 34.7 75.37 33.74 73.44 33.2C68.66 31.89 64 33.7 63.02 37.25Z" fill="#AEDE2F"/>
<path d="M58.8 26.85C58.8 30.53 54.78 33.51 49.83 33.51C44.88 33.51 40.86 30.53 40.86 26.85C40.86 23.17 44.88 20.19 49.83 20.19C54.78 20.19 58.8 23.17 58.8 26.85Z" fill="#AEDE2F"/>
<path d="M40.95 7.33C40.95 11.01 36.93 13.99 31.98 13.99C27.03 13.99 23.01 11.01 23.01 7.33C23.01 3.65 27.03 0.669998 31.98 0.669998C36.93 0.669998 40.95 3.65 40.95 7.33Z" fill="#AEDE2F"/>
<path d="M37.31 18.29C37.31 21.97 33.29 24.95 28.34 24.95C23.39 24.95 19.37 21.97 19.37 18.29C19.37 14.61 23.39 11.63 28.34 11.63C33.29 11.63 37.31 14.61 37.31 18.29Z" fill="#AEDE2F"/>
<path d="M73.28 38.23C73.21 39.09 72 39.71 70.56 39.6C69.12 39.49 68.01 38.7 68.07 37.84C68.13 36.98 69.35 36.36 70.79 36.47C72.23 36.58 73.34 37.37 73.28 38.23Z" fill="#D4FF63"/>
<path d="M42.65 37.23C42.65 40.91 38.63 43.89 33.68 43.89C28.73 43.89 24.71 40.91 24.71 37.23C24.71 33.55 28.73 30.57 33.68 30.57C38.63 30.57 42.65 33.55 42.65 37.23Z" fill="#A2C83A"/>
<path d="M24.71 37.23C24.71 38.57 25.25 39.82 26.17 40.87C27.66 41.69 29.51 42.19 31.51 42.19C36.47 42.19 40.48 39.21 40.48 35.53C40.48 34.19 39.94 32.94 39.02 31.89C37.53 31.07 35.68 30.57 33.68 30.57C28.72 30.57 24.71 33.55 24.71 37.23Z" fill="#AEDE2F"/>
<path d="M77.46 30.6C77.46 34.28 73.44 37.26 68.49 37.26C63.54 37.26 59.52 34.28 59.52 30.6C59.52 26.92 63.54 23.94 68.49 23.94C73.44 23.94 77.46 26.92 77.46 30.6Z" fill="#A2C83A"/>
<path d="M59.52 30.6C59.52 31.94 60.06 33.19 60.98 34.24C62.47 35.06 64.32 35.56 66.32 35.56C71.28 35.56 75.29 32.58 75.29 28.9C75.29 27.56 74.75 26.31 73.83 25.26C72.34 24.44 70.49 23.94 68.49 23.94C63.53 23.94 59.52 26.92 59.52 30.6Z" fill="#AEDE2F"/>
<path d="M71.3 28.94C71.23 29.8 70.02 30.42 68.58 30.31C67.14 30.2 66.03 29.41 66.09 28.55C66.15 27.69 67.37 27.07 68.81 27.18C70.25 27.29 71.36 28.08 71.3 28.94Z" fill="#D4FF63"/>
<path d="M66.57 40.98C65.29 44.43 60.48 45.82 55.84 44.09C51.2 42.36 48.47 38.16 49.76 34.72C51.04 31.27 55.85 29.88 60.49 31.61C65.13 33.34 67.86 37.54 66.57 40.98Z" fill="#A2C83A"/>
<path d="M49.75 34.71C49.28 35.97 49.35 37.33 49.85 38.63C50.96 39.92 52.52 41.03 54.4 41.73C59.04 43.46 63.85 42.07 65.13 38.62C65.6 37.36 65.53 36 65.03 34.7C63.92 33.41 62.36 32.3 60.48 31.6C55.84 29.87 51.03 31.26 49.75 34.71Z" fill="#AEDE2F"/>
<path d="M68.0781 27.0361C68.4632 23.3781 64.7815 19.9923 59.8547 19.4736C54.928 18.9549 50.6218 21.4998 50.2367 25.1578C49.8516 28.8158 53.5333 32.2017 58.4601 32.7204C63.3869 33.2391 67.693 30.6941 68.0781 27.0361Z" fill="#A2C83A"/>
<path d="M50.23 25.17C50.09 26.51 50.5 27.8 51.3 28.94C52.7 29.92 54.48 30.6 56.47 30.81C61.4 31.33 65.71 28.78 66.09 25.13C66.23 23.79 65.82 22.5 65.02 21.36C63.62 20.38 61.84 19.7 59.85 19.49C54.92 18.97 50.61 21.52 50.23 25.17Z" fill="#AEDE2F"/>
<path d="M53.65 36.61C53.65 40.29 49.63 43.27 44.68 43.27C39.73 43.27 35.71 40.29 35.71 36.61C35.71 32.93 39.73 29.95 44.68 29.95C49.63 29.95 53.65 32.93 53.65 36.61Z" fill="#A2C83A"/>
<path d="M35.7 36.61C35.7 37.95 36.24 39.2 37.16 40.25C38.65 41.07 40.5 41.57 42.5 41.57C47.46 41.57 51.47 38.59 51.47 34.91C51.47 33.57 50.93 32.32 50.01 31.27C48.52 30.45 46.67 29.95 44.67 29.95C39.71 29.95 35.7 32.93 35.7 36.61Z" fill="#AEDE2F"/>
<path d="M58.41 24.53C58.34 25.39 57.13 26.01 55.69 25.9C54.25 25.79 53.14 25 53.2 24.14C53.26 23.28 54.48 22.66 55.92 22.77C57.36 22.88 58.47 23.67 58.41 24.53Z" fill="#D4FF63"/>
<path d="M33.2 35.45C33.13 36.31 31.92 36.93 30.48 36.82C29.04 36.71 27.93 35.92 27.99 35.06C28.05 34.2 29.27 33.58 30.71 33.69C32.15 33.8 33.26 34.59 33.2 35.45Z" fill="#D4FF63"/>
<path d="M26.36 35.44C31.314 35.44 35.33 32.4582 35.33 28.78C35.33 25.1018 31.314 22.12 26.36 22.12C21.406 22.12 17.39 25.1018 17.39 28.78C17.39 32.4582 21.406 35.44 26.36 35.44Z" fill="#A2C83A"/>
<path d="M17.39 28.78C17.39 30.12 17.93 31.37 18.85 32.42C20.34 33.24 22.19 33.74 24.19 33.74C29.15 33.74 33.16 30.76 33.16 27.08C33.16 25.74 32.62 24.49 31.7 23.44C30.21 22.62 28.36 22.12 26.36 22.12C21.4 22.12 17.39 25.1 17.39 28.78Z" fill="#AEDE2F"/>
<path d="M60.75 18.22C60.02 21.82 55.49 23.95 50.63 22.96C45.77 21.97 42.43 18.25 43.16 14.65C43.89 11.05 48.42 8.92 53.28 9.91C58.14 10.9 61.48 14.62 60.75 18.22Z" fill="#A2C83A"/>
<path d="M43.16 14.65C42.89 15.97 43.17 17.3 43.87 18.51C45.17 19.61 46.88 20.47 48.84 20.86C53.7 21.85 58.23 19.72 58.96 16.12C59.23 14.8 58.95 13.47 58.25 12.26C56.95 11.16 55.24 10.3 53.28 9.91C48.42 8.92 43.89 11.05 43.16 14.65Z" fill="#AEDE2F"/>
<path d="M44.37 14.92C49.324 14.92 53.34 11.9382 53.34 8.25999C53.34 4.58178 49.324 1.60001 44.37 1.60001C39.416 1.60001 35.4 4.58178 35.4 8.25999C35.4 11.9382 39.416 14.92 44.37 14.92Z" fill="#AEDE2F"/>
<path d="M45.16 33.94C45.09 34.8 43.88 35.42 42.44 35.31C41 35.2 39.89 34.41 39.95 33.55C40.01 32.69 41.23 32.07 42.67 32.18C44.11 32.29 45.22 33.08 45.16 33.94Z" fill="#D4FF63"/>
<path d="M48.98 28.27C48.05 31.83 43.41 33.69 38.61 32.44C33.82 31.18 30.69 27.28 31.62 23.72C32.55 20.16 37.19 18.3 41.99 19.55C46.78 20.81 49.91 24.71 48.98 28.27Z" fill="#A2C83A"/>
<path d="M31.62 23.72C31.28 25.02 31.49 26.36 32.11 27.61C33.35 28.79 35 29.73 36.94 30.24C41.73 31.5 46.38 29.63 47.31 26.07C47.65 24.77 47.44 23.43 46.82 22.18C45.58 21 43.93 20.06 41.99 19.55C37.2 18.29 32.55 20.16 31.62 23.72Z" fill="#AEDE2F"/>
<path d="M39.7 23.71C39.63 24.57 38.42 25.19 36.98 25.08C35.54 24.97 34.43 24.18 34.49 23.32C34.55 22.46 35.77 21.84 37.21 21.95C38.65 22.06 39.76 22.85 39.7 23.71Z" fill="#D4FF63"/>
<path d="M48.28 18.71C47.35 22.27 42.71 24.13 37.91 22.88C33.12 21.62 29.99 17.72 30.92 14.16C31.85 10.6 36.49 8.74001 41.29 9.99001C46.08 11.25 49.21 15.15 48.28 18.71Z" fill="#A2C83A"/>
<path d="M30.92 14.16C30.58 15.46 30.79 16.8 31.41 18.05C32.65 19.23 34.3 20.17 36.24 20.68C41.03 21.94 45.68 20.07 46.61 16.51C46.95 15.21 46.74 13.87 46.12 12.62C44.88 11.44 43.23 10.5 41.29 9.99001C36.5 8.73001 31.85 10.6 30.92 14.16Z" fill="#AEDE2F"/>
<path d="M39.01 14.19C38.94 15.05 37.73 15.67 36.29 15.56C34.85 15.45 33.74 14.66 33.8 13.8C33.86 12.94 35.08 12.32 36.52 12.43C37.96 12.54 39.07 13.33 39.01 14.19Z" fill="#D4FF63"/>
<path d="M26.81 27.66C26.74 28.52 25.53 29.14 24.09 29.03C22.65 28.92 21.54 28.13 21.6 27.27C21.67 26.41 22.88 25.79 24.32 25.9C25.76 26.01 26.87 26.8 26.81 27.66Z" fill="#D4FF63"/>
<path d="M53.53 14.7C53.46 15.56 52.25 16.18 50.81 16.07C49.37 15.96 48.26 15.17 48.32 14.31C48.38 13.45 49.6 12.83 51.04 12.94C52.48 13.05 53.59 13.84 53.53 14.7Z" fill="#D4FF63"/>
<path d="M60.03 35.56C59.96 36.42 58.75 37.04 57.31 36.93C55.87 36.82 54.76 36.03 54.82 35.17C54.89 34.31 56.1 33.69 57.54 33.8C58.98 33.91 60.09 34.7 60.03 35.56Z" fill="#D4FF63"/>
</svg>
