<svg width="50" height="75" viewBox="0 0 50 75" fill="none" xmlns="http://www.w3.org/2000/svg">
<path d="M49.14 42.84C49.14 64.97 35.38 79.57 24.88 72.2C15.52 79.43 0.619995 65.82 0.619995 42.84C0.619995 29.44 12.11 23.69 24.02 27.1C37.64 23.7 49.13 29.45 49.13 42.84H49.14Z" fill="#A2C83A"/>
<path d="M23.04 27.09C23.04 27.03 22.65 20.36 19.64 16.74C16.18 12.59 10.34 13.02 10.3 13.03C9.13997 13.19 8.06 12.39 7.89 11.22C7.72 10.06 8.53 8.98 9.7 8.81C9.99 8.77 16.89 7.86 21.85 13.81C26 18.79 25.34 26.93 25.31 27.27C25.21 28.38 22.95 28.26 23.05 27.09H23.04Z" fill="#8D4706"/>
<path d="M40.73 17.02C35.36 23.1 25.32 23 25.32 23C25.32 23 23.97 13.04 29.34 6.97C34.71 0.890004 44.75 0.99 44.75 0.99C44.75 0.99 46.1 10.95 40.73 17.02Z" fill="#50A822"/>
<path d="M44.76 0.980003L25.33 22.99C25.33 22.99 35.38 23.09 40.74 17.01C46.11 10.93 44.76 0.980003 44.76 0.980003Z" fill="#578D38"/>
<path d="M41.34 45.39C41.34 37.02 36.64 29.77 29.79 26.2C27.94 26.31 26.01 26.61 24.04 27.1C12.12 23.7 0.640015 29.45 0.640015 42.84C0.640015 48.91 1.68001 54.21 3.39001 58.59C7.27001 63.67 13.33 66.95 20.15 66.95C31.86 66.95 41.36 57.3 41.36 45.39H41.34Z" fill="#AEDE2F"/>
<path d="M20.55 44.31C18.98 49.06 14.67 51.91 10.93 50.67C7.18999 49.43 5.43 44.58 7 39.83C8.57 35.08 12.88 32.23 16.62 33.47C20.36 34.71 22.12 39.56 20.55 44.31Z" fill="#CCED74"/>
</svg>
