<svg width="49" height="55" viewBox="0 0 49 55" fill="none" xmlns="http://www.w3.org/2000/svg">
<path d="M30.6 6.62C31.09 9.25 27.32 10.09 25.89 9.53C24.46 8.97 24.4 5.74001 25.42 4.60001C27.39 2.39001 31.57 2.3 31.57 2.3C31.57 2.3 30.25 4.75 30.6 6.63V6.62Z" fill="#C45627"/>
<path d="M27.97 4.77C29.88 6.64 27.28 9.5 25.79 9.86C24.3 10.23 22.39 7.62001 22.57 6.10001C22.91 3.15001 26.27 0.679993 26.27 0.679993C26.27 0.679993 26.6 3.44 27.97 4.78V4.77Z" fill="#C45627"/>
<path d="M20.63 4.77C18.72 6.64 21.32 9.5 22.81 9.86C24.3 10.23 26.21 7.62001 26.03 6.10001C25.69 3.15001 22.33 0.679993 22.33 0.679993C22.33 0.679993 22 3.44 20.63 4.78V4.77Z" fill="#C45627"/>
<path d="M18.49 6.57001C17.95 9.19001 21.71 10.1 23.15 9.57001C24.59 9.04001 24.71 5.81 23.71 4.64C21.78 2.39 17.6 2.22 17.6 2.22C17.6 2.22 18.87 4.69001 18.49 6.57001Z" fill="#C45627"/>
<path d="M24.58 54.47C37.9232 54.47 48.74 43.6532 48.74 30.31C48.74 16.9668 37.9232 6.14999 24.58 6.14999C11.2368 6.14999 0.419998 16.9668 0.419998 30.31C0.419998 43.6532 11.2368 54.47 24.58 54.47Z" fill="#990530"/>
<path d="M24.58 6.14999C11.24 6.14999 0.419998 10.07 0.419998 30.31C0.419998 35.79 2.25 40.85 5.33 44.9C9.38 47.98 14.44 49.81 19.92 49.81C33.26 49.81 44.08 38.99 44.08 25.65C44.08 18.55 42.69 13.44 40.3 9.8C36.08 7.03 30.59 6.14999 24.58 6.14999Z" fill="#C20632"/>
<path d="M17.27 28.19C21.5999 28.19 25.11 25.3918 25.11 21.94C25.11 18.4882 21.5999 15.69 17.27 15.69C12.9401 15.69 9.42999 18.4882 9.42999 21.94C9.42999 25.3918 12.9401 28.19 17.27 28.19Z" fill="#DE4557"/>
</svg>
