<svg width="61" height="48" viewBox="0 0 61 48" fill="none" xmlns="http://www.w3.org/2000/svg">
<path d="M35.44 39.13H23.06C12.52 39.13 3.97 30.58 3.97 20.04C3.97 9.50001 12.52 0.950012 23.06 0.950012H35.44C45.98 0.950012 54.53 9.50001 54.53 20.04C54.53 30.58 45.98 39.13 35.44 39.13Z" fill="#694A1A"/>
<path d="M35.44 0.950012H23.06C12.52 0.950012 3.97 9.50001 3.97 20.04C3.97 24.26 5.34 28.15 7.66 31.31C10.82 33.63 14.72 35 18.93 35H31.31C41.85 35 50.4 26.45 50.4 15.91C50.4 11.69 49.03 7.80001 46.71 4.64001C43.55 2.32001 39.65 0.950012 35.44 0.950012Z" fill="#805A20"/>
<path d="M5.51999 18.53C5.51999 18.53 5.08999 18.22 3.79999 17.3C2.50999 16.38 0.920013 17.55 0.920013 17.55C0.920013 17.55 1.84 17.12 2.94 18.59C4.04 20.06 5.82001 19.88 5.82001 19.88L5.51001 18.53H5.51999Z" fill="#805A20"/>
<path d="M5.45999 21.55C5.45999 21.55 5.02999 21.86 3.73999 22.78C2.44999 23.7 0.859985 22.53 0.859985 22.53C0.859985 22.53 1.78 22.96 2.88 21.49C3.98 20.02 5.76001 20.2 5.76001 20.2L5.45001 21.55H5.45999Z" fill="#805A20"/>
<path d="M5.10999 21.57C5.10999 21.57 4.58 21.56 3 21.53C1.42 21.5 0.690002 20.25 0.690002 20.25C0.690002 20.25 1.32 20.51 3.09 19.99C4.85 19.47 6.17001 20.68 6.17001 20.68L5.12 21.58L5.10999 21.57Z" fill="#805A20"/>
<path d="M5.20001 18.31C5.20001 18.31 4.67 18.32 3.09 18.35C1.51 18.38 0.779999 19.63 0.779999 19.63C0.779999 19.63 1.40999 19.37 3.17999 19.89C4.93999 20.41 6.26001 19.2 6.26001 19.2L5.20999 18.3L5.20001 18.31Z" fill="#805A20"/>
<path d="M22.02 22.33H18.43C15.38 22.33 12.9 19.36 12.9 15.69C12.9 12.02 15.37 9.04999 18.43 9.04999H22.02C25.07 9.04999 27.55 12.02 27.55 15.69C27.55 19.36 25.08 22.33 22.02 22.33Z" fill="#9C6E26"/>
<path d="M60.69 27.91C60.69 17.5381 52.2819 9.13 41.91 9.13C31.5381 9.13 23.13 17.5381 23.13 27.91V28.35C23.13 38.7219 31.5381 47.13 41.91 47.13C52.2819 47.13 60.69 38.7219 60.69 28.35V27.91Z" fill="#694A1A"/>
<path d="M41.91 46.04C32.17 46.04 24.21 38.07 24.21 28.34V27.93C24.21 18.19 32.18 10.23 41.91 10.23C51.65 10.23 59.61 18.2 59.61 27.93V28.34C59.61 38.08 51.64 46.04 41.91 46.04Z" fill="#98C021"/>
<path d="M53.32 23.38C53.84 24.74 52.42 26.19 51.5 27.7C50.78 28.87 51.58 31.84 50.19 32.85C49.02 33.7 47.04 33.35 45.51 33.94C43.98 34.52 42.74 36.1 41.3 36.25C39.6 36.42 37.16 34.09 35.84 33.69C34.15 33.18 32.12 33.05 31.6 31.68C31.08 30.31 32.5 28.87 33.42 27.36C34.14 26.19 34.32 22.33 35.71 21.32C36.88 20.47 38.86 20.82 40.39 20.23C41.92 19.65 43.16 18.07 44.6 17.92C46.3 17.75 47.76 20.98 49.08 21.38C50.77 21.89 52.8 22.02 53.32 23.39V23.38Z" fill="#5C8826"/>
<path d="M48.27 25.26C48.55 25.99 47.79 26.77 47.29 27.57C46.91 28.2 46.81 29.26 46.07 29.8C45.44 30.26 44.39 30.07 43.57 30.38C42.75 30.69 42.09 31.54 41.32 31.61C40.41 31.7 39.63 30.98 38.92 30.76C38.02 30.49 36.93 30.42 36.65 29.68C36.37 28.95 37.13 28.17 37.63 27.37C38.01 26.74 38.11 25.68 38.85 25.14C39.48 24.68 40.53 24.87 41.35 24.56C42.17 24.25 42.83 23.4 43.6 23.33C44.51 23.24 45.29 23.96 46 24.18C46.9 24.45 47.99 24.52 48.27 25.26Z" fill="#FFFCA0"/>
<path d="M42.2 23.16C42.2 23.16 42.53 13.21 41.07 13.21C39.61 13.21 42.2 23.16 42.2 23.16Z" fill="#A0D10F"/>
<path d="M43.87 22.81C43.87 22.81 46.13 13.11 44.7 12.83C43.27 12.55 43.87 22.81 43.87 22.81Z" fill="#A0D10F"/>
<path d="M45.79 23.69C45.79 23.69 49.96 14.65 48.62 14.08C47.28 13.51 45.79 23.69 45.79 23.69Z" fill="#A0D10F"/>
<path d="M47.34 23.89C47.34 23.89 53.88 16.38 52.75 15.46C51.62 14.54 47.34 23.89 47.34 23.89Z" fill="#A0D10F"/>
<path d="M48.51 24.74C48.51 24.74 56.17 19.18 55.34 18.06C54.51 16.93 48.51 24.74 48.51 24.74Z" fill="#A0D10F"/>
<path d="M48.89 25.4C48.89 25.4 57.79 22.37 57.32 21.05C56.85 19.72 48.89 25.4 48.89 25.4Z" fill="#A0D10F"/>
<path d="M40.73 23.34C40.73 23.34 38.99 13.54 37.56 13.84C36.13 14.14 40.73 23.34 40.73 23.34Z" fill="#A0D10F"/>
<path d="M38.91 23.85C38.91 23.85 35.71 14.42 34.34 14.94C32.97 15.46 38.91 23.85 38.91 23.85Z" fill="#A0D10F"/>
<path d="M38.12 24.82C38.12 24.82 32.62 16.52 31.43 17.37C30.24 18.22 38.12 24.82 38.12 24.82Z" fill="#A0D10F"/>
<path d="M37.18 26.2C37.18 26.2 30.04 19.26 29.06 20.34C28.08 21.42 37.18 26.2 37.18 26.2Z" fill="#A0D10F"/>
<path d="M36.93 27.42C36.93 27.42 28.26 22.53 27.58 23.82C26.91 25.11 36.93 27.42 36.93 27.42Z" fill="#A0D10F"/>
<path d="M36.09 29.03C36.09 29.03 26.46 26.51 26.14 27.93C25.82 29.35 36.09 29.03 36.09 29.03Z" fill="#A0D10F"/>
<path d="M36.36 30.44C36.36 30.44 26.4 30.46 26.45 31.92C26.5 33.38 36.36 30.44 36.36 30.44Z" fill="#A0D10F"/>
<path d="M37.72 30.98C37.72 30.98 28.74 35.29 29.42 36.58C30.1 37.87 37.72 30.98 37.72 30.98Z" fill="#A0D10F"/>
<path d="M39.16 32.09C39.16 32.09 31.58 38.55 32.56 39.62C33.54 40.7 39.16 32.09 39.16 32.09Z" fill="#A0D10F"/>
<path d="M40.58 32.68C40.58 32.68 34.9 40.86 36.12 41.65C37.35 42.44 40.58 32.68 40.58 32.68Z" fill="#A0D10F"/>
<path d="M41.6 32.26C41.6 32.26 38.92 41.85 40.33 42.19C41.75 42.54 41.6 32.26 41.6 32.26Z" fill="#A0D10F"/>
<path d="M43.11 31.95C43.11 31.95 42.96 41.91 44.42 41.88C45.88 41.85 43.11 31.95 43.11 31.95Z" fill="#A0D10F"/>
<path d="M44.59 31.54C44.59 31.54 46.51 41.31 47.93 40.98C49.35 40.65 44.59 31.54 44.59 31.54Z" fill="#A0D10F"/>
<path d="M45.8 30.59C45.8 30.59 50.14 39.55 51.44 38.87C52.73 38.19 45.8 30.59 45.8 30.59Z" fill="#A0D10F"/>
<path d="M47.23 30.03C47.23 30.03 53.26 37.95 54.39 37.03C55.52 36.11 47.23 30.03 47.23 30.03Z" fill="#A0D10F"/>
<path d="M47.89 28.64C47.89 28.64 55.74 34.76 56.6 33.59C57.46 32.41 47.89 28.64 47.89 28.64Z" fill="#A0D10F"/>
<path d="M48.84 27.16C48.84 27.16 57.92 31.24 58.48 29.89C59.03 28.54 48.84 27.16 48.84 27.16Z" fill="#A0D10F"/>
<path d="M48.75 25.65C48.75 25.65 58 27.23 58.18 25.83C58.36 24.43 48.75 25.65 48.75 25.65Z" fill="#A0D10F"/>
<path d="M42.63 35.01C42.63 35.82 42.33 36.47 41.96 36.47C41.59 36.47 41.29 35.82 41.29 35.01C41.29 34.2 41.59 33.55 41.96 33.55C42.33 33.55 42.63 34.2 42.63 35.01Z" fill="black"/>
<path d="M39.26 34.4C39 35.17 38.51 35.69 38.16 35.58C37.81 35.46 37.73 34.75 37.99 33.98C38.25 33.21 38.74 32.69 39.09 32.8C39.44 32.92 39.52 33.63 39.26 34.4Z" fill="black"/>
<path d="M40.7 35.67C40.44 36.44 39.95 36.96 39.6 36.85C39.25 36.73 39.17 36.02 39.43 35.25C39.69 34.48 40.18 33.96 40.53 34.07C40.88 34.19 40.96 34.9 40.7 35.67Z" fill="black"/>
<path d="M37.63 34.14C37.11 34.76 36.46 35.07 36.18 34.83C35.9 34.59 36.09 33.9 36.6 33.28C37.12 32.66 37.77 32.35 38.05 32.59C38.33 32.83 38.14 33.52 37.63 34.14Z" fill="black"/>
<path d="M44.35 34.6C44.52 35.39 44.37 36.09 44.01 36.17C43.65 36.25 43.22 35.67 43.04 34.89C42.87 34.1 43.02 33.4 43.38 33.32C43.74 33.24 44.17 33.82 44.35 34.6Z" fill="black"/>
<path d="M45.75 33.33C45.92 34.12 45.77 34.82 45.41 34.9C45.05 34.98 44.62 34.4 44.44 33.62C44.27 32.83 44.42 32.13 44.78 32.05C45.14 31.97 45.57 32.55 45.75 33.33Z" fill="black"/>
<path d="M47.61 33.81C47.9 34.56 47.86 35.28 47.51 35.41C47.17 35.54 46.65 35.04 46.36 34.29C46.07 33.54 46.11 32.82 46.46 32.69C46.8 32.56 47.32 33.06 47.61 33.81Z" fill="black"/>
<path d="M42.55 19.88C42.55 19.07 42.85 18.42 43.22 18.42C43.59 18.42 43.89 19.07 43.89 19.88C43.89 20.69 43.59 21.34 43.22 21.34C42.85 21.34 42.55 20.69 42.55 19.88Z" fill="black"/>
<path d="M45.92 20.49C46.18 19.72 46.67 19.2 47.02 19.31C47.37 19.43 47.45 20.14 47.19 20.91C46.93 21.68 46.44 22.2 46.09 22.09C45.74 21.97 45.66 21.26 45.92 20.49Z" fill="black"/>
<path d="M44.48 19.22C44.74 18.45 45.23 17.93 45.58 18.04C45.93 18.16 46.01 18.87 45.75 19.64C45.49 20.41 45 20.93 44.65 20.82C44.3 20.7 44.22 19.99 44.48 19.22Z" fill="black"/>
<path d="M47.55 20.75C48.07 20.13 48.72 19.82 49 20.06C49.28 20.3 49.09 20.99 48.58 21.61C48.06 22.23 47.41 22.54 47.13 22.3C46.85 22.06 47.04 21.37 47.55 20.75Z" fill="black"/>
<path d="M40.83 20.3C40.66 19.51 40.81 18.81 41.17 18.73C41.53 18.65 41.96 19.23 42.14 20.01C42.31 20.8 42.16 21.5 41.8 21.58C41.44 21.66 41.01 21.08 40.83 20.3Z" fill="black"/>
<path d="M39.43 21.57C39.26 20.78 39.41 20.08 39.77 20C40.13 19.92 40.56 20.5 40.74 21.28C40.91 22.07 40.76 22.77 40.4 22.85C40.04 22.93 39.61 22.35 39.43 21.57Z" fill="black"/>
<path d="M37.57 21.08C37.28 20.33 37.32 19.61 37.67 19.48C38.01 19.35 38.53 19.85 38.82 20.6C39.11 21.35 39.07 22.07 38.72 22.2C38.37 22.33 37.86 21.83 37.57 21.08Z" fill="black"/>
<path d="M48.61 31.12C49.13 31.73 49.33 32.43 49.05 32.67C48.77 32.91 48.12 32.61 47.59 31.99C47.07 31.38 46.87 30.68 47.15 30.44C47.43 30.2 48.08 30.5 48.61 31.12Z" fill="black"/>
<path d="M50.79 31.04C51.31 31.65 51.51 32.35 51.23 32.59C50.95 32.83 50.3 32.53 49.77 31.91C49.25 31.3 49.05 30.6 49.33 30.36C49.61 30.12 50.26 30.42 50.79 31.04Z" fill="black"/>
<path d="M50.2 28.66C50.88 29.09 51.28 29.69 51.08 30.01C50.88 30.32 50.17 30.23 49.49 29.79C48.81 29.36 48.41 28.76 48.61 28.44C48.81 28.13 49.52 28.22 50.2 28.66Z" fill="black"/>
<path d="M52.16 28.1C52.89 28.44 53.36 28.98 53.21 29.32C53.06 29.66 52.34 29.65 51.6 29.32C50.87 28.98 50.4 28.44 50.55 28.1C50.7 27.76 51.42 27.77 52.16 28.1Z" fill="black"/>
<path d="M51.5 26.02C52.29 26.18 52.88 26.6 52.81 26.96C52.74 27.32 52.04 27.49 51.25 27.33C50.46 27.17 49.87 26.75 49.94 26.39C50.01 26.03 50.71 25.86 51.5 26.02Z" fill="black"/>
<path d="M52.65 24.48C53.46 24.52 54.1 24.85 54.08 25.22C54.06 25.59 53.39 25.86 52.59 25.82C51.78 25.78 51.14 25.45 51.16 25.08C51.18 24.71 51.85 24.44 52.65 24.48Z" fill="black"/>
<path d="M50.66 23.11C51.45 22.95 52.15 23.12 52.22 23.48C52.29 23.84 51.71 24.26 50.91 24.42C50.12 24.58 49.42 24.41 49.35 24.05C49.28 23.69 49.86 23.27 50.66 23.11Z" fill="black"/>
<path d="M51.12 21.43C51.83 21.04 52.54 20.98 52.72 21.3C52.9 21.62 52.47 22.2 51.77 22.6C51.06 22.99 50.35 23.05 50.17 22.73C49.99 22.41 50.42 21.83 51.12 21.43Z" fill="black"/>
<path d="M48.52 22.11C49.11 21.56 49.8 21.33 50.05 21.61C50.3 21.88 50.02 22.55 49.43 23.09C48.84 23.64 48.15 23.87 47.9 23.59C47.65 23.32 47.93 22.65 48.52 22.11Z" fill="black"/>
<path d="M37.85 22.55C38.34 23.19 38.51 23.89 38.22 24.12C37.93 24.35 37.29 24.01 36.8 23.37C36.31 22.73 36.14 22.03 36.43 21.8C36.72 21.57 37.36 21.91 37.85 22.55Z" fill="black"/>
<path d="M35.78 22.64C36.52 22.97 37 23.51 36.85 23.84C36.7 24.18 35.98 24.19 35.24 23.86C34.5 23.53 34.02 22.99 34.17 22.66C34.32 22.32 35.04 22.31 35.78 22.64Z" fill="black"/>
<path d="M35.29 24.13C36.08 24.31 36.65 24.75 36.57 25.11C36.49 25.47 35.78 25.62 35 25.44C34.21 25.26 33.64 24.82 33.72 24.46C33.8 24.1 34.51 23.95 35.29 24.13Z" fill="black"/>
<path d="M34.55 25.6C35.32 25.85 35.85 26.34 35.73 26.69C35.62 27.04 34.9 27.12 34.13 26.87C33.36 26.62 32.83 26.13 32.95 25.78C33.06 25.43 33.78 25.35 34.55 25.6Z" fill="black"/>
<path d="M32.89 26.68C33.68 26.86 34.25 27.3 34.16 27.66C34.08 28.02 33.37 28.16 32.58 27.98C31.79 27.8 31.22 27.36 31.31 27C31.39 26.64 32.1 26.5 32.89 26.68Z" fill="black"/>
<path d="M33.86 28.48C34.67 28.52 35.31 28.85 35.29 29.22C35.27 29.59 34.6 29.86 33.8 29.82C32.99 29.78 32.35 29.45 32.37 29.08C32.39 28.71 33.06 28.44 33.86 28.48Z" fill="black"/>
<path d="M34.49 30.19C35.26 29.93 35.97 30.01 36.09 30.36C36.21 30.71 35.68 31.2 34.92 31.46C34.15 31.72 33.44 31.64 33.32 31.29C33.2 30.94 33.73 30.45 34.49 30.19Z" fill="black"/>
<path d="M34.51 32.26C35.14 31.76 35.84 31.59 36.07 31.88C36.3 32.17 35.97 32.81 35.34 33.31C34.71 33.81 34.01 33.98 33.78 33.69C33.55 33.4 33.88 32.76 34.51 32.26Z" fill="black"/>
</svg>
