<svg width="58" height="68" viewBox="0 0 58 68" fill="none" xmlns="http://www.w3.org/2000/svg">
<path d="M27.63 18.97C27.63 18.97 29.26 14.1 29.58 10.43C29.97 5.89001 28.96 2.71001 29.36 1.78001C29.75 0.860012 30.67 0.310011 31.4 0.560011C31.58 0.620011 33.33 2.81002 32.15 9.57002C31.28 14.55 29 19.59 28.84 19.84C28.32 20.64 27.08 19.82 27.63 18.97Z" fill="#7A663A"/>
<path d="M42.88 13.27C35.33 15.07 29.98 11.31 29.98 11.31C29.98 11.31 36.86 4.62999 44.41 2.82999C51.96 1.02999 57.31 4.79001 57.31 4.79001C57.31 4.79001 50.43 11.47 42.88 13.27Z" fill="#50A822"/>
<path d="M57.32 4.79001L29.99 11.31C29.99 11.31 35.34 15.07 42.89 13.27C50.44 11.47 57.32 4.79001 57.32 4.79001Z" fill="#578D38"/>
<path d="M43.2 41.88C43.2 55.3 31.36 66.32 19.76 66.32C8.16001 66.32 0.459991 56.58 0.459991 43.16C0.459991 29.74 10.58 18 22.19 18C33.8 18 43.2 28.45 43.2 41.87V41.88Z" fill="#F89833"/>
<path d="M29.33 67.21C40.464 67.21 49.49 56.4872 49.49 43.26C49.49 30.0328 40.464 19.31 29.33 19.31C18.1959 19.31 9.17001 30.0328 9.17001 43.26C9.17001 56.4872 18.1959 67.21 29.33 67.21Z" fill="#EDA42F"/>
<path d="M29.33 19.31C18.2 19.31 9.17001 30.03 9.17001 43.26C9.17001 49.62 11.26 55.39 14.66 59.68C16.92 60.72 19.37 61.29 21.93 61.29C33.06 61.29 42.09 50.57 42.09 37.34C42.09 30.98 40 25.21 36.6 20.92C34.34 19.88 31.89 19.31 29.33 19.31Z" fill="#FFBE33"/>
<path d="M12.74 43.26C12.74 30.75 20.82 20.48 31.11 19.41C30.52 19.35 29.93 19.31 29.32 19.31C18.19 19.31 9.16 30.03 9.16 43.26C9.16 56.49 18.19 67.21 29.32 67.21C29.92 67.21 30.52 67.17 31.11 67.11C20.81 66.03 12.74 55.77 12.74 43.26Z" fill="#F37230"/>
<path d="M26.46 37.29C25.52 40.36 22.54 42.41 19.8 41.87C17.06 41.33 15.61 38.41 16.55 35.34C17.49 32.27 20.47 30.22 23.21 30.76C25.95 31.3 27.4 34.22 26.46 37.29Z" fill="#FFCE6B"/>
</svg>
