<svg width="54" height="45" viewBox="0 0 54 45" fill="none" xmlns="http://www.w3.org/2000/svg">
<path d="M26.7724 5.28459L24.191 11.3806L25.6184 11.985L28.1997 5.88899L26.7724 5.28459Z" fill="#578D38"/>
<path d="M50.03 26.36C50.03 36.21 39.03 44.19 25.46 44.19C11.89 44.19 0.890015 36.21 0.890015 26.36C0.890015 16.51 11.44 7.68 25.43 10.97C39.62 8.13 50.03 16.51 50.03 26.36Z" fill="#FF7000"/>
<path d="M25.46 10.82C10.98 7.81999 0.890015 16.52 0.890015 26.36C0.890015 32.72 5.48 38.29 12.38 41.45C14.22 41.77 16.13 41.94 18.11 41.94C31.68 41.94 42.68 33.96 42.68 24.11C42.68 18.2 39.56 13.57 33.49 10.52C31.18 10.2 28.06 10.48 25.46 10.81V10.82Z" fill="#FF892B"/>
<path d="M26.75 5.26998C26.75 5.26998 30.64 10.37 37.99 10.47C45.34 10.57 53.35 5.62999 53.35 5.62999C53.35 5.62999 45.47 0.479993 38.12 0.379993C30.77 0.279993 26.75 5.26998 26.75 5.26998Z" fill="#50A822"/>
<path d="M37.99 10.46C45.34 10.56 53.35 5.62 53.35 5.62C53.35 5.62 53.29 5.57999 53.19 5.51999L26.83 5.35999C27.4 6.04999 31.23 10.37 37.99 10.46Z" fill="#578D38"/>
<path d="M15.03 29.17C19.2053 29.17 22.59 26.1524 22.59 22.43C22.59 18.7076 19.2053 15.69 15.03 15.69C10.8547 15.69 7.47 18.7076 7.47 22.43C7.47 26.1524 10.8547 29.17 15.03 29.17Z" fill="#FFA861"/>
</svg>
