<svg width="47" height="50" viewBox="0 0 47 50" fill="none" xmlns="http://www.w3.org/2000/svg">
<path d="M43.92 1.87C41.5 -0.329999 37.96 -0.509999 35.37 1.24C27.13 -1.37 16.39 2.06 8.65 10.55C0.230003 19.78 -1.9 31.99 2.85 40.03C0.3 42.86 -0.240001 46.52 1.63 48.23C3.51 49.94 7.1 49.06 9.69 46.27C18.13 50.27 30.09 47.02 38.51 37.79C46.25 29.3 48.68 18.3 45.32 10.33C46.82 7.58 46.32 4.07 43.91 1.87H43.92Z" fill="#FFDD00"/>
<path d="M40.23 8.1C41.6 5.59 41.15 2.38 38.94 0.360002C38.83 0.260002 38.72 0.170002 38.61 0.0800018C37.47 0.190002 36.35 0.570001 35.37 1.23C27.13 -1.38 16.39 2.05 8.64999 10.54C2.17999 17.63 -0.570007 26.48 0.659993 33.85C0.799993 34.52 0.839992 34.87 1.04999 35.66C1.45999 37.21 2.05999 38.67 2.85999 40.02C1.95999 41.02 1.31999 42.12 0.939992 43.2C2.74999 44.11 5.55999 43.22 7.64999 40.96C15.37 44.62 26.31 41.65 34.01 33.21C41.09 25.45 43.31 15.38 40.24 8.1H40.23Z" fill="#FFF21F"/>
<path d="M20.5 21.57C17.96 24.69 13.84 25.54 11.29 23.47C8.74 21.4 8.74 17.19 11.28 14.07C13.82 10.95 17.94 10.1 20.49 12.17C23.04 14.24 23.04 18.45 20.5 21.57Z" fill="#FEF59D"/>
</svg>
