<svg width="47" height="74" viewBox="0 0 47 74" fill="none" xmlns="http://www.w3.org/2000/svg">
<path d="M24.97 18.29C24.62 18.29 24.28 18.08 24.15 17.73C24.1 17.6 22.93 14.52 22.69 10.79C22.55 8.66002 23.17 6.58001 23.19 6.50001C23.33 6.04001 23.82 5.77002 24.28 5.91002C24.74 6.05002 25.01 6.54001 24.87 7.00001C24.86 7.03001 24.32 8.87003 24.44 10.67C24.66 14.11 25.78 17.06 25.79 17.09C25.96 17.54 25.74 18.05 25.28 18.22C25.18 18.26 25.07 18.28 24.97 18.28V18.29Z" fill="#8D4706"/>
<path d="M36.33 28.25C36.33 21.3 31.4 15.66 25.32 15.66C19.24 15.66 14.31 21.3 14.31 28.25C14.31 34.63 4.00002 39.08 3.89002 52.44C3.79002 64.28 13.49 73.87 25.32 73.87C37.15 73.87 46.75 64.27 46.75 52.44C46.75 37.45 36.33 34.64 36.33 28.25Z" fill="#A2B00A"/>
<path d="M24.13 15.73C18.61 16.41 14.3 21.75 14.3 28.25C14.3 34.75 3.99001 39.08 3.88001 52.44C3.81001 60.87 8.71001 68.16 15.81 71.66C16.51 71.73 17.22 71.77 17.94 71.77C29.78 71.77 39.37 62.17 39.37 50.34C39.37 35.35 28.95 32.54 28.95 26.15C28.95 21.82 27.04 18.01 24.13 15.74V15.73Z" fill="#BAC733"/>
<path d="M22.77 11.28C22.77 11.28 18.55 16.72 12.46 14.63C2.49999 11.21 0.799988 3.48001 0.799988 3.48001C0.799988 3.48001 6.32 -1.80001 16.88 2.17999C22.9 4.44999 22.77 11.28 22.77 11.28Z" fill="#50A822"/>
<path d="M16.88 2.17999C6.32 -1.80001 0.799988 3.48001 0.799988 3.48001C0.799988 3.48001 0.799988 3.48999 0.799988 3.51999L22.76 11.22C22.76 10.53 22.56 4.32999 16.87 2.17999H16.88Z" fill="#578D38"/>
<path d="M20.86 47.39C19.74 51.06 16.46 53.31 13.53 52.42C10.6 51.53 9.13001 47.83 10.25 44.15C11.37 40.48 14.65 38.23 17.58 39.12C20.51 40.01 21.98 43.71 20.86 47.39Z" fill="#D5DE71"/>
</svg>
