<svg width="49" height="55" viewBox="0 0 49 55" fill="none" xmlns="http://www.w3.org/2000/svg">
<path d="M30.6 6.62C31.09 9.25 27.32 10.09 25.89 9.53C24.46 8.97 24.4 5.74001 25.42 4.60001C27.39 2.39001 31.57 2.3 31.57 2.3C31.57 2.3 30.25 4.75 30.6 6.63V6.62Z" fill="#C45627"/>
<path d="M27.97 4.77C29.88 6.64 27.28 9.5 25.79 9.86C24.3 10.23 22.39 7.62001 22.57 6.10001C22.91 3.15001 26.27 0.679993 26.27 0.679993C26.27 0.679993 26.6 3.44 27.97 4.78V4.77Z" fill="#C45627"/>
<path d="M20.63 4.77C18.72 6.64 21.32 9.5 22.81 9.86C24.3 10.23 26.21 7.62001 26.03 6.10001C25.69 3.15001 22.33 0.679993 22.33 0.679993C22.33 0.679993 22 3.44 20.63 4.78V4.77Z" fill="#C45627"/>
<path d="M18.49 6.57001C17.95 9.19001 21.71 10.1 23.15 9.57001C24.59 9.04001 24.71 5.81 23.71 4.64C21.78 2.39 17.6 2.22 17.6 2.22C17.6 2.22 18.87 4.69001 18.49 6.57001Z" fill="#C45627"/>
<path d="M24.58 54.47C37.9232 54.47 48.74 43.6532 48.74 30.31C48.74 16.9668 37.9232 6.14999 24.58 6.14999C11.2368 6.14999 0.419998 16.9668 0.419998 30.31C0.419998 43.6532 11.2368 54.47 24.58 54.47Z" fill="#990530"/>
<path d="M47.72 30.31C47.72 43.09 37.36 53.44 24.59 53.44C11.82 53.44 1.45999 43.08 1.45999 30.31C1.45999 17.54 6.22999 11.29 13.28 9.73C16.62 8.99 20.48 10.27 24.59 10.27C27.97 10.27 31.18 9.00001 34.07 9.46001C42.12 10.74 47.72 16.35 47.72 30.31Z" fill="#EBCEA4"/>
<path d="M31.75 14.86C32.72 16.22 33.37 17.43 31.59 18.3C29.81 19.17 29.23 17.98 28.78 16.31C28.35 14.71 28.15 13.26 28.94 12.87C29.73 12.48 30.78 13.5 31.75 14.86Z" fill="#C20632"/>
<path d="M28.56 21.84C26.93 21.48 25.64 21.01 26.38 19.18C27.12 17.35 28.34 17.84 29.8 18.79C31.19 19.69 32.31 20.64 31.98 21.45C31.65 22.26 30.19 22.21 28.56 21.84Z" fill="#C20632"/>
<path d="M28.46 25.87C26.83 26.21 25.45 26.31 25.38 24.34C25.31 22.36 26.62 22.31 28.34 22.58C29.97 22.83 31.39 23.23 31.42 24.11C31.45 24.99 30.1 25.53 28.46 25.87Z" fill="#C20632"/>
<path d="M28.86 33.67C27.23 34.01 25.85 34.11 25.78 32.14C25.71 30.17 27.02 30.11 28.74 30.38C30.37 30.63 31.79 31.03 31.82 31.91C31.85 32.79 30.5 33.33 28.86 33.67Z" fill="#C20632"/>
<path d="M29.68 37.54C28.35 38.55 27.16 39.24 26.24 37.49C25.32 35.74 26.49 35.13 28.15 34.63C29.73 34.15 31.18 33.91 31.59 34.68C32 35.46 31.01 36.53 29.68 37.54Z" fill="#C20632"/>
<path d="M30.35 41.84C29.02 42.85 27.83 43.54 26.91 41.79C25.99 40.04 27.16 39.43 28.82 38.93C30.4 38.45 31.85 38.21 32.26 38.98C32.67 39.76 31.68 40.83 30.35 41.84Z" fill="#C20632"/>
<path d="M33.78 44.02C33.06 45.52 32.31 46.68 30.69 45.54C29.07 44.4 29.83 43.32 31.08 42.12C32.27 40.97 33.45 40.09 34.17 40.6C34.89 41.11 34.5 42.51 33.78 44.02Z" fill="#C20632"/>
<path d="M38.47 44.47C38.96 46.06 39.2 47.42 37.25 47.69C35.29 47.96 35.11 46.65 35.21 44.92C35.3 43.27 35.56 41.82 36.43 41.7C37.3 41.58 37.98 42.88 38.47 44.47Z" fill="#C20632"/>
<path d="M41.2 40.66C42.54 41.66 43.53 42.61 42.11 43.98C40.69 45.35 39.77 44.4 38.83 42.95C37.93 41.56 37.29 40.24 37.92 39.63C38.55 39.02 39.86 39.67 41.2 40.66Z" fill="#C20632"/>
<path d="M42.7 36.53C44.31 36.96 45.59 37.48 44.77 39.28C43.95 41.08 42.75 40.54 41.34 39.53C39.99 38.57 38.91 37.58 39.27 36.78C39.63 35.98 41.09 36.1 42.7 36.53Z" fill="#C20632"/>
<path d="M29.05 26.82C30.51 26.01 31.79 25.5 32.45 27.36C33.11 29.22 31.87 29.66 30.16 29.93C28.53 30.18 27.06 30.22 26.76 29.39C26.47 28.56 27.59 27.64 29.05 26.82Z" fill="#C20632"/>
<path d="M34.76 36.03C35.96 35.31 37.03 34.87 37.69 36.74C38.35 38.61 37.32 38.97 35.87 39.14C34.49 39.3 33.24 39.26 32.94 38.43C32.65 37.6 33.56 36.75 34.76 36.03Z" fill="#C20632"/>
<path d="M34.09 18.14C35.29 17.42 36.36 16.98 37.02 18.85C37.68 20.71 36.65 21.08 35.2 21.25C33.82 21.41 32.57 21.37 32.27 20.54C31.98 19.71 32.89 18.86 34.09 18.14Z" fill="#C20632"/>
<path d="M32.96 25.3C32.17 24.15 31.66 23.11 33.48 22.33C35.3 21.55 35.73 22.56 35.99 24C36.24 25.37 36.28 26.62 35.47 26.97C34.66 27.32 33.76 26.46 32.96 25.3Z" fill="#C20632"/>
<path d="M34.93 27.63C36.05 27.17 37.01 26.96 37.32 28.91C37.64 30.86 36.71 31.01 35.46 30.88C34.27 30.76 33.21 30.47 33.07 29.6C32.93 28.73 33.82 28.09 34.93 27.63Z" fill="#C20632"/>
<path d="M32.07 47.19C33.27 46.47 34.34 46.03 35 47.9C35.66 49.77 34.63 50.13 33.18 50.3C31.8 50.46 30.55 50.42 30.25 49.59C29.96 48.76 30.87 47.91 32.07 47.19Z" fill="#C20632"/>
<path d="M29.51 45.14C30.48 46.15 31.14 47.09 29.48 48.15C27.81 49.21 27.22 48.28 26.73 46.91C26.27 45.6 26.02 44.37 26.76 43.9C27.5 43.43 28.53 44.13 29.51 45.14Z" fill="#C20632"/>
<path d="M32.52 33.11C32.9 31.68 33.37 30.55 35.16 31.4C36.95 32.25 36.44 33.3 35.5 34.52C34.6 35.68 33.66 36.61 32.86 36.23C32.07 35.85 32.14 34.54 32.52 33.11Z" fill="#C20632"/>
<path d="M36.56 14.37C37.02 12.77 37.56 11.5 39.35 12.35C41.14 13.2 40.57 14.39 39.54 15.79C38.56 17.12 37.55 18.19 36.75 17.81C35.96 17.43 36.1 15.98 36.56 14.37Z" fill="#C20632"/>
<path d="M40.46 16.72C41.65 15.55 42.74 14.71 43.88 16.33C45.02 17.95 43.94 18.71 42.36 19.42C40.85 20.1 39.45 20.53 38.94 19.81C38.43 19.09 39.27 17.9 40.46 16.72Z" fill="#C20632"/>
<path d="M42.35 20.2C43.74 19.27 44.96 18.65 45.78 20.45C46.6 22.25 45.4 22.8 43.71 23.2C42.1 23.58 40.64 23.75 40.28 22.95C39.92 22.15 40.96 21.13 42.35 20.2Z" fill="#C20632"/>
<path d="M43.49 23.96C45.04 23.35 46.38 23.02 46.79 24.95C47.2 26.89 45.91 27.16 44.17 27.18C42.52 27.21 41.06 27.05 40.87 26.19C40.69 25.33 41.93 24.56 43.49 23.96Z" fill="#C20632"/>
<path d="M44.5 28.31C46.15 28.57 47.47 28.96 46.84 30.83C46.21 32.7 44.96 32.29 43.45 31.43C42.01 30.62 40.83 29.74 41.11 28.91C41.39 28.08 42.85 28.04 44.5 28.31Z" fill="#C20632"/>
<path d="M32.4 14.32C31.82 12.75 31.51 11.41 33.45 11.04C35.39 10.67 35.64 11.96 35.64 13.7C35.64 15.35 35.45 16.81 34.59 16.98C33.73 17.15 32.98 15.89 32.4 14.32Z" fill="#C20632"/>
<path d="M40.79 32.03C40.96 33.69 40.94 35.07 38.96 34.95C36.99 34.83 37.07 33.51 37.5 31.83C37.91 30.23 38.45 28.86 39.33 28.91C40.21 28.96 40.62 30.36 40.79 32.03Z" fill="#C20632"/>
<path d="M39.97 23.64C40.46 25.23 40.7 26.59 38.74 26.85C36.78 27.11 36.61 25.81 36.71 24.07C36.81 22.42 37.07 20.97 37.94 20.86C38.81 20.75 39.48 22.04 39.97 23.64Z" fill="#C20632"/>
<path d="M44.12 32.51C45.57 32.48 46.76 32.63 46.42 34.58C46.09 36.53 44.96 36.34 43.56 35.76C42.23 35.21 41.11 34.56 41.26 33.69C41.41 32.82 42.66 32.54 44.12 32.51Z" fill="#C20632"/>
<path d="M17.7 14.86C16.73 16.22 16.08 17.43 17.86 18.3C19.64 19.17 20.22 17.98 20.67 16.31C21.1 14.71 21.3 13.26 20.51 12.87C19.72 12.48 18.67 13.5 17.7 14.86Z" fill="#C20632"/>
<path d="M20.89 21.84C22.52 21.48 23.81 21.01 23.07 19.18C22.33 17.35 21.11 17.84 19.65 18.79C18.26 19.69 17.14 20.64 17.47 21.45C17.8 22.26 19.26 22.21 20.89 21.84Z" fill="#C20632"/>
<path d="M21 25.87C22.63 26.21 24.01 26.31 24.08 24.34C24.15 22.37 22.84 22.31 21.12 22.58C19.49 22.83 18.07 23.23 18.04 24.11C18.01 24.99 19.36 25.53 21 25.87Z" fill="#C20632"/>
<path d="M20.59 33.67C22.22 34.01 23.6 34.11 23.67 32.14C23.74 30.16 22.43 30.11 20.71 30.38C19.08 30.63 17.66 31.03 17.63 31.91C17.6 32.79 18.95 33.33 20.59 33.67Z" fill="#C20632"/>
<path d="M19.78 37.54C21.11 38.55 22.3 39.24 23.22 37.49C24.14 35.74 22.97 35.13 21.31 34.63C19.73 34.15 18.28 33.91 17.87 34.68C17.46 35.46 18.45 36.53 19.78 37.54Z" fill="#C20632"/>
<path d="M19.1 41.84C20.43 42.85 21.62 43.54 22.54 41.79C23.46 40.04 22.29 39.43 20.63 38.93C19.05 38.45 17.6 38.21 17.19 38.98C16.78 39.76 17.77 40.83 19.1 41.84Z" fill="#C20632"/>
<path d="M15.68 44.02C16.4 45.52 17.15 46.68 18.77 45.54C20.39 44.4 19.63 43.32 18.38 42.12C17.19 40.97 16.01 40.09 15.29 40.6C14.57 41.11 14.96 42.51 15.68 44.02Z" fill="#C20632"/>
<path d="M10.98 44.47C10.49 46.06 10.25 47.42 12.2 47.69C14.16 47.96 14.34 46.65 14.24 44.92C14.15 43.27 13.89 41.82 13.02 41.7C12.15 41.58 11.47 42.88 10.98 44.47Z" fill="#C20632"/>
<path d="M8.26 40.66C6.92 41.66 5.92999 42.61 7.34999 43.98C8.76999 45.35 9.68999 44.4 10.63 42.95C11.53 41.56 12.17 40.24 11.54 39.63C10.91 39.02 9.6 39.67 8.26 40.66Z" fill="#C20632"/>
<path d="M6.74999 36.53C5.13999 36.96 3.85999 37.48 4.67999 39.28C5.49999 41.08 6.69999 40.54 8.10999 39.53C9.45999 38.57 10.54 37.58 10.18 36.78C9.81999 35.98 8.35999 36.1 6.74999 36.53Z" fill="#C20632"/>
<path d="M20.41 26.82C18.95 26.01 17.67 25.5 17.01 27.36C16.35 29.22 17.59 29.66 19.3 29.93C20.93 30.18 22.4 30.22 22.7 29.39C22.99 28.56 21.87 27.64 20.41 26.82Z" fill="#C20632"/>
<path d="M14.69 36.03C13.49 35.31 12.42 34.87 11.76 36.74C11.1 38.6 12.13 38.97 13.58 39.14C14.96 39.3 16.21 39.26 16.51 38.43C16.8 37.6 15.89 36.75 14.69 36.03Z" fill="#C20632"/>
<path d="M15.37 18.14C14.17 17.42 13.1 16.98 12.44 18.85C11.78 20.72 12.81 21.08 14.26 21.25C15.64 21.41 16.89 21.37 17.19 20.54C17.48 19.71 16.57 18.86 15.37 18.14Z" fill="#C20632"/>
<path d="M16.49 25.3C17.28 24.15 17.79 23.11 15.97 22.33C14.15 21.55 13.72 22.56 13.46 24C13.21 25.37 13.17 26.62 13.98 26.97C14.79 27.32 15.69 26.46 16.49 25.3Z" fill="#C20632"/>
<path d="M14.52 27.63C13.4 27.17 12.44 26.96 12.13 28.91C11.81 30.86 12.74 31.01 13.99 30.88C15.18 30.76 16.24 30.47 16.38 29.6C16.52 28.73 15.63 28.09 14.52 27.63Z" fill="#C20632"/>
<path d="M17.38 47.19C16.18 46.47 15.11 46.03 14.45 47.9C13.79 49.77 14.82 50.13 16.27 50.3C17.65 50.46 18.9 50.42 19.2 49.59C19.49 48.76 18.58 47.91 17.38 47.19Z" fill="#C20632"/>
<path d="M19.94 45.14C18.97 46.15 18.31 47.09 19.97 48.15C21.64 49.21 22.23 48.28 22.72 46.91C23.18 45.6 23.43 44.37 22.69 43.9C21.95 43.43 20.92 44.13 19.94 45.14Z" fill="#C20632"/>
<path d="M16.94 33.11C16.56 31.68 16.09 30.55 14.3 31.4C12.51 32.25 13.02 33.3 13.96 34.52C14.86 35.68 15.8 36.61 16.6 36.23C17.39 35.85 17.32 34.54 16.94 33.11Z" fill="#C20632"/>
<path d="M12.89 14.37C12.43 12.77 11.89 11.5 10.1 12.35C8.30999 13.2 8.88 14.39 9.91 15.79C10.89 17.12 11.9 18.19 12.7 17.81C13.49 17.43 13.35 15.98 12.89 14.37Z" fill="#C20632"/>
<path d="M8.98999 16.72C7.79999 15.55 6.70999 14.71 5.56999 16.33C4.42999 17.95 5.50999 18.71 7.08999 19.42C8.59999 20.1 9.99999 20.53 10.51 19.81C11.02 19.09 10.18 17.9 8.98999 16.72Z" fill="#C20632"/>
<path d="M7.11 20.2C5.72 19.27 4.5 18.65 3.68 20.45C2.86 22.25 4.06 22.8 5.75 23.2C7.36 23.58 8.82 23.75 9.18 22.95C9.54 22.15 8.5 21.13 7.11 20.2Z" fill="#C20632"/>
<path d="M5.95999 23.96C4.40999 23.35 3.06999 23.02 2.65999 24.95C2.24999 26.89 3.53999 27.16 5.27999 27.18C6.92999 27.21 8.38999 27.05 8.57999 26.19C8.75999 25.33 7.51999 24.56 5.95999 23.96Z" fill="#C20632"/>
<path d="M4.95999 28.31C3.30999 28.57 1.99 28.96 2.62 30.83C3.25 32.7 4.5 32.29 6.01 31.43C7.45 30.62 8.62999 29.74 8.34999 28.91C8.06999 28.08 6.60999 28.04 4.95999 28.31Z" fill="#C20632"/>
<path d="M17.06 14.32C17.64 12.75 17.95 11.41 16.01 11.04C14.07 10.67 13.82 11.96 13.82 13.7C13.82 15.35 14.01 16.81 14.87 16.98C15.73 17.15 16.48 15.89 17.06 14.32Z" fill="#C20632"/>
<path d="M8.66998 32.03C8.49998 33.69 8.51998 35.07 10.5 34.95C12.47 34.83 12.39 33.51 11.96 31.83C11.55 30.23 11.01 28.86 10.13 28.91C9.24998 28.96 8.83998 30.36 8.66998 32.03Z" fill="#C20632"/>
<path d="M9.48999 23.64C8.99999 25.23 8.76 26.59 10.72 26.85C12.68 27.11 12.85 25.81 12.75 24.07C12.65 22.42 12.39 20.97 11.52 20.86C10.65 20.75 9.97999 22.04 9.48999 23.64Z" fill="#C20632"/>
<path d="M5.33 32.51C3.88 32.48 2.68999 32.63 3.02999 34.58C3.35999 36.53 4.48999 36.34 5.88999 35.76C7.21999 35.21 8.34 34.56 8.19 33.69C8.04 32.82 6.79 32.54 5.33 32.51Z" fill="#C20632"/>
</svg>
