<svg width="81" height="53" viewBox="0 0 81 53" fill="none" xmlns="http://www.w3.org/2000/svg">
<path d="M27.02 27.16C27.02 27.16 24.84 22.93 21.25 20.38C17.66 17.83 14.41 18.61 14.41 18.61L16.78 22.64C16.78 22.64 14.43 21.79 9.64 23.69C4.85 25.59 0.509995 29 0.509995 29L8.95 32.15C8.95 32.15 6.54 33.44 4.89 36.39C3.41 39.04 3.03 41.8 3.03 41.8C3.03 41.8 6.17 43.81 11.3 43.88C16.9 43.96 19.66 42.15 19.66 42.15C19.66 42.15 19.61 45.49 19.77 46.56C19.94 47.63 20.42 48.26 20.42 48.26C20.42 48.26 22.25 48.36 25.37 47.03C28.5 45.7 31.05 42.3 31.05 42.3L32.73 34.23L27 27.17L27.02 27.16Z" fill="#50A822"/>
<path d="M26.15 17.8C25.88 17.8 25.62 17.71 25.4 17.53C25.36 17.5 21.43 14.2 18.05 13.61C12.81 12.69 11.28 14.41 11.26 14.42C10.88 14.94 10.17 15.03 9.65 14.65C9.13 14.27 9.03001 13.53 9.41001 13.01C9.63001 12.71 11.73 10.14 18.45 11.31C22.45 12.01 26.72 15.6 26.9 15.75C27.39 16.16 27.45 16.9 27.03 17.39C26.8 17.66 26.47 17.8 26.14 17.8H26.15Z" fill="#7A663A"/>
<path d="M42.26 18.73C46.7501 18.73 50.39 15.0901 50.39 10.6C50.39 6.10993 46.7501 2.47 42.26 2.47C37.7699 2.47 34.13 6.10993 34.13 10.6C34.13 15.0901 37.7699 18.73 42.26 18.73Z" fill="#980F0F"/>
<path d="M38.3194 30.5926C39.3546 26.2235 36.652 21.8424 32.2829 20.8072C27.9137 19.772 23.5327 22.4746 22.4974 26.8437C21.4622 31.2128 24.1648 35.5939 28.534 36.6291C32.9031 37.6643 37.2841 34.9617 38.3194 30.5926Z" fill="#86121A"/>
<path d="M34.0756 28.2012C37.2506 25.0262 37.2506 19.8786 34.0756 16.7036C30.9007 13.5287 25.753 13.5287 22.5781 16.7036C19.4031 19.8786 19.4031 25.0262 22.5781 28.2012C25.753 31.3762 30.9006 31.3761 34.0756 28.2012Z" fill="#980F0F"/>
<path d="M34.1929 18.9081C38.3448 17.1985 40.3246 12.4468 38.6151 8.29493C36.9055 4.14305 32.1538 2.16318 28.0019 3.87276C23.8501 5.58235 21.8702 10.334 23.5798 14.4859C25.2894 18.6378 30.041 20.6176 34.1929 18.9081Z" fill="#980F0F"/>
<path d="M38.4734 45.0022C41.6483 41.8273 41.6483 36.6797 38.4733 33.5047C35.2984 30.3297 30.1508 30.3297 26.9758 33.5047C23.8008 36.6796 23.8008 41.8273 26.9758 45.0022C30.1508 48.1772 35.2984 48.1772 38.4734 45.0022Z" fill="#781428"/>
<path d="M32.73 31.12C28.24 31.12 24.6 34.76 24.6 39.25C24.6 40.99 25.15 42.6 26.08 43.92C27.4 44.85 29.01 45.4 30.75 45.4C35.24 45.4 38.88 41.76 38.88 37.27C38.88 35.53 38.33 33.92 37.4 32.6C36.08 31.67 34.47 31.12 32.73 31.12Z" fill="#980F0F"/>
<path d="M52.64 40.57C57.1301 40.57 60.77 36.9301 60.77 32.44C60.77 27.9499 57.1301 24.31 52.64 24.31C48.1499 24.31 44.51 27.9499 44.51 32.44C44.51 36.9301 48.1499 40.57 52.64 40.57Z" fill="#980F0F"/>
<path d="M78.8381 44.8444C79.8053 40.4598 77.0349 36.1212 72.6503 35.1539C68.2656 34.1867 63.927 36.9571 62.9598 41.3417C61.9926 45.7264 64.7629 50.065 69.1476 51.0322C73.5323 51.9994 77.8708 49.2291 78.8381 44.8444Z" fill="#781428"/>
<path d="M70.91 34.99C66.42 34.99 62.78 38.63 62.78 43.12C62.78 44.86 63.33 46.47 64.26 47.79C65.58 48.72 67.19 49.27 68.93 49.27C73.42 49.27 77.06 45.63 77.06 41.14C77.06 39.4 76.51 37.79 75.58 36.47C74.26 35.54 72.65 34.99 70.91 34.99Z" fill="#980F0F"/>
<path d="M71.92 41.38C71.92 42.62 70.91 43.63 69.67 43.63C68.43 43.63 67.42 42.62 67.42 41.38C67.42 40.14 68.43 39.13 69.67 39.13C70.91 39.13 71.92 40.14 71.92 41.38Z" fill="#AD3942"/>
<path d="M68.51 41.57C73.0001 41.57 76.64 37.9301 76.64 33.44C76.64 28.9499 73.0001 25.31 68.51 25.31C64.0199 25.31 60.38 28.9499 60.38 33.44C60.38 37.9301 64.0199 41.57 68.51 41.57Z" fill="#781428"/>
<path d="M68.51 25.31C64.02 25.31 60.38 28.95 60.38 33.44C60.38 35.18 60.93 36.79 61.86 38.11C63.18 39.04 64.79 39.59 66.53 39.59C71.02 39.59 74.66 35.95 74.66 31.46C74.66 29.72 74.11 28.11 73.18 26.79C71.86 25.86 70.25 25.31 68.51 25.31Z" fill="#980F0F"/>
<path d="M62.7627 47.4874C66.9146 45.7778 68.8945 41.0262 67.1849 36.8743C65.4753 32.7224 60.7237 30.7426 56.5718 32.4521C52.4199 34.1617 50.44 38.9134 52.1496 43.0653C53.8592 47.2171 58.6109 49.197 62.7627 47.4874Z" fill="#781428"/>
<path d="M59.68 31.82C55.19 31.82 51.55 35.46 51.55 39.95C51.55 41.69 52.1 43.3 53.03 44.62C54.35 45.55 55.96 46.1 57.7 46.1C62.19 46.1 65.83 42.46 65.83 37.97C65.83 36.23 65.28 34.62 64.35 33.3C63.03 32.37 61.42 31.82 59.68 31.82Z" fill="#980F0F"/>
<path d="M52.41 40.85C51.36 45.22 46.96 47.9 42.6 46.85C38.23 45.8 35.55 41.4 36.6 37.04C37.65 32.67 42.05 29.99 46.41 31.04C50.78 32.09 53.46 36.49 52.41 40.85Z" fill="#781428"/>
<path d="M46.41 31.04C42.04 29.99 37.65 32.67 36.6 37.04C36.19 38.73 36.35 40.43 36.95 41.93C38.02 43.15 39.45 44.06 41.14 44.47C45.51 45.52 49.9 42.84 50.95 38.47C51.36 36.78 51.2 35.08 50.6 33.58C49.53 32.36 48.1 31.45 46.41 31.04Z" fill="#980F0F"/>
<path d="M69.83 30.46C69.83 31.7 68.82 32.71 67.58 32.71C66.34 32.71 65.33 31.7 65.33 30.46C65.33 29.22 66.34 28.21 67.58 28.21C68.82 28.21 69.83 29.22 69.83 30.46Z" fill="#AD3942"/>
<path d="M59.49 37.9C59.49 39.14 58.48 40.15 57.24 40.15C56 40.15 54.99 39.14 54.99 37.9C54.99 36.66 56 35.65 57.24 35.65C58.48 35.65 59.49 36.66 59.49 37.9Z" fill="#AD3942"/>
<path d="M67.191 30.7175C67.9081 26.2851 64.8962 22.1105 60.4638 21.3934C56.0314 20.6763 51.8568 23.6882 51.1397 28.1207C50.4226 32.5531 53.4345 36.7276 57.8669 37.4447C62.2994 38.1618 66.4739 35.15 67.191 30.7175Z" fill="#781428"/>
<path d="M59.18 21.32C54.69 21.32 51.05 24.96 51.05 29.45C51.05 31.19 51.6 32.8 52.53 34.12C53.85 35.05 55.46 35.6 57.2 35.6C61.69 35.6 65.33 31.96 65.33 27.47C65.33 25.73 64.78 24.12 63.85 22.8C62.53 21.87 60.92 21.32 59.18 21.32Z" fill="#980F0F"/>
<path d="M59.37 28.72C59.37 29.96 58.36 30.97 57.12 30.97C55.88 30.97 54.87 29.96 54.87 28.72C54.87 27.48 55.88 26.47 57.12 26.47C58.36 26.47 59.37 27.48 59.37 28.72Z" fill="#AD3942"/>
<path d="M44.62 37.55C44.62 38.79 43.61 39.8 42.37 39.8C41.13 39.8 40.12 38.79 40.12 37.55C40.12 36.31 41.13 35.3 42.37 35.3C43.61 35.3 44.62 36.31 44.62 37.55Z" fill="#AD3942"/>
<path d="M29.94 39.22C31.1826 39.22 32.19 38.2126 32.19 36.97C32.19 35.7274 31.1826 34.72 29.94 34.72C28.6974 34.72 27.69 35.7274 27.69 36.97C27.69 38.2126 28.6974 39.22 29.94 39.22Z" fill="#AD3942"/>
<path d="M60.45 18.89C61.69 23.21 59.19 27.71 54.87 28.95C50.55 30.19 46.05 27.69 44.81 23.37C43.57 19.05 46.07 14.55 50.39 13.31C54.71 12.07 59.21 14.57 60.45 18.89Z" fill="#781428"/>
<path d="M50.4 13.31C46.08 14.55 43.58 19.05 44.82 23.37C45.3 25.04 46.27 26.44 47.53 27.45C49.06 27.98 50.76 28.07 52.43 27.59C56.75 26.35 59.25 21.85 58.01 17.53C57.53 15.86 56.56 14.46 55.3 13.45C53.77 12.92 52.07 12.83 50.4 13.31Z" fill="#980F0F"/>
<path d="M48.53 30.52C47.67 34.93 43.39 37.8 38.98 36.93C34.57 36.07 31.7 31.79 32.57 27.38C33.43 22.97 37.71 20.1 42.12 20.97C46.53 21.83 49.4 26.11 48.53 30.52Z" fill="#781428"/>
<path d="M42.12 20.97C37.71 20.11 33.44 22.98 32.57 27.38C32.23 29.09 32.47 30.77 33.13 32.25C34.25 33.42 35.72 34.27 37.43 34.61C41.84 35.47 46.11 32.6 46.98 28.2C47.32 26.49 47.08 24.81 46.42 23.33C45.3 22.16 43.83 21.31 42.12 20.97Z" fill="#980F0F"/>
<path d="M32.47 33.37C30.93 37.59 26.26 39.76 22.04 38.21C17.82 36.67 15.65 32 17.2 27.78C18.74 23.56 23.41 21.39 27.63 22.94C31.85 24.48 34.02 29.15 32.47 33.37Z" fill="#781428"/>
<path d="M27.63 22.94C23.41 21.4 18.74 23.57 17.2 27.78C16.6 29.42 16.57 31.12 16.99 32.68C17.91 34.01 19.23 35.08 20.87 35.68C25.09 37.22 29.76 35.05 31.3 30.84C31.9 29.2 31.93 27.5 31.51 25.94C30.59 24.61 29.27 23.54 27.63 22.94Z" fill="#980F0F"/>
<path d="M39.47 27.09C39.47 28.33 38.46 29.34 37.22 29.34C35.98 29.34 34.97 28.33 34.97 27.09C34.97 25.85 35.98 24.84 37.22 24.84C38.46 24.84 39.47 25.85 39.47 27.09Z" fill="#AD3942"/>
<path d="M44.1324 23.1568C47.3073 19.9819 47.3073 14.8342 44.1323 11.6593C40.9574 8.48431 35.8098 8.48429 32.6348 11.6593C29.4598 14.8342 29.4598 19.9819 32.6348 23.1568C35.8098 26.3318 40.9574 26.3318 44.1324 23.1568Z" fill="#781428"/>
<path d="M38.39 9.28001C33.9 9.28001 30.26 12.92 30.26 17.41C30.26 19.15 30.81 20.76 31.74 22.08C33.06 23.01 34.67 23.56 36.41 23.56C40.9 23.56 44.54 19.92 44.54 15.43C44.54 13.69 43.99 12.08 43.06 10.76C41.74 9.83003 40.13 9.28001 38.39 9.28001Z" fill="#980F0F"/>
<path d="M37.3 15.48C37.3 16.72 36.29 17.73 35.05 17.73C33.81 17.73 32.8 16.72 32.8 15.48C32.8 14.24 33.81 13.23 35.05 13.23C36.29 13.23 37.3 14.24 37.3 15.48Z" fill="#AD3942"/>
<path d="M24.76 27.56C24.76 28.8 23.75 29.81 22.51 29.81C21.27 29.81 20.26 28.8 20.26 27.56C20.26 26.32 21.27 25.31 22.51 25.31C23.75 25.31 24.76 26.32 24.76 27.56Z" fill="#AD3942"/>
<path d="M52.02 19.19C52.02 20.43 51.01 21.44 49.77 21.44C48.53 21.44 47.52 20.43 47.52 19.19C47.52 17.95 48.53 16.94 49.77 16.94C51.01 16.94 52.02 17.95 52.02 19.19Z" fill="#AD3942"/>
</svg>
