<svg width="70" height="35" viewBox="0 0 70 35" fill="none" xmlns="http://www.w3.org/2000/svg">
<path d="M6.83 10.27L10.63 12.95C10.63 12.95 6.87 13.42 4.86 19.07C3.41 23.15 3.88 28.44 3.95 28.47C3.96 28.55 9.09 29.97 13.36 29.28C19.28 28.32 20.42 24.71 20.42 24.71L22.81 29.29C22.81 29.29 29.78 26.39 29.46 20.14C29.22 15.41 26.25 12.31 24.81 11.08C23.86 9.45 21.35 5.96001 16.74 4.87001C10.66 3.43001 6.81 10.25 6.81 10.25L6.83 10.27Z" fill="#578D38"/>
<path d="M33 9.23C33 12.3 30.51 14.78 27.45 14.78C24.39 14.78 21.9 12.29 21.9 9.23C21.9 6.17 24.39 3.68 27.45 3.68C30.51 3.68 33 6.17 33 9.23Z" fill="#FED6A6"/>
<path d="M38.06 20.47C41.1252 20.47 43.61 17.9852 43.61 14.92C43.61 11.8548 41.1252 9.37 38.06 9.37C34.9948 9.37 32.51 11.8548 32.51 14.92C32.51 17.9852 34.9948 20.47 38.06 20.47Z" fill="#FED6A6"/>
<path d="M52.28 20.08C52.28 22.63 50.21 24.7 47.66 24.7C45.11 24.7 43.04 22.63 43.04 20.08C43.04 17.53 45.11 15.46 47.66 15.46C50.21 15.46 52.28 17.53 52.28 20.08Z" fill="#FED6A6"/>
<path d="M59.69 24.17C59.69 26.2 58.04 27.85 56.01 27.85C53.98 27.85 52.33 26.2 52.33 24.17C52.33 22.14 53.98 20.49 56.01 20.49C58.04 20.49 59.69 22.14 59.69 24.17Z" fill="#FED6A6"/>
<path d="M59.92 24.67C55.63 24.67 49.2 23.88 43.68 18.89C24.16 1.24 0.419995 2.95 0.259995 2.96L0.160004 0.149999C0.880004 0.129999 23.92 0.889994 45.24 18.34C57.93 28.73 69.12 20.97 69.22 20.9C69.22 20.9 66.33 24.67 59.92 24.67Z" fill="#50A822"/>
<path d="M61.42 27.73L60.56 27.36L60.99 27.55L60.56 27.37C60.56 27.37 60.99 26.32 60.28 25.55C59.5 24.71 58.63 24.69 58.59 24.69V23.75C58.65 23.75 59.9 23.76 60.97 24.92C62.1 26.14 61.45 27.68 61.43 27.75L61.42 27.73Z" fill="#50A822"/>
<path d="M49.66 26.19L49.48 25.27C49.48 25.27 50.36 25.08 50.46 24.48C50.55 23.92 50.08 22.87 49.76 22.34L50.56 21.86C50.66 22.03 51.56 23.56 51.38 24.64C51.17 25.88 49.72 26.18 49.66 26.19Z" fill="#50A822"/>
<path d="M39.17 20.26L38.66 19.47C39.27 19.07 40.13 18.28 40.13 17.75C40.13 17 39.71 15.88 39.55 15.52L40.41 15.14C40.44 15.2 41.07 16.65 41.07 17.75C41.07 18.98 39.37 20.13 39.18 20.25L39.17 20.26Z" fill="#50A822"/>
<path d="M28.31 14.81C28.23 14.81 28.17 14.81 28.11 14.78L28.36 13.88C28.36 13.88 28.31 13.88 28.3 13.88C28.3 13.88 28.6 13.65 28.44 12.23C28.19 9.97 26.66 8.05999 26.65 8.03999L27.38 7.45C27.45 7.54 29.09 9.6 29.38 12.12C29.52 13.39 29.38 14.19 28.92 14.58C28.72 14.75 28.5 14.81 28.32 14.81H28.31Z" fill="#50A822"/>
<path d="M17.69 8.77L17.48 7.86L17.59 8.32001L17.47 7.87C17.47 7.87 17.55 7.84 17.59 7.75C17.63 7.66 17.7 7.4 17.46 6.81C16.93 5.48 15.24 4.28 15.22 4.27L15.76 3.5C15.84 3.55 17.7 4.87 18.34 6.46C18.62 7.17 18.65 7.76 18.42 8.2C18.24 8.55 17.92 8.73 17.71 8.78L17.69 8.77Z" fill="#50A822"/>
<path d="M14.85 17.88C14.85 17.88 14.49 18.89 14.73 19.04C14.97 19.19 15.63 18.2 15.63 18.2L14.85 17.88Z" fill="#0A131F"/>
<path d="M25.9 23.9C25.9 23.9 25.85 24.97 26.13 25.04C26.41 25.11 26.74 23.97 26.74 23.97L25.9 23.9Z" fill="#0A131F"/>
<path d="M34.96 28.47C34.96 28.47 34.34 29.35 34.54 29.55C34.74 29.75 35.63 28.97 35.63 28.97L34.96 28.46V28.47Z" fill="#0A131F"/>
<path d="M46.62 31.45C46.62 31.45 46 32.33 46.2 32.53C46.4 32.73 47.29 31.95 47.29 31.95L46.62 31.44V31.45Z" fill="#0A131F"/>
<path d="M60.56 33.97C60.56 33.97 60.86 35 61.14 34.98C61.42 34.96 61.38 33.77 61.38 33.77L60.57 33.97H60.56Z" fill="#0A131F"/>
<path d="M33.23 18.84C33.23 21.91 30.74 24.39 27.68 24.39C24.62 24.39 22.13 21.9 22.13 18.84C22.13 15.78 24.62 13.29 27.68 13.29C30.74 13.29 33.23 15.78 33.23 18.84Z" fill="#E0A45C"/>
<path d="M27.68 13.28C24.61 13.28 22.13 15.77 22.13 18.83C22.13 20.02 22.51 21.12 23.14 22.02C24.04 22.66 25.14 23.03 26.33 23.03C29.4 23.03 31.88 20.54 31.88 17.48C31.88 16.29 31.5 15.19 30.87 14.29C29.97 13.65 28.87 13.28 27.68 13.28Z" fill="#FED6A6"/>
<path d="M28.37 17.65C28.37 18.5 27.68 19.18 26.84 19.18C26 19.18 25.31 18.49 25.31 17.65C25.31 16.81 26 16.12 26.84 16.12C27.68 16.12 28.37 16.81 28.37 17.65Z" fill="#FEF8F1"/>
<path d="M43.79 24.52C43.79 27.59 41.3 30.07 38.24 30.07C35.18 30.07 32.69 27.58 32.69 24.52C32.69 21.46 35.18 18.97 38.24 18.97C41.3 18.97 43.79 21.46 43.79 24.52Z" fill="#E0A45C"/>
<path d="M38.23 18.96C35.16 18.96 32.68 21.45 32.68 24.51C32.68 25.7 33.06 26.8 33.69 27.7C34.59 28.34 35.69 28.71 36.88 28.71C39.95 28.71 42.43 26.22 42.43 23.16C42.43 21.97 42.05 20.87 41.42 19.97C40.52 19.33 39.42 18.96 38.23 18.96Z" fill="#FED6A6"/>
<path d="M37.39 24.86C38.235 24.86 38.92 24.175 38.92 23.33C38.92 22.485 38.235 21.8 37.39 21.8C36.545 21.8 35.86 22.485 35.86 23.33C35.86 24.175 36.545 24.86 37.39 24.86Z" fill="#FEF8F1"/>
<path d="M52.92 27.94C53.46 30.03 52.2 32.17 50.1 32.7C48.01 33.24 45.87 31.97 45.34 29.88C44.8 27.79 46.06 25.65 48.16 25.12C50.25 24.58 52.39 25.85 52.92 27.94Z" fill="#E0A45C"/>
<path d="M48.15 25.12C46.06 25.66 44.79 27.79 45.33 29.88C45.54 30.69 45.99 31.38 46.58 31.88C47.31 32.16 48.12 32.22 48.94 32.01C51.03 31.47 52.3 29.34 51.76 27.25C51.55 26.44 51.1 25.75 50.51 25.25C49.78 24.97 48.97 24.91 48.15 25.12Z" fill="#FED6A6"/>
<path d="M49.39 27.98C49.54 28.56 49.19 29.15 48.61 29.3C48.03 29.45 47.44 29.1 47.29 28.52C47.14 27.94 47.49 27.35 48.07 27.2C48.65 27.05 49.24 27.4 49.39 27.98Z" fill="#FEF8F1"/>
<path d="M64.09 28.28C65.3 29.86 65.01 32.12 63.43 33.33C61.85 34.54 59.59 34.25 58.38 32.67C57.17 31.09 57.46 28.83 59.04 27.62C60.62 26.41 62.88 26.7 64.09 28.28Z" fill="#E0A45C"/>
<path d="M59.04 27.62C57.46 28.83 57.17 31.09 58.38 32.67C58.85 33.28 59.48 33.7 60.16 33.91C60.88 33.88 61.59 33.64 62.2 33.17C63.78 31.96 64.07 29.7 62.86 28.12C62.39 27.51 61.76 27.09 61.08 26.88C60.36 26.91 59.65 27.15 59.04 27.62Z" fill="#FED6A6"/>
<path d="M61.12 29.59C61.45 30.03 61.37 30.65 60.94 30.99C60.5 31.32 59.88 31.24 59.55 30.81C59.22 30.37 59.3 29.75 59.73 29.42C60.16 29.09 60.79 29.17 61.12 29.6V29.59Z" fill="#FEF8F1"/>
<path d="M23.39 13.45C23.39 16.52 20.9 19 17.84 19C14.78 19 12.29 16.51 12.29 13.45C12.29 10.39 14.78 7.9 17.84 7.9C20.9 7.9 23.39 10.39 23.39 13.45Z" fill="#E0A45C"/>
<path d="M17.84 7.89C14.77 7.89 12.29 10.38 12.29 13.44C12.29 14.63 12.67 15.73 13.3 16.63C14.2 17.27 15.3 17.64 16.49 17.64C19.56 17.64 22.04 15.15 22.04 12.09C22.04 10.9 21.66 9.79999 21.03 8.89999C20.13 8.25999 19.03 7.89 17.84 7.89Z" fill="#FED6A6"/>
<path d="M18.53 12.26C18.53 13.11 17.84 13.79 17 13.79C16.16 13.79 15.47 13.1 15.47 12.26C15.47 11.42 16.16 10.73 17 10.73C17.84 10.73 18.53 11.42 18.53 12.26Z" fill="#FEF8F1"/>
</svg>
