<svg width="41" height="61" viewBox="0 0 41 61" fill="none" xmlns="http://www.w3.org/2000/svg">
<path d="M19.88 18.35C19.88 18.35 14.88 17.07 12 13.11C9.11999 9.15 9.43999 4 9.43999 4C9.43999 4 14.44 5.28 17.32 9.24C20.2 13.2 19.88 18.35 19.88 18.35Z" fill="#578D38"/>
<path d="M19.61 18.32C19.61 18.32 14.62 19.65 10.17 17.6C5.72001 15.55 3.48999 10.9 3.48999 10.9C3.48999 10.9 8.47999 9.57 12.93 11.62C17.38 13.67 19.62 18.32 19.62 18.32H19.61Z" fill="#50A822"/>
<path d="M21.42 18.35C21.42 18.35 26.42 17.07 29.3 13.11C32.18 9.15 31.86 4 31.86 4C31.86 4 26.86 5.28 23.98 9.24C21.1 13.2 21.42 18.35 21.42 18.35Z" fill="#578D38"/>
<path d="M21.86 18.32C21.86 18.32 26.85 19.65 31.3 17.6C35.75 15.55 37.98 10.9 37.98 10.9C37.98 10.9 32.99 9.57 28.54 11.62C24.09 13.67 21.86 18.32 21.86 18.32Z" fill="#50A822"/>
<path d="M20.58 18.19C20.58 18.19 17.29 14.22 17.29 9.32C17.29 4.42 20.58 0.449997 20.58 0.449997C20.58 0.449997 23.87 4.42 23.87 9.32C23.87 14.22 20.58 18.19 20.58 18.19Z" fill="#50A822"/>
<path d="M40.82 30.8C40.82 38.2 31.83 60.69 20.74 60.69C9.64999 60.69 0.660004 38.19 0.660004 30.8C0.660004 23.41 3.92999 15.07 20.9 15.07C37.87 15.07 40.83 23.4 40.83 30.8H40.82Z" fill="#C40000"/>
<path d="M15.28 55.55C26.37 55.55 35.36 33.05 35.36 25.66C35.36 22.91 34.95 20.03 33.56 17.5C30.61 16 26.52 15.07 20.88 15.07C3.91001 15.07 0.640015 23.4 0.640015 30.8C0.640015 35.58 4.4 46.69 10.06 53.93C11.72 54.96 13.47 55.55 15.27 55.55H15.28Z" fill="#E00000"/>
<path d="M19.48 32.28C19.48 36.62 16.52 40.14 12.86 40.14C9.19999 40.14 6.23999 36.62 6.23999 32.28C6.23999 27.94 9.19999 24.42 12.86 24.42C16.52 24.42 19.48 27.94 19.48 32.28Z" fill="#FF5959"/>
<path d="M36.14 24.2C36.14 25.28 34.89 26.16 34.89 26.16C34.89 26.16 33.64 25.28 33.64 24.2C33.64 23.12 34.2 22.24 34.89 22.24C35.58 22.24 36.14 23.12 36.14 24.2Z" fill="#D4A626"/>
<path d="M30.22 33.23C30.22 34.31 28.97 35.19 28.97 35.19C28.97 35.19 27.72 34.31 27.72 33.23C27.72 32.15 28.28 31.27 28.97 31.27C29.66 31.27 30.22 32.15 30.22 33.23Z" fill="#D4A626"/>
<path d="M29.76 45.06C29.76 46.14 28.51 47.02 28.51 47.02C28.51 47.02 27.26 46.14 27.26 45.06C27.26 43.98 27.82 43.1 28.51 43.1C29.2 43.1 29.76 43.98 29.76 45.06Z" fill="#D4A626"/>
<path d="M15.28 45.06C15.28 46.14 14.03 47.02 14.03 47.02C14.03 47.02 12.78 46.14 12.78 45.06C12.78 43.98 13.34 43.1 14.03 43.1C14.72 43.1 15.28 43.98 15.28 45.06Z" fill="#D4A626"/>
<path d="M22.52 39.53C22.52 40.61 21.27 41.49 21.27 41.49C21.27 41.49 20.02 40.61 20.02 39.53C20.02 38.45 20.58 37.57 21.27 37.57C21.96 37.57 22.52 38.45 22.52 39.53Z" fill="#D4A626"/>
<path d="M22.52 52.77C22.52 53.85 21.27 54.73 21.27 54.73C21.27 54.73 20.02 53.85 20.02 52.77C20.02 51.69 20.58 50.81 21.27 50.81C21.96 50.81 22.52 51.69 22.52 52.77Z" fill="#D4A626"/>
<path d="M8.42999 24.2C8.42999 25.28 7.17999 26.16 7.17999 26.16C7.17999 26.16 5.92999 25.28 5.92999 24.2C5.92999 23.12 6.48999 22.24 7.17999 22.24C7.86999 22.24 8.42999 23.12 8.42999 24.2Z" fill="#D4A626"/>
<path d="M22.28 24.2C22.28 25.28 21.03 26.16 21.03 26.16C21.03 26.16 19.78 25.28 19.78 24.2C19.78 23.12 20.34 22.24 21.03 22.24C21.72 22.24 22.28 23.12 22.28 24.2Z" fill="#D4A626"/>
<path d="M14.81 33.23C14.81 34.31 13.56 35.19 13.56 35.19C13.56 35.19 12.31 34.31 12.31 33.23C12.31 32.15 12.87 31.27 13.56 31.27C14.25 31.27 14.81 32.15 14.81 33.23Z" fill="#D4A626"/>
</svg>
