<svg width="79" height="66" viewBox="0 0 79 66" fill="none" xmlns="http://www.w3.org/2000/svg">
<path d="M66.55 25.05C66.55 25.05 68.01 23.53 70.92 23.86C73.83 24.19 73.5 26.18 75.35 27.3C77.2 28.42 78.39 27.37 78.39 27.37C78.39 27.37 77.27 30.08 74.09 28.49C71.97 27.43 71.64 25.98 69.46 26.64C67.28 27.3 67.01 27.76 67.01 27.76L66.55 25.05Z" fill="#7A663A"/>
<path d="M34.32 53.36C52.7387 53.36 67.67 41.6299 67.67 27.16C67.67 12.6901 52.7387 0.959991 34.32 0.959991C15.9013 0.959991 0.970001 12.6901 0.970001 27.16C0.970001 41.6299 15.9013 53.36 34.32 53.36Z" fill="#336A2C"/>
<path d="M34.32 53.36C52.7387 53.36 67.67 41.6299 67.67 27.16C67.67 12.6901 52.7387 0.959991 34.32 0.959991C15.9013 0.959991 0.970001 12.6901 0.970001 27.16C0.970001 41.6299 15.9013 53.36 34.32 53.36Z" fill="#204D1C"/>
<path d="M0.970001 27.16C0.970001 32.5 2.67 37.47 5.87 41.62C10.85 43.95 16.95 45.3 24.01 45.3C44.89 45.3 57.36 33.57 57.36 19.1C57.36 13.76 55.66 8.79001 52.46 4.64001C47.48 2.31001 41.38 0.959991 34.32 0.959991C13.44 0.959991 0.970001 12.69 0.970001 27.16Z" fill="#286123"/>
<path d="M66.45 26.56C65.86 26.56 63.51 27.13 63.51 27.13H60.96C60.96 27.13 59 23.14 59.78 25.99C60.57 28.84 60.96 28.27 60.57 28.84C60.18 29.41 58.21 28.65 56.45 29.03C54.68 29.41 54.09 31.12 53.9 29.79C53.7 28.46 54.69 27.13 54.1 27.32C53.51 27.51 52.33 28.65 51.94 29.22C51.55 29.79 50.57 30.55 50.57 30.55L48.02 29.79L47.43 30.55L45.66 31.12C45.66 31.12 44.09 30.17 44.09 29.6C44.09 29.03 43.3 26.56 43.89 26.18C44.48 25.8 46.44 24.66 47.62 25.61C48.8 26.56 49.78 24.47 50.76 25.61C51.74 26.75 51.35 25.99 51.74 26.75C52.13 27.51 52.92 24.28 54.88 25.04C56.84 25.8 54.49 26.37 56.84 26.94C59.2 27.51 56.84 23.33 58.8 23.9C60.76 24.47 63.71 25.23 64.89 25.23C66.07 25.23 66.46 26.56 66.46 26.56H66.45Z" fill="#678739"/>
<path d="M54.87 25.04C52.91 24.28 52.12 27.51 51.73 26.75C51.34 25.99 51.73 26.75 50.75 25.61C49.77 24.47 48.79 26.56 47.61 25.61C46.43 24.66 44.47 25.8 43.88 26.18C43.29 26.56 44.08 29.03 44.08 29.6C44.08 30.17 45.65 31.12 45.65 31.12L47.42 30.55L48.01 29.79L50.56 30.55C50.56 30.55 51.54 29.79 51.93 29.22C52.32 28.65 53.5 27.51 54.09 27.32C54.68 27.13 53.7 28.46 53.89 29.79C54 30.57 54.26 30.3 54.8 29.87C55.32 28.85 55.76 27.8 56.13 26.71C55.03 26.21 56.58 25.7 54.88 25.04H54.87Z" fill="#96BD5D"/>
<path d="M41.46 24.94C40.81 24.94 38.64 23.64 37.99 23.82C37.34 24.01 33.21 24.75 33.21 24.75C33.21 24.75 36.25 26.24 35.16 27.17C34.07 28.1 31.9 26.43 31.9 26.43C31.9 26.43 31.03 23.64 30.16 23.82C29.29 24.01 27.12 24.94 27.12 24.94L22.56 26.99L21.91 25.31C21.91 25.31 17.35 23.45 17.13 24.19C16.91 24.93 14.09 26.05 13.66 25.12C13.23 24.19 16.48 23.63 13.23 24.19C9.97 24.75 5.2 27.54 5.2 25.31C5.2 23.08 3.46001 22.52 2.60001 22.7C2.33001 22.76 1.86 22.83 1.34 22.91C1.09 24.29 0.970001 25.71 0.970001 27.16C0.970001 28.61 1.09 29.98 1.33 31.34C2.52 31.83 4.14 32.15 5.64 31.26C8.46 29.58 8.23999 26.05 9.75999 28.28C11.28 30.51 7.81 28.65 11.28 30.51C14.75 32.37 16.49 31.63 16.92 29.95C17.35 28.27 17.35 27.16 18.66 29.21C19.96 31.26 22.35 32.75 23.44 31.63C24.53 30.51 22.79 28.65 26.7 28.84C30.61 29.03 28.44 29.4 29.74 30.52C31.04 31.64 28.44 32.57 34.52 31.08C40.6 29.59 40.6 29.4 40.6 29.4C40.6 29.4 38.65 27.35 39.51 27.17C40.38 26.98 42.11 24.94 41.46 24.94Z" fill="#96BD5D"/>
<path d="M66.5 19.75C62.59 18.51 55.51 13.81 56.75 15.88C58 17.96 56.81 19.43 55.33 17.84C53.85 16.25 54.27 12.69 53.33 14.48C52.39 16.27 49.97 16.64 48.98 15.52C47.99 14.41 47.27 15.06 45.82 15.09C44.36 15.11 42.38 12.72 40.44 12.59C38.5 12.46 28.51 10.37 31.7 12.41C34.89 14.46 36.61 15.88 32.95 14.65C29.29 13.42 27.31 11.19 24.89 11.71C22.47 12.23 24.93 13.97 23.48 14.48C22.03 14.99 21.97 11.43 19.79 11.47C17.61 11.51 15.22 13.65 14.49 13.98C13.77 14.32 11.59 14.67 11.58 14.19C11.58 13.71 8.39999 12.79 8.39999 12.79C8.39999 12.79 7.48999 16.36 3.14999 18.37C2.89999 18.48 2.68 18.59 2.48 18.7C2.24 19.34 2.03 19.98 1.84 20.64C3.45 19.98 7.13999 18.63 10.43 18.58C14.8 18.51 12.55 14.99 16.21 16.22C19.87 17.45 22.54 17.57 24.24 17.54C25.94 17.51 26.16 16.54 29.57 17.13C32.98 17.72 33.47 18.03 36.39 18.47C39.31 18.91 36.09 15.08 39.26 16.16C42.43 17.24 42.2 17.57 43.19 18.84C44.18 20.12 46.56 17.17 48.53 18.75C50.5 20.33 53.65 20.28 54.87 20.58C56.09 20.88 62.86 19.64 62.87 20.12C62.87 20.6 65.1 22.83 65.1 22.83C65.4 22.76 66.35 22.43 67.09 21.98C66.92 21.22 66.72 20.46 66.48 19.72L66.5 19.75Z" fill="#678739"/>
<path d="M56.76 15.88C58.01 17.96 56.82 19.43 55.34 17.84C53.86 16.25 54.28 12.69 53.34 14.48C52.4 16.27 49.98 16.64 48.99 15.52C48 14.41 47.28 15.06 45.83 15.09C44.37 15.11 42.39 12.72 40.45 12.59C38.51 12.46 28.52 10.37 31.71 12.41C34.9 14.46 36.62 15.88 32.96 14.65C29.3 13.42 27.32 11.19 24.9 11.71C22.48 12.23 24.94 13.97 23.49 14.48C22.04 14.99 21.98 11.43 19.8 11.47C17.62 11.51 15.23 13.65 14.5 13.98C13.78 14.32 11.6 14.67 11.59 14.19C11.59 13.71 8.41 12.79 8.41 12.79C8.41 12.79 7.5 16.36 3.16 18.37C2.91 18.48 2.69001 18.59 2.49001 18.7C2.38001 18.99 2.26999 19.29 2.17999 19.59C2.15999 19.64 2.15 19.69 2.13 19.74C2.03 20.04 1.94001 20.34 1.85001 20.64C3.46001 19.98 7.15 18.63 10.44 18.58C14.81 18.51 12.56 14.99 16.22 16.22C19.88 17.45 22.55 17.57 24.25 17.54C25.95 17.51 26.17 16.54 29.58 17.13C32.99 17.72 33.48 18.03 36.4 18.47C39.32 18.91 36.1 15.08 39.27 16.16C42.44 17.24 42.21 17.57 43.2 18.84C44.19 20.12 46.57 17.17 48.54 18.75C50.51 20.33 53.66 20.28 54.88 20.58C55.26 20.68 56.2 20.62 57.3 20.51C57.33 20.04 57.34 19.56 57.34 19.08C57.34 17.82 57.24 16.59 57.06 15.38C56.61 15.27 56.46 15.38 56.75 15.86L56.76 15.88Z" fill="#96BD5D"/>
<path d="M57.91 7.92002C56.98 7.48002 56.12 7.03002 55.23 6.89002C53.34 6.59002 49.97 6.29002 50.37 6.89002C50.77 7.49002 51.76 7.28999 53.35 8.07999C54.94 8.86999 53.95 8.86999 55.73 9.76999C57.52 10.66 56.72 10.17 59.01 10.27C60.09 10.32 60.71 10.56 61.13 10.79C60.16 9.77001 59.09 8.81002 57.92 7.92002H57.91Z" fill="#678739"/>
<path d="M53.88 6.71C52.08 6.51 50.06 6.42002 50.37 6.89002C50.77 7.49002 51.76 7.28999 53.35 8.07999C54.83 8.81999 54.07 8.87 55.39 9.59C54.96 8.6 54.45 7.64 53.88 6.71Z" fill="#96BD5D"/>
<path d="M50.87 8.48001C49.28 7.69001 47.89 5.8 47.5 5.5C47.1 5.2 46.61 9.46999 44.42 6.98999C42.23 4.50999 41.44 2.91999 40.75 3.80999C40.06 4.69999 40.65 4.41001 37.28 4.01001C33.91 3.61001 30.93 3.90999 31.62 4.89999C32.31 5.88999 31.52 5.49999 35.49 6.58999C39.46 7.67999 39.66 6.59 41.64 7.88C43.62 9.17 44.52 9.56999 46.5 9.26999C48.48 8.96999 47.29 8.27999 48.39 9.36999C49.48 10.46 50.87 8.48001 50.87 8.48001Z" fill="#96BD5D"/>
<path d="M12.58 9.35999C15.18 9.46999 17.08 6.95 17.49 7.12C17.9 7.29 19.41 7.58 21.1 7.56C22.79 7.54 21.45 6.94001 22.12 5.20001C22.79 3.46001 23.22 5.32001 23.56 5.79001C23.89 6.26001 25.77 7.52 26.33 6.88C26.88 6.24 27.21 5.32001 27.71 5.39001C28.21 5.45001 28.43 7.03001 30.29 6.70001C32.16 6.37001 29.91 5.63 30.04 4.63C30.17 3.63 30.48 3.90001 29.32 2.89001C29.32 2.89001 27.16 2.74999 25.33 1.76999C18.71 2.99999 13.29 5.59 9.25 9.13C10.16 9.22 11.34 9.32 12.57 9.37L12.58 9.35999Z" fill="#96BD5D"/>
<path d="M60.34 32.75C57.08 33.52 56.44 31.9 55.62 33.62C54.8 35.34 54.19 36.12 52.44 35.59C50.68 35.06 45.86 36.31 46.97 37.16C48.09 38.01 48.96 39.15 50.84 39.58C52.72 40.01 55.36 37.8 57.19 37.31C59.01 36.82 58.37 35.11 62.1 35.32C65.83 35.53 66.14 32.19 66.94 32.32C66.99 32.32 67.04 32.34 67.11 32.34C67.29 31.5 67.43 30.65 67.52 29.78C65.84 30.95 63.26 32.06 60.34 32.75Z" fill="#678739"/>
<path d="M46.98 37.15C47.34 37.42 47.67 37.72 48.02 38.02C49.03 37.22 49.96 36.37 50.81 35.48C48.74 35.62 46.13 36.5 46.98 37.15Z" fill="#96BD5D"/>
<path d="M45.24 38.48C43.92 37.82 45.11 35.83 43.92 34.51C43.92 34.51 43.66 34.77 42.2 34.38C40.74 33.98 41.27 36.89 39.69 35.84C38.1 34.78 37.71 34.91 32.81 36.63C27.91 38.35 30.03 37.56 27.65 36.23C25.27 34.9 22.89 35.83 20.5 37.82C18.12 39.8 17.06 37.82 14.55 36.76C12.04 35.7 12.17 37.55 9.78999 36.5C8.10999 35.75 5.39 36.32 3.13 37.09C3.82 38.58 4.66 40 5.66 41.34C6.48 40.67 7.26 40.07 7.53 40.07C8.19 40.07 10.97 41.92 11.37 42.58C11.77 43.24 13.62 41.92 14.55 40.33C15.48 38.74 15.61 39.54 16.67 40.59C17.73 41.64 20.77 40.06 21.43 39.93C22.09 39.8 25.14 38.87 24.87 39.67C24.61 40.46 26.72 42.05 27.65 40.99C28.58 39.93 30.56 41.39 30.96 42.97C31.36 44.55 33.08 44.16 34.27 43.5C35.46 42.84 35.2 40.59 35.99 39C36.78 37.41 40.22 43.5 41.81 41.12C43.4 38.74 45.52 43.5 47.24 40.99C48.96 38.48 46.58 39.14 45.26 38.48H45.24Z" fill="#678739"/>
<path d="M45.24 38.48C43.92 37.82 45.11 35.83 43.92 34.51C43.92 34.51 43.66 34.77 42.2 34.38C40.74 33.98 41.27 36.89 39.69 35.84C38.1 34.78 37.71 34.91 32.81 36.63C27.91 38.35 30.03 37.56 27.65 36.23C25.27 34.9 22.89 35.83 20.5 37.82C18.12 39.8 17.06 37.82 14.55 36.76C12.04 35.7 12.17 37.55 9.78999 36.5C8.10999 35.75 5.39 36.32 3.14 37.09C3.18 37.18 3.22 37.28 3.27 37.37C3.3 37.44 3.34 37.51 3.37 37.58C3.49 37.82 3.61001 38.06 3.74001 38.3C3.77001 38.36 3.8 38.41 3.83 38.47C3.96 38.7 4.09 38.93 4.22 39.16C4.23 39.18 4.23999 39.2 4.25999 39.22C4.40999 39.48 4.57 39.73 4.73 39.98C4.75 40.01 4.76999 40.04 4.78999 40.07C5.06999 40.5 5.37 40.91 5.67 41.33C6.49 40.66 7.25999 40.07 7.53999 40.07C8.19999 40.07 10.98 41.92 11.38 42.58C11.78 43.24 13.63 41.92 14.56 40.33C15.49 38.74 15.62 39.54 16.68 40.59C17.74 41.64 20.78 40.06 21.44 39.93C22.1 39.8 25.15 38.87 24.88 39.67C24.62 40.46 26.73 42.05 27.66 40.99C28.59 39.93 30.57 41.39 30.97 42.97C31.37 44.55 33.09 44.16 34.28 43.5C35.47 42.84 35.21 40.59 36 39C36.79 37.41 40.23 43.5 41.82 41.12C42.44 40.19 43.14 40.35 43.87 40.74C44.92 40.17 45.92 39.55 46.86 38.88C46.35 38.77 45.73 38.71 45.26 38.47L45.24 38.48Z" fill="#96BD5D"/>
<path d="M62.56 41.89C62.67 40 62.4 38.27 61.26 39.94C59.54 42.45 58.75 41.53 56.89 41.79C55.04 42.05 55.17 43.77 55.43 44.57C55.69 45.36 53.18 46.42 52.78 46.42C52.44 46.42 51.21 48.88 50.79 50.4C55.75 48.39 59.71 45.45 62.55 41.88L62.56 41.89Z" fill="#678739"/>
<path d="M47.1 47.35C45.38 47.88 45.78 50.26 43.66 48.81C41.54 47.35 38.23 47.22 38.5 48.02C38.76 48.81 40.35 50.53 39.16 50.93C37.97 51.33 32.41 48.55 31.75 50.4C31.09 52.25 31.49 52.91 28.18 52.25C26.84 51.98 25.63 52.15 24.67 52.44C27.65 53.04 30.87 53.37 34.33 53.37C38.77 53.37 42.84 52.84 46.48 51.86C47.18 50.62 48.56 46.91 47.11 47.36L47.1 47.35Z" fill="#678739"/>
<path d="M32.67 46.95C30.29 46.69 29.63 45.76 27.64 46.16C25.65 46.56 24.2 46.42 21.55 45.37C19.07 44.38 15.32 46.52 9.96001 45.82C13.23 48.49 17.34 50.57 22.2 51.87C22.2 51.08 21.95 50.09 21.95 49.61C21.95 48.55 25.13 48.42 27.24 50.54C29.35 52.66 29.75 49.35 30.95 48.03C32.15 46.71 35.58 48.03 35.98 47.77C36.38 47.51 35.05 47.24 32.67 46.98V46.95Z" fill="#678739"/>
<path d="M21.62 28.62C27.5405 28.62 32.34 24.6219 32.34 19.69C32.34 14.7581 27.5405 10.76 21.62 10.76C15.6995 10.76 10.9 14.7581 10.9 19.69C10.9 24.6219 15.6995 28.62 21.62 28.62Z" fill="#509C49"/>
<path d="M12.48 24.36C14.36 26.92 17.75 28.63 21.62 28.63C25.49 28.63 29 26.86 30.86 24.22C30.64 23.94 30.4 23.77 30.17 23.82C29.3 24.01 27.13 24.94 27.13 24.94L22.57 26.99L21.92 25.31C21.92 25.31 17.36 23.45 17.14 24.19C16.92 24.93 14.1 26.05 13.67 25.12C13.24 24.19 16.49 23.63 13.24 24.19C12.99 24.23 12.74 24.29 12.48 24.35V24.36Z" fill="#B2DB76"/>
<path d="M26.55 11.76C26.01 11.63 25.46 11.6 24.9 11.72C22.48 12.25 24.94 13.98 23.49 14.49C22.04 15 21.98 11.44 19.8 11.48C17.62 11.52 15.23 13.66 14.5 13.99C14.18 14.14 13.58 14.29 13 14.37C11.94 15.57 11.22 17 10.99 18.55C14.63 18.2 12.74 15.05 16.24 16.22C19.9 17.45 22.57 17.57 24.27 17.54C25.97 17.51 26.19 16.54 29.6 17.13C30.64 17.31 31.4 17.46 32.05 17.6C31.32 15.05 29.28 12.93 26.55 11.75V11.76Z" fill="#B2DB76"/>
<path d="M24.92 58.2L26.53 59.81C31.37 63.41 38.13 65.61 46.47 65.61C54.81 65.61 61.57 63.41 66.41 59.81L68.02 58.2L45.32 15.32L24.93 58.2H24.92Z" fill="#FFCB94"/>
<path d="M64.27 60.93L42.97 20.23L24.91 58.2L26.52 59.81C31.36 63.41 38.12 65.61 46.46 65.61C53.8 65.61 59.61 63.8 64.27 60.94V60.93Z" fill="#FFDBB5"/>
<path d="M66.4 56.76C61.56 60.36 54.8 62.56 46.46 62.56C38.12 62.56 31.36 60.36 26.52 56.76L25.9 56.14L24.92 58.21C24.92 58.21 25.49 58.88 26.68 59.89C27.87 60.9 34 65.61 46.47 65.61C59.7 65.61 65.64 60.57 66.41 59.81C67.18 59.06 68.02 58.2 68.02 58.2L66.97 56.21L66.42 56.76H66.4Z" fill="#285423"/>
<path d="M26.44 55L26.67 55.23C31.51 58.83 38.27 61.03 46.61 61.03C54.95 61.03 61.64 58.86 66.47 55.29L45.3 15.32L26.43 55H26.44Z" fill="#DB4A48"/>
<path d="M62.54 57.67L42.85 20.48L26.44 55L26.67 55.23C31.51 58.83 38.27 61.03 46.61 61.03C52.85 61.03 58.21 59.8 62.54 57.67Z" fill="#FF6563"/>
<path d="M40.74 48.75C30.09 48.75 40.4 31.89 42.34 31.89C44.28 31.89 51.4 48.75 40.74 48.75Z" fill="#FF8482"/>
<path d="M47.13 33.41C47.13 34.08 46.58 34.63 45.91 34.63C45.24 34.63 44.69 34.08 44.69 33.41C44.69 32.74 45.91 30.57 45.91 30.57C45.91 30.57 47.13 32.74 47.13 33.41Z" fill="black"/>
<path d="M41.65 40.52C41.65 41.19 41.1 41.74 40.43 41.74C39.76 41.74 39.21 41.19 39.21 40.52C39.21 39.85 40.43 37.68 40.43 37.68C40.43 37.68 41.65 39.85 41.65 40.52Z" fill="black"/>
<path d="M52.31 40.52C52.31 41.19 51.76 41.74 51.09 41.74C50.42 41.74 49.87 41.19 49.87 40.52C49.87 39.85 51.09 37.68 51.09 37.68C51.09 37.68 52.31 39.85 52.31 40.52Z" fill="black"/>
<path d="M47.13 48.13C47.13 48.8 46.58 49.35 45.91 49.35C45.24 49.35 44.69 48.8 44.69 48.13C44.69 47.46 45.91 45.29 45.91 45.29C45.91 45.29 47.13 47.46 47.13 48.13Z" fill="black"/>
<path d="M41.65 55.24C41.65 55.91 41.1 56.46 40.43 56.46C39.76 56.46 39.21 55.91 39.21 55.24C39.21 54.57 40.43 52.4 40.43 52.4C40.43 52.4 41.65 54.57 41.65 55.24Z" fill="black"/>
<path d="M52.31 55.24C52.31 55.91 51.76 56.46 51.09 56.46C50.42 56.46 49.87 55.91 49.87 55.24C49.87 54.57 51.09 52.4 51.09 52.4C51.09 52.4 52.31 54.57 52.31 55.24Z" fill="black"/>
<path d="M57.49 48.13C57.49 48.8 56.94 49.35 56.27 49.35C55.6 49.35 55.05 48.8 55.05 48.13C55.05 47.46 56.27 45.29 56.27 45.29C56.27 45.29 57.49 47.46 57.49 48.13Z" fill="black"/>
<path d="M36.16 48.13C36.16 48.8 35.61 49.35 34.94 49.35C34.27 49.35 33.72 48.8 33.72 48.13C33.72 47.46 34.94 45.29 34.94 45.29C34.94 45.29 36.16 47.46 36.16 48.13Z" fill="black"/>
<path d="M64.37 61.32L63.06 58.85C58.62 61.19 53.03 62.55 46.46 62.55C38.12 62.55 31.36 60.35 26.52 56.75L25.9 56.13L24.92 58.2C24.92 58.2 25.49 58.87 26.68 59.88C27.87 60.89 34 65.6 46.47 65.6C55.86 65.6 61.57 63.06 64.38 61.32H64.37Z" fill="#336A2C"/>
</svg>
